G04 #@! TF.FileFunction,Legend,Top*
%FSLAX46Y46*%
G04 Gerber Fmt 4.6, Leading zero omitted, Abs format (unit mm)*
G04 Created by KiCad (PCBNEW 4.0.2-stable) date Mon 29 Aug 2016 22:28:05 CEST*
%MOMM*%
G01*
G04 APERTURE LIST*
%ADD10C,0.100000*%
%ADD11C,0.200000*%
%ADD12C,0.127000*%
%ADD13C,0.150000*%
%ADD14C,0.149860*%
%ADD15C,0.200660*%
%ADD16C,0.220000*%
%ADD17C,0.254000*%
%ADD18C,0.088900*%
%ADD19C,0.119380*%
%ADD20C,0.125000*%
%ADD21C,0.304800*%
%ADD22C,0.195580*%
%ADD23C,0.198120*%
%ADD24C,0.099060*%
%ADD25C,0.076200*%
%ADD26C,0.152400*%
G04 APERTURE END LIST*
D10*
D11*
X149756000Y-108186000D02*
X149756000Y-106408000D01*
X153566000Y-108186000D02*
X149756000Y-108186000D01*
X153566000Y-106408000D02*
X153566000Y-108186000D01*
X149756000Y-106408000D02*
X153566000Y-106408000D01*
X150772000Y-106408000D02*
X152423000Y-106408000D01*
D12*
X154869020Y-98018380D02*
X154869020Y-97017620D01*
X154269580Y-97017620D02*
X154269580Y-98018380D01*
X154569300Y-97617060D02*
X154569300Y-97418940D01*
X154470240Y-97317340D02*
X154470240Y-97718660D01*
X154470240Y-97718660D02*
X154668360Y-97518000D01*
X154668360Y-97518000D02*
X154470240Y-97317340D01*
X153769200Y-97017620D02*
X155369400Y-97017620D01*
X155369400Y-97017620D02*
X155369400Y-98018380D01*
X155369400Y-98018380D02*
X153769200Y-98018380D01*
X153769200Y-98018380D02*
X153769200Y-97017620D01*
X154869020Y-96494380D02*
X154869020Y-95493620D01*
X154269580Y-95493620D02*
X154269580Y-96494380D01*
X154569300Y-96093060D02*
X154569300Y-95894940D01*
X154470240Y-95793340D02*
X154470240Y-96194660D01*
X154470240Y-96194660D02*
X154668360Y-95994000D01*
X154668360Y-95994000D02*
X154470240Y-95793340D01*
X153769200Y-95493620D02*
X155369400Y-95493620D01*
X155369400Y-95493620D02*
X155369400Y-96494380D01*
X155369400Y-96494380D02*
X153769200Y-96494380D01*
X153769200Y-96494380D02*
X153769200Y-95493620D01*
X154869020Y-94970380D02*
X154869020Y-93969620D01*
X154269580Y-93969620D02*
X154269580Y-94970380D01*
X154569300Y-94569060D02*
X154569300Y-94370940D01*
X154470240Y-94269340D02*
X154470240Y-94670660D01*
X154470240Y-94670660D02*
X154668360Y-94470000D01*
X154668360Y-94470000D02*
X154470240Y-94269340D01*
X153769200Y-93969620D02*
X155369400Y-93969620D01*
X155369400Y-93969620D02*
X155369400Y-94970380D01*
X155369400Y-94970380D02*
X153769200Y-94970380D01*
X153769200Y-94970380D02*
X153769200Y-93969620D01*
X154869020Y-93446380D02*
X154869020Y-92445620D01*
X154269580Y-92445620D02*
X154269580Y-93446380D01*
X154569300Y-93045060D02*
X154569300Y-92846940D01*
X154470240Y-92745340D02*
X154470240Y-93146660D01*
X154470240Y-93146660D02*
X154668360Y-92946000D01*
X154668360Y-92946000D02*
X154470240Y-92745340D01*
X153769200Y-92445620D02*
X155369400Y-92445620D01*
X155369400Y-92445620D02*
X155369400Y-93446380D01*
X155369400Y-93446380D02*
X153769200Y-93446380D01*
X153769200Y-93446380D02*
X153769200Y-92445620D01*
D13*
X88387000Y-106408000D02*
G75*
G03X88387000Y-106408000I-100000J0D01*
G01*
X89287000Y-106408000D02*
G75*
G03X89287000Y-106408000I-1000000J0D01*
G01*
X89287000Y-107708000D02*
X87287000Y-107708000D01*
X89587000Y-105408000D02*
X89587000Y-107408000D01*
X87287000Y-105108000D02*
X89287000Y-105108000D01*
X86987000Y-107408000D02*
X86987000Y-105408000D01*
X89287000Y-107708000D02*
G75*
G03X89587000Y-107408000I0J300000D01*
G01*
X89587000Y-105408000D02*
G75*
G03X89287000Y-105108000I-300000J0D01*
G01*
X87287000Y-105108000D02*
G75*
G03X86987000Y-105408000I0J-300000D01*
G01*
X86987000Y-107408000D02*
G75*
G03X87287000Y-107708000I300000J0D01*
G01*
X148455500Y-107606500D02*
X145255500Y-107606500D01*
X145255500Y-107606500D02*
X145255500Y-105006500D01*
X145255500Y-105006500D02*
X148455500Y-105006500D01*
X148455500Y-105006500D02*
X148455500Y-107606500D01*
X154832000Y-109997000D02*
X154332000Y-109997000D01*
X154332000Y-110947000D02*
X154832000Y-110947000D01*
X146817500Y-104279500D02*
X147317500Y-104279500D01*
X147317500Y-103329500D02*
X146817500Y-103329500D01*
X147212000Y-108473000D02*
X146712000Y-108473000D01*
X146712000Y-109423000D02*
X147212000Y-109423000D01*
X127188000Y-116347000D02*
X126688000Y-116347000D01*
X126688000Y-117297000D02*
X127188000Y-117297000D01*
X149916000Y-104719000D02*
X149916000Y-105219000D01*
X150866000Y-105219000D02*
X150866000Y-104719000D01*
X152710000Y-104719000D02*
X152710000Y-105219000D01*
X153660000Y-105219000D02*
X153660000Y-104719000D01*
X139092000Y-122123000D02*
X139592000Y-122123000D01*
X139592000Y-121173000D02*
X139092000Y-121173000D01*
X131308000Y-112712000D02*
X131308000Y-112212000D01*
X130358000Y-112212000D02*
X130358000Y-112712000D01*
X128834000Y-120932000D02*
X128834000Y-121432000D01*
X129784000Y-121432000D02*
X129784000Y-120932000D01*
X127188000Y-117617000D02*
X126688000Y-117617000D01*
X126688000Y-118567000D02*
X127188000Y-118567000D01*
X124106000Y-116027000D02*
X124606000Y-116027000D01*
X124606000Y-115077000D02*
X124106000Y-115077000D01*
X128453000Y-116403000D02*
X128453000Y-116903000D01*
X129403000Y-116903000D02*
X129403000Y-116403000D01*
X124148000Y-117297000D02*
X124648000Y-117297000D01*
X124648000Y-116347000D02*
X124148000Y-116347000D01*
X124148000Y-119837000D02*
X124648000Y-119837000D01*
X124648000Y-118887000D02*
X124148000Y-118887000D01*
X124148000Y-118567000D02*
X124648000Y-118567000D01*
X124648000Y-117617000D02*
X124148000Y-117617000D01*
X127104000Y-118887000D02*
X126604000Y-118887000D01*
X126604000Y-119837000D02*
X127104000Y-119837000D01*
X127188000Y-115077000D02*
X126688000Y-115077000D01*
X126688000Y-116027000D02*
X127188000Y-116027000D01*
X139867000Y-130280000D02*
X139867000Y-129780000D01*
X138817000Y-129780000D02*
X138817000Y-130280000D01*
X137327000Y-130338000D02*
X137327000Y-129838000D01*
X136277000Y-129838000D02*
X136277000Y-130338000D01*
X133737000Y-90860000D02*
X133737000Y-91360000D01*
X134787000Y-91360000D02*
X134787000Y-90860000D01*
X136277000Y-90860000D02*
X136277000Y-91360000D01*
X137327000Y-91360000D02*
X137327000Y-90860000D01*
X144947000Y-91360000D02*
X144947000Y-90860000D01*
X143897000Y-90860000D02*
X143897000Y-91360000D01*
X147487000Y-91360000D02*
X147487000Y-90860000D01*
X146437000Y-90860000D02*
X146437000Y-91360000D01*
X150027000Y-128317000D02*
X150027000Y-127817000D01*
X148977000Y-127817000D02*
X148977000Y-128317000D01*
X151678000Y-128306000D02*
X151678000Y-127806000D01*
X150628000Y-127806000D02*
X150628000Y-128306000D01*
X152757500Y-128306000D02*
X152757500Y-127806000D01*
X151707500Y-127806000D02*
X151707500Y-128306000D01*
X152107000Y-96993000D02*
X151607000Y-96993000D01*
X151607000Y-98043000D02*
X152107000Y-98043000D01*
X154599000Y-128248000D02*
X154599000Y-127748000D01*
X153549000Y-127748000D02*
X153549000Y-128248000D01*
X154636000Y-125314000D02*
X154136000Y-125314000D01*
X154136000Y-126364000D02*
X154636000Y-126364000D01*
X152107000Y-95469000D02*
X151607000Y-95469000D01*
X151607000Y-96519000D02*
X152107000Y-96519000D01*
X152096000Y-93945000D02*
X151596000Y-93945000D01*
X151596000Y-94995000D02*
X152096000Y-94995000D01*
X152096000Y-92421000D02*
X151596000Y-92421000D01*
X151596000Y-93471000D02*
X152096000Y-93471000D01*
X99182000Y-125912000D02*
X99182000Y-126412000D01*
X100232000Y-126412000D02*
X100232000Y-125912000D01*
X156647000Y-109926000D02*
X156647000Y-110426000D01*
X157597000Y-110426000D02*
X157597000Y-109926000D01*
X142894000Y-104536000D02*
X142394000Y-104536000D01*
X142394000Y-105486000D02*
X142894000Y-105486000D01*
X142936000Y-105679000D02*
X142436000Y-105679000D01*
X142436000Y-106629000D02*
X142936000Y-106629000D01*
X102241000Y-124769000D02*
X102241000Y-125269000D01*
X103291000Y-125269000D02*
X103291000Y-124769000D01*
X98338000Y-126412000D02*
X98338000Y-125912000D01*
X97288000Y-125912000D02*
X97288000Y-126412000D01*
X100717000Y-121594000D02*
X100717000Y-122094000D01*
X101767000Y-122094000D02*
X101767000Y-121594000D01*
X100067160Y-122029000D02*
X100018900Y-122029000D01*
X97268180Y-122730040D02*
X97268180Y-122029000D01*
X97268180Y-122029000D02*
X97517100Y-122029000D01*
X100067160Y-122029000D02*
X100267820Y-122029000D01*
X100267820Y-122029000D02*
X100267820Y-122730040D01*
X104417000Y-123643160D02*
X104417000Y-123594900D01*
X103715960Y-120844180D02*
X104417000Y-120844180D01*
X104417000Y-120844180D02*
X104417000Y-121093100D01*
X104417000Y-123643160D02*
X104417000Y-123843820D01*
X104417000Y-123843820D02*
X103715960Y-123843820D01*
X114831000Y-127018840D02*
X114831000Y-127067100D01*
X115532040Y-129817820D02*
X114831000Y-129817820D01*
X114831000Y-129817820D02*
X114831000Y-129568900D01*
X114831000Y-127018840D02*
X114831000Y-126818180D01*
X114831000Y-126818180D02*
X115532040Y-126818180D01*
X134197000Y-120522000D02*
X134697000Y-120522000D01*
X134697000Y-119472000D02*
X134197000Y-119472000D01*
X132213000Y-122414000D02*
X132213000Y-122914000D01*
X133263000Y-122914000D02*
X133263000Y-122414000D01*
X120100000Y-127761000D02*
X120600000Y-127761000D01*
X120600000Y-126711000D02*
X120100000Y-126711000D01*
X118785000Y-127936000D02*
X118785000Y-127436000D01*
X117735000Y-127436000D02*
X117735000Y-127936000D01*
X156806000Y-118964000D02*
X156306000Y-118964000D01*
X156306000Y-120014000D02*
X156806000Y-120014000D01*
X88387000Y-111488000D02*
G75*
G03X88387000Y-111488000I-100000J0D01*
G01*
X89287000Y-111488000D02*
G75*
G03X89287000Y-111488000I-1000000J0D01*
G01*
X89287000Y-112788000D02*
X87287000Y-112788000D01*
X89587000Y-110488000D02*
X89587000Y-112488000D01*
X87287000Y-110188000D02*
X89287000Y-110188000D01*
X86987000Y-112488000D02*
X86987000Y-110488000D01*
X89287000Y-112788000D02*
G75*
G03X89587000Y-112488000I0J300000D01*
G01*
X89587000Y-110488000D02*
G75*
G03X89287000Y-110188000I-300000J0D01*
G01*
X87287000Y-110188000D02*
G75*
G03X86987000Y-110488000I0J-300000D01*
G01*
X86987000Y-112488000D02*
G75*
G03X87287000Y-112788000I300000J0D01*
G01*
X130579000Y-125124500D02*
X130579000Y-124743500D01*
X130579000Y-126140500D02*
X130579000Y-125759500D01*
X130579000Y-125759500D02*
X130198000Y-125124500D01*
X130198000Y-125124500D02*
X130960000Y-125124500D01*
X130960000Y-125124500D02*
X130579000Y-125759500D01*
X130071000Y-125759500D02*
X131087000Y-125759500D01*
X131479000Y-127442000D02*
X131479000Y-123902000D01*
X129679000Y-127442000D02*
X129679000Y-123902000D01*
X161882000Y-94608000D02*
X159582000Y-94608000D01*
X159582000Y-94608000D02*
X159582000Y-106008000D01*
X159582000Y-106008000D02*
X161482000Y-106008000D01*
X163582000Y-94608000D02*
X163382000Y-94608000D01*
X165082000Y-95308000D02*
X165082000Y-94708000D01*
X165082000Y-94708000D02*
X165082000Y-94608000D01*
X165082000Y-94608000D02*
X164182000Y-94608000D01*
X165082000Y-105008000D02*
X165082000Y-96308000D01*
X110877000Y-130288000D02*
X110877000Y-130788000D01*
X111927000Y-130788000D02*
X111927000Y-130288000D01*
X125643000Y-113712000D02*
X125643000Y-113212000D01*
X124593000Y-113212000D02*
X124593000Y-113712000D01*
D14*
X144043540Y-101843620D02*
X141244460Y-101843620D01*
X141244460Y-102844380D02*
X144043540Y-102844380D01*
X144041000Y-100543140D02*
X144041000Y-104144860D01*
X144043540Y-104144860D02*
X141244460Y-104144860D01*
X141244460Y-104144860D02*
X141244460Y-100543140D01*
X141244460Y-100543140D02*
X144043540Y-100543140D01*
D13*
X134849500Y-126093000D02*
X135230500Y-126093000D01*
X133833500Y-126093000D02*
X134214500Y-126093000D01*
X134214500Y-126093000D02*
X134849500Y-125712000D01*
X134849500Y-125712000D02*
X134849500Y-126474000D01*
X134849500Y-126474000D02*
X134214500Y-126093000D01*
X134214500Y-125585000D02*
X134214500Y-126601000D01*
X132532000Y-126993000D02*
X136072000Y-126993000D01*
X132532000Y-125193000D02*
X136072000Y-125193000D01*
D12*
X134053720Y-129514380D02*
X134053720Y-128513620D01*
X133454280Y-128513620D02*
X133454280Y-129514380D01*
X133754000Y-129113060D02*
X133754000Y-128914940D01*
X133654940Y-128813340D02*
X133654940Y-129214660D01*
X133654940Y-129214660D02*
X133853060Y-129014000D01*
X133853060Y-129014000D02*
X133654940Y-128813340D01*
X132953900Y-128513620D02*
X134554100Y-128513620D01*
X134554100Y-128513620D02*
X134554100Y-129514380D01*
X134554100Y-129514380D02*
X132953900Y-129514380D01*
X132953900Y-129514380D02*
X132953900Y-128513620D01*
D15*
X147840840Y-135211600D02*
X156243160Y-135211600D01*
X147840840Y-135313200D02*
X156243160Y-135313200D01*
X156243160Y-135313200D02*
X156243160Y-135112540D01*
X156243160Y-135112540D02*
X147840840Y-135112540D01*
X147840840Y-135112540D02*
X147840840Y-135313200D01*
X148143100Y-135313200D02*
X148143100Y-130311940D01*
X148143100Y-130311940D02*
X155940900Y-130311940D01*
X155940900Y-130311940D02*
X155940900Y-135313200D01*
D13*
X119305981Y-101683600D02*
G75*
G03X119305981Y-101683600I-283981J0D01*
G01*
X120292000Y-117838000D02*
X119860200Y-117838000D01*
X120292000Y-100058000D02*
X119860200Y-100058000D01*
X93622000Y-100058000D02*
X94053800Y-100058000D01*
X93622000Y-103868000D02*
X93622000Y-104299800D01*
X93622000Y-117838000D02*
X94180800Y-117838000D01*
X93622000Y-114028000D02*
X93622000Y-113596200D01*
X93622000Y-103868000D02*
X93622000Y-100058000D01*
X93622000Y-117838000D02*
X93622000Y-114028000D01*
X120292000Y-117838000D02*
X120292000Y-100058000D01*
D16*
X154202000Y-121884000D02*
X153302000Y-121884000D01*
X154202000Y-121384000D02*
X153302000Y-121384000D01*
X154202000Y-120884000D02*
X153302000Y-120884000D01*
X154202000Y-120384000D02*
X153302000Y-120384000D01*
X154202000Y-119884000D02*
X153302000Y-119884000D01*
X154202000Y-119384000D02*
X153302000Y-119384000D01*
X154202000Y-118884000D02*
X153302000Y-118884000D01*
X154202000Y-118384000D02*
X153302000Y-118384000D01*
X154202000Y-117884000D02*
X153302000Y-117884000D01*
X154202000Y-117384000D02*
X153302000Y-117384000D01*
X154202000Y-116884000D02*
X153302000Y-116884000D01*
X154202000Y-116384000D02*
X153302000Y-116384000D01*
X154202000Y-115884000D02*
X153302000Y-115884000D01*
X154202000Y-115384000D02*
X153302000Y-115384000D01*
X154202000Y-114884000D02*
X153302000Y-114884000D01*
X154202000Y-114384000D02*
X153302000Y-114384000D01*
X144502000Y-124084000D02*
X144502000Y-123184000D01*
X145002000Y-124084000D02*
X145002000Y-123184000D01*
X145502000Y-124084000D02*
X145502000Y-123184000D01*
X146002000Y-124084000D02*
X146002000Y-123184000D01*
X146502000Y-124084000D02*
X146502000Y-123184000D01*
X147002000Y-124084000D02*
X147002000Y-123184000D01*
X147502000Y-124084000D02*
X147502000Y-123184000D01*
X148002000Y-124084000D02*
X148002000Y-123184000D01*
X148502000Y-124084000D02*
X148502000Y-123184000D01*
X149002000Y-124084000D02*
X149002000Y-123184000D01*
X149502000Y-124084000D02*
X149502000Y-123184000D01*
X150002000Y-124084000D02*
X150002000Y-123184000D01*
X150502000Y-124084000D02*
X150502000Y-123184000D01*
X151002000Y-124084000D02*
X151002000Y-123184000D01*
X151502000Y-124084000D02*
X151502000Y-123184000D01*
X152002000Y-124084000D02*
X152002000Y-123184000D01*
X143202000Y-114384000D02*
X142302000Y-114384000D01*
X143202000Y-114884000D02*
X142302000Y-114884000D01*
X143202000Y-115384000D02*
X142302000Y-115384000D01*
X143202000Y-115884000D02*
X142302000Y-115884000D01*
X143202000Y-116384000D02*
X142302000Y-116384000D01*
X143202000Y-116884000D02*
X142302000Y-116884000D01*
X143202000Y-117384000D02*
X142302000Y-117384000D01*
X143202000Y-117884000D02*
X142302000Y-117884000D01*
X143202000Y-118384000D02*
X142302000Y-118384000D01*
X143202000Y-118884000D02*
X142302000Y-118884000D01*
X143202000Y-119384000D02*
X142302000Y-119384000D01*
X143202000Y-119884000D02*
X142302000Y-119884000D01*
X143202000Y-120384000D02*
X142302000Y-120384000D01*
X143202000Y-120884000D02*
X142302000Y-120884000D01*
X143202000Y-121384000D02*
X142302000Y-121384000D01*
X143202000Y-121884000D02*
X142302000Y-121884000D01*
X144502000Y-113084000D02*
X144502000Y-112184000D01*
X145002000Y-113084000D02*
X145002000Y-112184000D01*
X145502000Y-113084000D02*
X145502000Y-112184000D01*
X146002000Y-113084000D02*
X146002000Y-112184000D01*
X146502000Y-113084000D02*
X146502000Y-112184000D01*
X147002000Y-113084000D02*
X147002000Y-112184000D01*
X147502000Y-113084000D02*
X147502000Y-112184000D01*
X148002000Y-113084000D02*
X148002000Y-112184000D01*
X148502000Y-113084000D02*
X148502000Y-112184000D01*
X149002000Y-113084000D02*
X149002000Y-112184000D01*
X149502000Y-113084000D02*
X149502000Y-112184000D01*
X150002000Y-113084000D02*
X150002000Y-112184000D01*
X150502000Y-113084000D02*
X150502000Y-112184000D01*
X151002000Y-113084000D02*
X151002000Y-112184000D01*
X151502000Y-113084000D02*
X151502000Y-112184000D01*
X152002000Y-113084000D02*
X152002000Y-112184000D01*
D12*
X143752000Y-113134000D02*
X152752000Y-113134000D01*
X143752000Y-113134000D02*
X143252000Y-113634000D01*
X143252000Y-113634000D02*
X143252000Y-122634000D01*
X143752000Y-123134000D02*
X152752000Y-123134000D01*
X143252000Y-122634000D02*
X143752000Y-123134000D01*
X153252000Y-113634000D02*
X153252000Y-122634000D01*
X153252000Y-122634000D02*
X152752000Y-123134000D01*
X152752000Y-113134000D02*
X153252000Y-113634000D01*
X152852000Y-113834000D02*
G75*
G03X152852000Y-113834000I-300000J0D01*
G01*
X124588000Y-125728000D02*
X124588000Y-125328000D01*
X124588000Y-125328000D02*
X124988000Y-125328000D01*
X124988000Y-125328000D02*
X124888000Y-125428000D01*
X124688000Y-125628000D02*
X124688000Y-125428000D01*
X124688000Y-125428000D02*
X124888000Y-125428000D01*
X124588000Y-125728000D02*
X124688000Y-125628000D01*
X127889140Y-125727240D02*
X127889140Y-127728760D01*
X124886860Y-125727240D02*
X124886860Y-127728760D01*
X127889140Y-127728760D02*
X124886860Y-127728760D01*
X124886860Y-125727240D02*
X127889140Y-125727240D01*
X134411860Y-121749600D02*
X135059560Y-121101900D01*
X134411860Y-121597200D02*
X134907160Y-121101900D01*
X135808860Y-123553000D02*
X136469260Y-123553000D01*
X135808860Y-121648000D02*
X136469260Y-121648000D01*
X134411860Y-122600500D02*
X133751460Y-122600500D01*
X134411860Y-123553000D02*
X133751460Y-123553000D01*
X134411860Y-121648000D02*
X133751460Y-121648000D01*
X135808860Y-121101900D02*
X135808860Y-124099100D01*
X135808860Y-124099100D02*
X134411860Y-124099100D01*
X134411860Y-124099100D02*
X134411860Y-121101900D01*
X134411860Y-121101900D02*
X135808860Y-121101900D01*
D17*
X162232480Y-110786960D02*
X163532960Y-110088460D01*
X162232480Y-112189040D02*
X163532960Y-112887540D01*
X159631520Y-112189040D02*
X158331040Y-112887540D01*
X158331040Y-110088460D02*
X159631520Y-110786960D01*
X158331040Y-110088460D02*
X163532960Y-110088460D01*
X163532960Y-110088460D02*
X163532960Y-112887540D01*
X163532960Y-112887540D02*
X158331040Y-112887540D01*
X158331040Y-112887540D02*
X158331040Y-110088460D01*
X159631520Y-110786960D02*
X162232480Y-110786960D01*
X162232480Y-110786960D02*
X162232480Y-112189040D01*
X162232480Y-112189040D02*
X159631520Y-112189040D01*
X159631520Y-112189040D02*
X159631520Y-110786960D01*
X157932260Y-109687140D02*
X163931740Y-109687140D01*
X163931740Y-109687140D02*
X163931740Y-113288860D01*
X163931740Y-113288860D02*
X157932260Y-113288860D01*
X157932260Y-113288860D02*
X157932260Y-109687140D01*
X162232480Y-123486960D02*
X163532960Y-122788460D01*
X162232480Y-124889040D02*
X163532960Y-125587540D01*
X159631520Y-124889040D02*
X158331040Y-125587540D01*
X158331040Y-122788460D02*
X159631520Y-123486960D01*
X158331040Y-122788460D02*
X163532960Y-122788460D01*
X163532960Y-122788460D02*
X163532960Y-125587540D01*
X163532960Y-125587540D02*
X158331040Y-125587540D01*
X158331040Y-125587540D02*
X158331040Y-122788460D01*
X159631520Y-123486960D02*
X162232480Y-123486960D01*
X162232480Y-123486960D02*
X162232480Y-124889040D01*
X162232480Y-124889040D02*
X159631520Y-124889040D01*
X159631520Y-124889040D02*
X159631520Y-123486960D01*
X157932260Y-122387140D02*
X163931740Y-122387140D01*
X163931740Y-122387140D02*
X163931740Y-125988860D01*
X163931740Y-125988860D02*
X157932260Y-125988860D01*
X157932260Y-125988860D02*
X157932260Y-122387140D01*
X162232480Y-117136960D02*
X163532960Y-116438460D01*
X162232480Y-118539040D02*
X163532960Y-119237540D01*
X159631520Y-118539040D02*
X158331040Y-119237540D01*
X158331040Y-116438460D02*
X159631520Y-117136960D01*
X158331040Y-116438460D02*
X163532960Y-116438460D01*
X163532960Y-116438460D02*
X163532960Y-119237540D01*
X163532960Y-119237540D02*
X158331040Y-119237540D01*
X158331040Y-119237540D02*
X158331040Y-116438460D01*
X159631520Y-117136960D02*
X162232480Y-117136960D01*
X162232480Y-117136960D02*
X162232480Y-118539040D01*
X162232480Y-118539040D02*
X159631520Y-118539040D01*
X159631520Y-118539040D02*
X159631520Y-117136960D01*
X157932260Y-116037140D02*
X163931740Y-116037140D01*
X163931740Y-116037140D02*
X163931740Y-119638860D01*
X163931740Y-119638860D02*
X157932260Y-119638860D01*
X157932260Y-119638860D02*
X157932260Y-116037140D01*
D18*
X104885086Y-107521971D02*
X104943143Y-107541324D01*
X104962495Y-107560676D01*
X104981847Y-107599381D01*
X104981847Y-107657438D01*
X104962495Y-107696143D01*
X104943143Y-107715495D01*
X104904438Y-107734848D01*
X104749619Y-107734848D01*
X104749619Y-107328448D01*
X104885086Y-107328448D01*
X104923790Y-107347800D01*
X104943143Y-107367152D01*
X104962495Y-107405857D01*
X104962495Y-107444562D01*
X104943143Y-107483267D01*
X104923790Y-107502619D01*
X104885086Y-107521971D01*
X104749619Y-107521971D01*
X105097962Y-107328448D02*
X105330190Y-107328448D01*
X105214076Y-107734848D02*
X105214076Y-107328448D01*
X105678533Y-107734848D02*
X105446305Y-107734848D01*
X105562419Y-107734848D02*
X105562419Y-107328448D01*
X105523714Y-107386505D01*
X105485009Y-107425210D01*
X105446305Y-107444562D01*
X104565772Y-106251971D02*
X104623829Y-106271324D01*
X104643181Y-106290676D01*
X104662533Y-106329381D01*
X104662533Y-106387438D01*
X104643181Y-106426143D01*
X104623829Y-106445495D01*
X104585124Y-106464848D01*
X104430305Y-106464848D01*
X104430305Y-106058448D01*
X104565772Y-106058448D01*
X104604476Y-106077800D01*
X104623829Y-106097152D01*
X104643181Y-106135857D01*
X104643181Y-106174562D01*
X104623829Y-106213267D01*
X104604476Y-106232619D01*
X104565772Y-106251971D01*
X104430305Y-106251971D01*
X105010876Y-106464848D02*
X105010876Y-106251971D01*
X104991524Y-106213267D01*
X104952819Y-106193914D01*
X104875410Y-106193914D01*
X104836705Y-106213267D01*
X105010876Y-106445495D02*
X104972172Y-106464848D01*
X104875410Y-106464848D01*
X104836705Y-106445495D01*
X104817353Y-106406790D01*
X104817353Y-106368086D01*
X104836705Y-106329381D01*
X104875410Y-106310029D01*
X104972172Y-106310029D01*
X105010876Y-106290676D01*
X105146343Y-106193914D02*
X105301162Y-106193914D01*
X105204400Y-106058448D02*
X105204400Y-106406790D01*
X105223752Y-106445495D01*
X105262457Y-106464848D01*
X105301162Y-106464848D01*
X105378572Y-106193914D02*
X105533391Y-106193914D01*
X105436629Y-106058448D02*
X105436629Y-106406790D01*
X105455981Y-106445495D01*
X105494686Y-106464848D01*
X105533391Y-106464848D01*
X105823677Y-106445495D02*
X105784972Y-106464848D01*
X105707563Y-106464848D01*
X105668858Y-106445495D01*
X105649506Y-106406790D01*
X105649506Y-106251971D01*
X105668858Y-106213267D01*
X105707563Y-106193914D01*
X105784972Y-106193914D01*
X105823677Y-106213267D01*
X105843029Y-106251971D01*
X105843029Y-106290676D01*
X105649506Y-106329381D01*
X106017201Y-106464848D02*
X106017201Y-106193914D01*
X106017201Y-106271324D02*
X106036553Y-106232619D01*
X106055906Y-106213267D01*
X106094610Y-106193914D01*
X106133315Y-106193914D01*
X106230077Y-106193914D02*
X106326839Y-106464848D01*
X106423601Y-106193914D02*
X106326839Y-106464848D01*
X106288134Y-106561610D01*
X106268782Y-106580962D01*
X106230077Y-106600314D01*
D19*
X156171557Y-97789175D02*
X156171557Y-97189735D01*
X156314281Y-97189735D01*
X156399915Y-97218280D01*
X156457004Y-97275370D01*
X156485549Y-97332459D01*
X156514094Y-97446638D01*
X156514094Y-97532272D01*
X156485549Y-97646451D01*
X156457004Y-97703541D01*
X156399915Y-97760630D01*
X156314281Y-97789175D01*
X156171557Y-97789175D01*
X156713907Y-97189735D02*
X157084989Y-97189735D01*
X156885176Y-97418093D01*
X156970810Y-97418093D01*
X157027900Y-97446638D01*
X157056444Y-97475183D01*
X157084989Y-97532272D01*
X157084989Y-97674996D01*
X157056444Y-97732086D01*
X157027900Y-97760630D01*
X156970810Y-97789175D01*
X156799542Y-97789175D01*
X156742452Y-97760630D01*
X156713907Y-97732086D01*
X153356148Y-98988055D02*
X153070701Y-98988055D01*
X153070701Y-98388615D01*
X153555962Y-98674063D02*
X153755775Y-98674063D01*
X153841409Y-98988055D02*
X153555962Y-98988055D01*
X153555962Y-98388615D01*
X153841409Y-98388615D01*
X154098312Y-98988055D02*
X154098312Y-98388615D01*
X154241036Y-98388615D01*
X154326670Y-98417160D01*
X154383759Y-98474250D01*
X154412304Y-98531339D01*
X154440849Y-98645518D01*
X154440849Y-98731152D01*
X154412304Y-98845331D01*
X154383759Y-98902421D01*
X154326670Y-98959510D01*
X154241036Y-98988055D01*
X154098312Y-98988055D01*
X154555028Y-99045145D02*
X155011744Y-99045145D01*
X155497005Y-98988055D02*
X155297192Y-98702608D01*
X155154468Y-98988055D02*
X155154468Y-98388615D01*
X155382826Y-98388615D01*
X155439915Y-98417160D01*
X155468460Y-98445705D01*
X155497005Y-98502794D01*
X155497005Y-98588429D01*
X155468460Y-98645518D01*
X155439915Y-98674063D01*
X155382826Y-98702608D01*
X155154468Y-98702608D01*
X155753908Y-98988055D02*
X155753908Y-98388615D01*
X155896632Y-98388615D01*
X155982266Y-98417160D01*
X156039355Y-98474250D01*
X156067900Y-98531339D01*
X156096445Y-98645518D01*
X156096445Y-98731152D01*
X156067900Y-98845331D01*
X156039355Y-98902421D01*
X155982266Y-98959510D01*
X155896632Y-98988055D01*
X155753908Y-98988055D01*
X156171557Y-96265175D02*
X156171557Y-95665735D01*
X156314281Y-95665735D01*
X156399915Y-95694280D01*
X156457004Y-95751370D01*
X156485549Y-95808459D01*
X156514094Y-95922638D01*
X156514094Y-96008272D01*
X156485549Y-96122451D01*
X156457004Y-96179541D01*
X156399915Y-96236630D01*
X156314281Y-96265175D01*
X156171557Y-96265175D01*
X157027900Y-95865549D02*
X157027900Y-96265175D01*
X156885176Y-95637190D02*
X156742452Y-96065362D01*
X157113534Y-96065362D01*
X153341875Y-97464055D02*
X153056428Y-97464055D01*
X153056428Y-96864615D01*
X153541689Y-97150063D02*
X153741502Y-97150063D01*
X153827136Y-97464055D02*
X153541689Y-97464055D01*
X153541689Y-96864615D01*
X153827136Y-96864615D01*
X154084039Y-97464055D02*
X154084039Y-96864615D01*
X154226763Y-96864615D01*
X154312397Y-96893160D01*
X154369486Y-96950250D01*
X154398031Y-97007339D01*
X154426576Y-97121518D01*
X154426576Y-97207152D01*
X154398031Y-97321331D01*
X154369486Y-97378421D01*
X154312397Y-97435510D01*
X154226763Y-97464055D01*
X154084039Y-97464055D01*
X154540755Y-97521145D02*
X154997471Y-97521145D01*
X155454187Y-96893160D02*
X155397098Y-96864615D01*
X155311463Y-96864615D01*
X155225829Y-96893160D01*
X155168740Y-96950250D01*
X155140195Y-97007339D01*
X155111650Y-97121518D01*
X155111650Y-97207152D01*
X155140195Y-97321331D01*
X155168740Y-97378421D01*
X155225829Y-97435510D01*
X155311463Y-97464055D01*
X155368553Y-97464055D01*
X155454187Y-97435510D01*
X155482732Y-97406966D01*
X155482732Y-97207152D01*
X155368553Y-97207152D01*
X155739635Y-97464055D02*
X155739635Y-96864615D01*
X156082172Y-97464055D01*
X156082172Y-96864615D01*
X156171557Y-94741175D02*
X156171557Y-94141735D01*
X156314281Y-94141735D01*
X156399915Y-94170280D01*
X156457004Y-94227370D01*
X156485549Y-94284459D01*
X156514094Y-94398638D01*
X156514094Y-94484272D01*
X156485549Y-94598451D01*
X156457004Y-94655541D01*
X156399915Y-94712630D01*
X156314281Y-94741175D01*
X156171557Y-94741175D01*
X157056444Y-94141735D02*
X156770997Y-94141735D01*
X156742452Y-94427183D01*
X156770997Y-94398638D01*
X156828086Y-94370093D01*
X156970810Y-94370093D01*
X157027900Y-94398638D01*
X157056444Y-94427183D01*
X157084989Y-94484272D01*
X157084989Y-94626996D01*
X157056444Y-94684086D01*
X157027900Y-94712630D01*
X156970810Y-94741175D01*
X156828086Y-94741175D01*
X156770997Y-94712630D01*
X156742452Y-94684086D01*
X153341875Y-95940055D02*
X153056428Y-95940055D01*
X153056428Y-95340615D01*
X153541689Y-95626063D02*
X153741502Y-95626063D01*
X153827136Y-95940055D02*
X153541689Y-95940055D01*
X153541689Y-95340615D01*
X153827136Y-95340615D01*
X154084039Y-95940055D02*
X154084039Y-95340615D01*
X154226763Y-95340615D01*
X154312397Y-95369160D01*
X154369486Y-95426250D01*
X154398031Y-95483339D01*
X154426576Y-95597518D01*
X154426576Y-95683152D01*
X154398031Y-95797331D01*
X154369486Y-95854421D01*
X154312397Y-95911510D01*
X154226763Y-95940055D01*
X154084039Y-95940055D01*
X154540755Y-95997145D02*
X154997471Y-95997145D01*
X155254374Y-95340615D02*
X155368553Y-95340615D01*
X155425642Y-95369160D01*
X155482732Y-95426250D01*
X155511277Y-95540429D01*
X155511277Y-95740242D01*
X155482732Y-95854421D01*
X155425642Y-95911510D01*
X155368553Y-95940055D01*
X155254374Y-95940055D01*
X155197284Y-95911510D01*
X155140195Y-95854421D01*
X155111650Y-95740242D01*
X155111650Y-95540429D01*
X155140195Y-95426250D01*
X155197284Y-95369160D01*
X155254374Y-95340615D01*
X156110717Y-95940055D02*
X155910904Y-95654608D01*
X155768180Y-95940055D02*
X155768180Y-95340615D01*
X155996538Y-95340615D01*
X156053627Y-95369160D01*
X156082172Y-95397705D01*
X156110717Y-95454794D01*
X156110717Y-95540429D01*
X156082172Y-95597518D01*
X156053627Y-95626063D01*
X155996538Y-95654608D01*
X155768180Y-95654608D01*
X156171557Y-93217175D02*
X156171557Y-92617735D01*
X156314281Y-92617735D01*
X156399915Y-92646280D01*
X156457004Y-92703370D01*
X156485549Y-92760459D01*
X156514094Y-92874638D01*
X156514094Y-92960272D01*
X156485549Y-93074451D01*
X156457004Y-93131541D01*
X156399915Y-93188630D01*
X156314281Y-93217175D01*
X156171557Y-93217175D01*
X157027900Y-92617735D02*
X156913721Y-92617735D01*
X156856631Y-92646280D01*
X156828086Y-92674825D01*
X156770997Y-92760459D01*
X156742452Y-92874638D01*
X156742452Y-93102996D01*
X156770997Y-93160086D01*
X156799542Y-93188630D01*
X156856631Y-93217175D01*
X156970810Y-93217175D01*
X157027900Y-93188630D01*
X157056444Y-93160086D01*
X157084989Y-93102996D01*
X157084989Y-92960272D01*
X157056444Y-92903183D01*
X157027900Y-92874638D01*
X156970810Y-92846093D01*
X156856631Y-92846093D01*
X156799542Y-92874638D01*
X156770997Y-92903183D01*
X156742452Y-92960272D01*
X153413237Y-94416055D02*
X153127790Y-94416055D01*
X153127790Y-93816615D01*
X153613051Y-94102063D02*
X153812864Y-94102063D01*
X153898498Y-94416055D02*
X153613051Y-94416055D01*
X153613051Y-93816615D01*
X153898498Y-93816615D01*
X154155401Y-94416055D02*
X154155401Y-93816615D01*
X154298125Y-93816615D01*
X154383759Y-93845160D01*
X154440848Y-93902250D01*
X154469393Y-93959339D01*
X154497938Y-94073518D01*
X154497938Y-94159152D01*
X154469393Y-94273331D01*
X154440848Y-94330421D01*
X154383759Y-94387510D01*
X154298125Y-94416055D01*
X154155401Y-94416055D01*
X154612117Y-94473145D02*
X155068833Y-94473145D01*
X155411370Y-94102063D02*
X155497004Y-94130608D01*
X155525549Y-94159152D01*
X155554094Y-94216242D01*
X155554094Y-94301876D01*
X155525549Y-94358966D01*
X155497004Y-94387510D01*
X155439915Y-94416055D01*
X155211557Y-94416055D01*
X155211557Y-93816615D01*
X155411370Y-93816615D01*
X155468460Y-93845160D01*
X155497004Y-93873705D01*
X155525549Y-93930794D01*
X155525549Y-93987884D01*
X155497004Y-94044973D01*
X155468460Y-94073518D01*
X155411370Y-94102063D01*
X155211557Y-94102063D01*
X156096444Y-94416055D02*
X155810997Y-94416055D01*
X155810997Y-93816615D01*
D13*
X87740381Y-103566333D02*
X88454667Y-103566333D01*
X88597524Y-103613953D01*
X88692762Y-103709191D01*
X88740381Y-103852048D01*
X88740381Y-103947286D01*
X87835619Y-103137762D02*
X87788000Y-103090143D01*
X87740381Y-102994905D01*
X87740381Y-102756809D01*
X87788000Y-102661571D01*
X87835619Y-102613952D01*
X87930857Y-102566333D01*
X88026095Y-102566333D01*
X88168952Y-102613952D01*
X88740381Y-103185381D01*
X88740381Y-102566333D01*
X143945809Y-108035190D02*
X143945809Y-108511381D01*
X143612476Y-107511381D02*
X143945809Y-108035190D01*
X144279143Y-107511381D01*
X145136286Y-108511381D02*
X144564857Y-108511381D01*
X144850571Y-108511381D02*
X144850571Y-107511381D01*
X144755333Y-107654238D01*
X144660095Y-107749476D01*
X144564857Y-107797095D01*
X152510334Y-110829143D02*
X152462715Y-110876762D01*
X152319858Y-110924381D01*
X152224620Y-110924381D01*
X152081762Y-110876762D01*
X151986524Y-110781524D01*
X151938905Y-110686286D01*
X151891286Y-110495810D01*
X151891286Y-110352952D01*
X151938905Y-110162476D01*
X151986524Y-110067238D01*
X152081762Y-109972000D01*
X152224620Y-109924381D01*
X152319858Y-109924381D01*
X152462715Y-109972000D01*
X152510334Y-110019619D01*
X153462715Y-110924381D02*
X152891286Y-110924381D01*
X153177000Y-110924381D02*
X153177000Y-109924381D01*
X153081762Y-110067238D01*
X152986524Y-110162476D01*
X152891286Y-110210095D01*
X144890334Y-104225143D02*
X144842715Y-104272762D01*
X144699858Y-104320381D01*
X144604620Y-104320381D01*
X144461762Y-104272762D01*
X144366524Y-104177524D01*
X144318905Y-104082286D01*
X144271286Y-103891810D01*
X144271286Y-103748952D01*
X144318905Y-103558476D01*
X144366524Y-103463238D01*
X144461762Y-103368000D01*
X144604620Y-103320381D01*
X144699858Y-103320381D01*
X144842715Y-103368000D01*
X144890334Y-103415619D01*
X145271286Y-103415619D02*
X145318905Y-103368000D01*
X145414143Y-103320381D01*
X145652239Y-103320381D01*
X145747477Y-103368000D01*
X145795096Y-103415619D01*
X145842715Y-103510857D01*
X145842715Y-103606095D01*
X145795096Y-103748952D01*
X145223667Y-104320381D01*
X145842715Y-104320381D01*
X148700334Y-109305143D02*
X148652715Y-109352762D01*
X148509858Y-109400381D01*
X148414620Y-109400381D01*
X148271762Y-109352762D01*
X148176524Y-109257524D01*
X148128905Y-109162286D01*
X148081286Y-108971810D01*
X148081286Y-108828952D01*
X148128905Y-108638476D01*
X148176524Y-108543238D01*
X148271762Y-108448000D01*
X148414620Y-108400381D01*
X148509858Y-108400381D01*
X148652715Y-108448000D01*
X148700334Y-108495619D01*
X149033667Y-108400381D02*
X149652715Y-108400381D01*
X149319381Y-108781333D01*
X149462239Y-108781333D01*
X149557477Y-108828952D01*
X149605096Y-108876571D01*
X149652715Y-108971810D01*
X149652715Y-109209905D01*
X149605096Y-109305143D01*
X149557477Y-109352762D01*
X149462239Y-109400381D01*
X149176524Y-109400381D01*
X149081286Y-109352762D01*
X149033667Y-109305143D01*
X150748143Y-103145666D02*
X150795762Y-103193285D01*
X150843381Y-103336142D01*
X150843381Y-103431380D01*
X150795762Y-103574238D01*
X150700524Y-103669476D01*
X150605286Y-103717095D01*
X150414810Y-103764714D01*
X150271952Y-103764714D01*
X150081476Y-103717095D01*
X149986238Y-103669476D01*
X149891000Y-103574238D01*
X149843381Y-103431380D01*
X149843381Y-103336142D01*
X149891000Y-103193285D01*
X149938619Y-103145666D01*
X149843381Y-102240904D02*
X149843381Y-102717095D01*
X150319571Y-102764714D01*
X150271952Y-102717095D01*
X150224333Y-102621857D01*
X150224333Y-102383761D01*
X150271952Y-102288523D01*
X150319571Y-102240904D01*
X150414810Y-102193285D01*
X150652905Y-102193285D01*
X150748143Y-102240904D01*
X150795762Y-102288523D01*
X150843381Y-102383761D01*
X150843381Y-102621857D01*
X150795762Y-102717095D01*
X150748143Y-102764714D01*
X153542143Y-103145666D02*
X153589762Y-103193285D01*
X153637381Y-103336142D01*
X153637381Y-103431380D01*
X153589762Y-103574238D01*
X153494524Y-103669476D01*
X153399286Y-103717095D01*
X153208810Y-103764714D01*
X153065952Y-103764714D01*
X152875476Y-103717095D01*
X152780238Y-103669476D01*
X152685000Y-103574238D01*
X152637381Y-103431380D01*
X152637381Y-103336142D01*
X152685000Y-103193285D01*
X152732619Y-103145666D01*
X152637381Y-102288523D02*
X152637381Y-102479000D01*
X152685000Y-102574238D01*
X152732619Y-102621857D01*
X152875476Y-102717095D01*
X153065952Y-102764714D01*
X153446905Y-102764714D01*
X153542143Y-102717095D01*
X153589762Y-102669476D01*
X153637381Y-102574238D01*
X153637381Y-102383761D01*
X153589762Y-102288523D01*
X153542143Y-102240904D01*
X153446905Y-102193285D01*
X153208810Y-102193285D01*
X153113571Y-102240904D01*
X153065952Y-102288523D01*
X153018333Y-102383761D01*
X153018333Y-102574238D01*
X153065952Y-102669476D01*
X153113571Y-102717095D01*
X153208810Y-102764714D01*
X139302334Y-123529143D02*
X139254715Y-123576762D01*
X139111858Y-123624381D01*
X139016620Y-123624381D01*
X138873762Y-123576762D01*
X138778524Y-123481524D01*
X138730905Y-123386286D01*
X138683286Y-123195810D01*
X138683286Y-123052952D01*
X138730905Y-122862476D01*
X138778524Y-122767238D01*
X138873762Y-122672000D01*
X139016620Y-122624381D01*
X139111858Y-122624381D01*
X139254715Y-122672000D01*
X139302334Y-122719619D01*
X139635667Y-122624381D02*
X140302334Y-122624381D01*
X139873762Y-123624381D01*
X131190143Y-110511666D02*
X131237762Y-110559285D01*
X131285381Y-110702142D01*
X131285381Y-110797380D01*
X131237762Y-110940238D01*
X131142524Y-111035476D01*
X131047286Y-111083095D01*
X130856810Y-111130714D01*
X130713952Y-111130714D01*
X130523476Y-111083095D01*
X130428238Y-111035476D01*
X130333000Y-110940238D01*
X130285381Y-110797380D01*
X130285381Y-110702142D01*
X130333000Y-110559285D01*
X130380619Y-110511666D01*
X130713952Y-109940238D02*
X130666333Y-110035476D01*
X130618714Y-110083095D01*
X130523476Y-110130714D01*
X130475857Y-110130714D01*
X130380619Y-110083095D01*
X130333000Y-110035476D01*
X130285381Y-109940238D01*
X130285381Y-109749761D01*
X130333000Y-109654523D01*
X130380619Y-109606904D01*
X130475857Y-109559285D01*
X130523476Y-109559285D01*
X130618714Y-109606904D01*
X130666333Y-109654523D01*
X130713952Y-109749761D01*
X130713952Y-109940238D01*
X130761571Y-110035476D01*
X130809190Y-110083095D01*
X130904429Y-110130714D01*
X131094905Y-110130714D01*
X131190143Y-110083095D01*
X131237762Y-110035476D01*
X131285381Y-109940238D01*
X131285381Y-109749761D01*
X131237762Y-109654523D01*
X131190143Y-109606904D01*
X131094905Y-109559285D01*
X130904429Y-109559285D01*
X130809190Y-109606904D01*
X130761571Y-109654523D01*
X130713952Y-109749761D01*
X127966143Y-121348666D02*
X128013762Y-121396285D01*
X128061381Y-121539142D01*
X128061381Y-121634380D01*
X128013762Y-121777238D01*
X127918524Y-121872476D01*
X127823286Y-121920095D01*
X127632810Y-121967714D01*
X127489952Y-121967714D01*
X127299476Y-121920095D01*
X127204238Y-121872476D01*
X127109000Y-121777238D01*
X127061381Y-121634380D01*
X127061381Y-121539142D01*
X127109000Y-121396285D01*
X127156619Y-121348666D01*
X128061381Y-120872476D02*
X128061381Y-120682000D01*
X128013762Y-120586761D01*
X127966143Y-120539142D01*
X127823286Y-120443904D01*
X127632810Y-120396285D01*
X127251857Y-120396285D01*
X127156619Y-120443904D01*
X127109000Y-120491523D01*
X127061381Y-120586761D01*
X127061381Y-120777238D01*
X127109000Y-120872476D01*
X127156619Y-120920095D01*
X127251857Y-120967714D01*
X127489952Y-120967714D01*
X127585190Y-120920095D01*
X127632810Y-120872476D01*
X127680429Y-120777238D01*
X127680429Y-120586761D01*
X127632810Y-120491523D01*
X127585190Y-120443904D01*
X127489952Y-120396285D01*
X129285143Y-114543857D02*
X129332762Y-114591476D01*
X129380381Y-114734333D01*
X129380381Y-114829571D01*
X129332762Y-114972429D01*
X129237524Y-115067667D01*
X129142286Y-115115286D01*
X128951810Y-115162905D01*
X128808952Y-115162905D01*
X128618476Y-115115286D01*
X128523238Y-115067667D01*
X128428000Y-114972429D01*
X128380381Y-114829571D01*
X128380381Y-114734333D01*
X128428000Y-114591476D01*
X128475619Y-114543857D01*
X129380381Y-113591476D02*
X129380381Y-114162905D01*
X129380381Y-113877191D02*
X128380381Y-113877191D01*
X128523238Y-113972429D01*
X128618476Y-114067667D01*
X128666095Y-114162905D01*
X128475619Y-113210524D02*
X128428000Y-113162905D01*
X128380381Y-113067667D01*
X128380381Y-112829571D01*
X128428000Y-112734333D01*
X128475619Y-112686714D01*
X128570857Y-112639095D01*
X128666095Y-112639095D01*
X128808952Y-112686714D01*
X129380381Y-113258143D01*
X129380381Y-112639095D01*
X139921381Y-128418666D02*
X139445190Y-128752000D01*
X139921381Y-128990095D02*
X138921381Y-128990095D01*
X138921381Y-128609142D01*
X138969000Y-128513904D01*
X139016619Y-128466285D01*
X139111857Y-128418666D01*
X139254714Y-128418666D01*
X139349952Y-128466285D01*
X139397571Y-128513904D01*
X139445190Y-128609142D01*
X139445190Y-128990095D01*
X139921381Y-127466285D02*
X139921381Y-128037714D01*
X139921381Y-127752000D02*
X138921381Y-127752000D01*
X139064238Y-127847238D01*
X139159476Y-127942476D01*
X139207095Y-128037714D01*
X137254381Y-128545666D02*
X136778190Y-128879000D01*
X137254381Y-129117095D02*
X136254381Y-129117095D01*
X136254381Y-128736142D01*
X136302000Y-128640904D01*
X136349619Y-128593285D01*
X136444857Y-128545666D01*
X136587714Y-128545666D01*
X136682952Y-128593285D01*
X136730571Y-128640904D01*
X136778190Y-128736142D01*
X136778190Y-129117095D01*
X136349619Y-128164714D02*
X136302000Y-128117095D01*
X136254381Y-128021857D01*
X136254381Y-127783761D01*
X136302000Y-127688523D01*
X136349619Y-127640904D01*
X136444857Y-127593285D01*
X136540095Y-127593285D01*
X136682952Y-127640904D01*
X137254381Y-128212333D01*
X137254381Y-127593285D01*
D20*
X134714381Y-93112666D02*
X134238190Y-93446000D01*
X134714381Y-93684095D02*
X133714381Y-93684095D01*
X133714381Y-93303142D01*
X133762000Y-93207904D01*
X133809619Y-93160285D01*
X133904857Y-93112666D01*
X134047714Y-93112666D01*
X134142952Y-93160285D01*
X134190571Y-93207904D01*
X134238190Y-93303142D01*
X134238190Y-93684095D01*
X133714381Y-92779333D02*
X133714381Y-92160285D01*
X134095333Y-92493619D01*
X134095333Y-92350761D01*
X134142952Y-92255523D01*
X134190571Y-92207904D01*
X134285810Y-92160285D01*
X134523905Y-92160285D01*
X134619143Y-92207904D01*
X134666762Y-92255523D01*
X134714381Y-92350761D01*
X134714381Y-92636476D01*
X134666762Y-92731714D01*
X134619143Y-92779333D01*
D13*
X137254381Y-93239666D02*
X136778190Y-93573000D01*
X137254381Y-93811095D02*
X136254381Y-93811095D01*
X136254381Y-93430142D01*
X136302000Y-93334904D01*
X136349619Y-93287285D01*
X136444857Y-93239666D01*
X136587714Y-93239666D01*
X136682952Y-93287285D01*
X136730571Y-93334904D01*
X136778190Y-93430142D01*
X136778190Y-93811095D01*
X136587714Y-92382523D02*
X137254381Y-92382523D01*
X136206762Y-92620619D02*
X136921048Y-92858714D01*
X136921048Y-92239666D01*
X144874381Y-93366666D02*
X144398190Y-93700000D01*
X144874381Y-93938095D02*
X143874381Y-93938095D01*
X143874381Y-93557142D01*
X143922000Y-93461904D01*
X143969619Y-93414285D01*
X144064857Y-93366666D01*
X144207714Y-93366666D01*
X144302952Y-93414285D01*
X144350571Y-93461904D01*
X144398190Y-93557142D01*
X144398190Y-93938095D01*
X143874381Y-92461904D02*
X143874381Y-92938095D01*
X144350571Y-92985714D01*
X144302952Y-92938095D01*
X144255333Y-92842857D01*
X144255333Y-92604761D01*
X144302952Y-92509523D01*
X144350571Y-92461904D01*
X144445810Y-92414285D01*
X144683905Y-92414285D01*
X144779143Y-92461904D01*
X144826762Y-92509523D01*
X144874381Y-92604761D01*
X144874381Y-92842857D01*
X144826762Y-92938095D01*
X144779143Y-92985714D01*
X147414381Y-93366666D02*
X146938190Y-93700000D01*
X147414381Y-93938095D02*
X146414381Y-93938095D01*
X146414381Y-93557142D01*
X146462000Y-93461904D01*
X146509619Y-93414285D01*
X146604857Y-93366666D01*
X146747714Y-93366666D01*
X146842952Y-93414285D01*
X146890571Y-93461904D01*
X146938190Y-93557142D01*
X146938190Y-93938095D01*
X146414381Y-92509523D02*
X146414381Y-92700000D01*
X146462000Y-92795238D01*
X146509619Y-92842857D01*
X146652476Y-92938095D01*
X146842952Y-92985714D01*
X147223905Y-92985714D01*
X147319143Y-92938095D01*
X147366762Y-92890476D01*
X147414381Y-92795238D01*
X147414381Y-92604761D01*
X147366762Y-92509523D01*
X147319143Y-92461904D01*
X147223905Y-92414285D01*
X146985810Y-92414285D01*
X146890571Y-92461904D01*
X146842952Y-92509523D01*
X146795333Y-92604761D01*
X146795333Y-92795238D01*
X146842952Y-92890476D01*
X146890571Y-92938095D01*
X146985810Y-92985714D01*
X147684334Y-128577381D02*
X147351000Y-128101190D01*
X147112905Y-128577381D02*
X147112905Y-127577381D01*
X147493858Y-127577381D01*
X147589096Y-127625000D01*
X147636715Y-127672619D01*
X147684334Y-127767857D01*
X147684334Y-127910714D01*
X147636715Y-128005952D01*
X147589096Y-128053571D01*
X147493858Y-128101190D01*
X147112905Y-128101190D01*
X148017667Y-127577381D02*
X148684334Y-127577381D01*
X148255762Y-128577381D01*
X150097334Y-130101381D02*
X149764000Y-129625190D01*
X149525905Y-130101381D02*
X149525905Y-129101381D01*
X149906858Y-129101381D01*
X150002096Y-129149000D01*
X150049715Y-129196619D01*
X150097334Y-129291857D01*
X150097334Y-129434714D01*
X150049715Y-129529952D01*
X150002096Y-129577571D01*
X149906858Y-129625190D01*
X149525905Y-129625190D01*
X150668762Y-129529952D02*
X150573524Y-129482333D01*
X150525905Y-129434714D01*
X150478286Y-129339476D01*
X150478286Y-129291857D01*
X150525905Y-129196619D01*
X150573524Y-129149000D01*
X150668762Y-129101381D01*
X150859239Y-129101381D01*
X150954477Y-129149000D01*
X151002096Y-129196619D01*
X151049715Y-129291857D01*
X151049715Y-129339476D01*
X151002096Y-129434714D01*
X150954477Y-129482333D01*
X150859239Y-129529952D01*
X150668762Y-129529952D01*
X150573524Y-129577571D01*
X150525905Y-129625190D01*
X150478286Y-129720429D01*
X150478286Y-129910905D01*
X150525905Y-130006143D01*
X150573524Y-130053762D01*
X150668762Y-130101381D01*
X150859239Y-130101381D01*
X150954477Y-130053762D01*
X151002096Y-130006143D01*
X151049715Y-129910905D01*
X151049715Y-129720429D01*
X151002096Y-129625190D01*
X150954477Y-129577571D01*
X150859239Y-129529952D01*
X152510334Y-130101381D02*
X152177000Y-129625190D01*
X151938905Y-130101381D02*
X151938905Y-129101381D01*
X152319858Y-129101381D01*
X152415096Y-129149000D01*
X152462715Y-129196619D01*
X152510334Y-129291857D01*
X152510334Y-129434714D01*
X152462715Y-129529952D01*
X152415096Y-129577571D01*
X152319858Y-129625190D01*
X151938905Y-129625190D01*
X152986524Y-130101381D02*
X153177000Y-130101381D01*
X153272239Y-130053762D01*
X153319858Y-130006143D01*
X153415096Y-129863286D01*
X153462715Y-129672810D01*
X153462715Y-129291857D01*
X153415096Y-129196619D01*
X153367477Y-129149000D01*
X153272239Y-129101381D01*
X153081762Y-129101381D01*
X152986524Y-129149000D01*
X152938905Y-129196619D01*
X152891286Y-129291857D01*
X152891286Y-129529952D01*
X152938905Y-129625190D01*
X152986524Y-129672810D01*
X153081762Y-129720429D01*
X153272239Y-129720429D01*
X153367477Y-129672810D01*
X153415096Y-129625190D01*
X153462715Y-129529952D01*
X148859143Y-97970381D02*
X148525809Y-97494190D01*
X148287714Y-97970381D02*
X148287714Y-96970381D01*
X148668667Y-96970381D01*
X148763905Y-97018000D01*
X148811524Y-97065619D01*
X148859143Y-97160857D01*
X148859143Y-97303714D01*
X148811524Y-97398952D01*
X148763905Y-97446571D01*
X148668667Y-97494190D01*
X148287714Y-97494190D01*
X149811524Y-97970381D02*
X149240095Y-97970381D01*
X149525809Y-97970381D02*
X149525809Y-96970381D01*
X149430571Y-97113238D01*
X149335333Y-97208476D01*
X149240095Y-97256095D01*
X150430571Y-96970381D02*
X150525810Y-96970381D01*
X150621048Y-97018000D01*
X150668667Y-97065619D01*
X150716286Y-97160857D01*
X150763905Y-97351333D01*
X150763905Y-97589429D01*
X150716286Y-97779905D01*
X150668667Y-97875143D01*
X150621048Y-97922762D01*
X150525810Y-97970381D01*
X150430571Y-97970381D01*
X150335333Y-97922762D01*
X150287714Y-97875143D01*
X150240095Y-97779905D01*
X150192476Y-97589429D01*
X150192476Y-97351333D01*
X150240095Y-97160857D01*
X150287714Y-97065619D01*
X150335333Y-97018000D01*
X150430571Y-96970381D01*
X155463143Y-128450381D02*
X155129809Y-127974190D01*
X154891714Y-128450381D02*
X154891714Y-127450381D01*
X155272667Y-127450381D01*
X155367905Y-127498000D01*
X155415524Y-127545619D01*
X155463143Y-127640857D01*
X155463143Y-127783714D01*
X155415524Y-127878952D01*
X155367905Y-127926571D01*
X155272667Y-127974190D01*
X154891714Y-127974190D01*
X156415524Y-128450381D02*
X155844095Y-128450381D01*
X156129809Y-128450381D02*
X156129809Y-127450381D01*
X156034571Y-127593238D01*
X155939333Y-127688476D01*
X155844095Y-127736095D01*
X157367905Y-128450381D02*
X156796476Y-128450381D01*
X157082190Y-128450381D02*
X157082190Y-127450381D01*
X156986952Y-127593238D01*
X156891714Y-127688476D01*
X156796476Y-127736095D01*
X151399143Y-126291381D02*
X151065809Y-125815190D01*
X150827714Y-126291381D02*
X150827714Y-125291381D01*
X151208667Y-125291381D01*
X151303905Y-125339000D01*
X151351524Y-125386619D01*
X151399143Y-125481857D01*
X151399143Y-125624714D01*
X151351524Y-125719952D01*
X151303905Y-125767571D01*
X151208667Y-125815190D01*
X150827714Y-125815190D01*
X152351524Y-126291381D02*
X151780095Y-126291381D01*
X152065809Y-126291381D02*
X152065809Y-125291381D01*
X151970571Y-125434238D01*
X151875333Y-125529476D01*
X151780095Y-125577095D01*
X152732476Y-125386619D02*
X152780095Y-125339000D01*
X152875333Y-125291381D01*
X153113429Y-125291381D01*
X153208667Y-125339000D01*
X153256286Y-125386619D01*
X153303905Y-125481857D01*
X153303905Y-125577095D01*
X153256286Y-125719952D01*
X152684857Y-126291381D01*
X153303905Y-126291381D01*
X148859143Y-96446381D02*
X148525809Y-95970190D01*
X148287714Y-96446381D02*
X148287714Y-95446381D01*
X148668667Y-95446381D01*
X148763905Y-95494000D01*
X148811524Y-95541619D01*
X148859143Y-95636857D01*
X148859143Y-95779714D01*
X148811524Y-95874952D01*
X148763905Y-95922571D01*
X148668667Y-95970190D01*
X148287714Y-95970190D01*
X149811524Y-96446381D02*
X149240095Y-96446381D01*
X149525809Y-96446381D02*
X149525809Y-95446381D01*
X149430571Y-95589238D01*
X149335333Y-95684476D01*
X149240095Y-95732095D01*
X150144857Y-95446381D02*
X150763905Y-95446381D01*
X150430571Y-95827333D01*
X150573429Y-95827333D01*
X150668667Y-95874952D01*
X150716286Y-95922571D01*
X150763905Y-96017810D01*
X150763905Y-96255905D01*
X150716286Y-96351143D01*
X150668667Y-96398762D01*
X150573429Y-96446381D01*
X150287714Y-96446381D01*
X150192476Y-96398762D01*
X150144857Y-96351143D01*
X148859143Y-94922381D02*
X148525809Y-94446190D01*
X148287714Y-94922381D02*
X148287714Y-93922381D01*
X148668667Y-93922381D01*
X148763905Y-93970000D01*
X148811524Y-94017619D01*
X148859143Y-94112857D01*
X148859143Y-94255714D01*
X148811524Y-94350952D01*
X148763905Y-94398571D01*
X148668667Y-94446190D01*
X148287714Y-94446190D01*
X149811524Y-94922381D02*
X149240095Y-94922381D01*
X149525809Y-94922381D02*
X149525809Y-93922381D01*
X149430571Y-94065238D01*
X149335333Y-94160476D01*
X149240095Y-94208095D01*
X150668667Y-94255714D02*
X150668667Y-94922381D01*
X150430571Y-93874762D02*
X150192476Y-94589048D01*
X150811524Y-94589048D01*
X148859143Y-93398381D02*
X148525809Y-92922190D01*
X148287714Y-93398381D02*
X148287714Y-92398381D01*
X148668667Y-92398381D01*
X148763905Y-92446000D01*
X148811524Y-92493619D01*
X148859143Y-92588857D01*
X148859143Y-92731714D01*
X148811524Y-92826952D01*
X148763905Y-92874571D01*
X148668667Y-92922190D01*
X148287714Y-92922190D01*
X149811524Y-93398381D02*
X149240095Y-93398381D01*
X149525809Y-93398381D02*
X149525809Y-92398381D01*
X149430571Y-92541238D01*
X149335333Y-92636476D01*
X149240095Y-92684095D01*
X150716286Y-92398381D02*
X150240095Y-92398381D01*
X150192476Y-92874571D01*
X150240095Y-92826952D01*
X150335333Y-92779333D01*
X150573429Y-92779333D01*
X150668667Y-92826952D01*
X150716286Y-92874571D01*
X150763905Y-92969810D01*
X150763905Y-93207905D01*
X150716286Y-93303143D01*
X150668667Y-93350762D01*
X150573429Y-93398381D01*
X150335333Y-93398381D01*
X150240095Y-93350762D01*
X150192476Y-93303143D01*
X100170381Y-129148857D02*
X99694190Y-129482191D01*
X100170381Y-129720286D02*
X99170381Y-129720286D01*
X99170381Y-129339333D01*
X99218000Y-129244095D01*
X99265619Y-129196476D01*
X99360857Y-129148857D01*
X99503714Y-129148857D01*
X99598952Y-129196476D01*
X99646571Y-129244095D01*
X99694190Y-129339333D01*
X99694190Y-129720286D01*
X100170381Y-128196476D02*
X100170381Y-128767905D01*
X100170381Y-128482191D02*
X99170381Y-128482191D01*
X99313238Y-128577429D01*
X99408476Y-128672667D01*
X99456095Y-128767905D01*
X99170381Y-127339333D02*
X99170381Y-127529810D01*
X99218000Y-127625048D01*
X99265619Y-127672667D01*
X99408476Y-127767905D01*
X99598952Y-127815524D01*
X99979905Y-127815524D01*
X100075143Y-127767905D01*
X100122762Y-127720286D01*
X100170381Y-127625048D01*
X100170381Y-127434571D01*
X100122762Y-127339333D01*
X100075143Y-127291714D01*
X99979905Y-127244095D01*
X99741810Y-127244095D01*
X99646571Y-127291714D01*
X99598952Y-127339333D01*
X99551333Y-127434571D01*
X99551333Y-127625048D01*
X99598952Y-127720286D01*
X99646571Y-127767905D01*
X99741810Y-127815524D01*
X157479143Y-113273857D02*
X157526762Y-113321476D01*
X157574381Y-113464333D01*
X157574381Y-113559571D01*
X157526762Y-113702429D01*
X157431524Y-113797667D01*
X157336286Y-113845286D01*
X157145810Y-113892905D01*
X157002952Y-113892905D01*
X156812476Y-113845286D01*
X156717238Y-113797667D01*
X156622000Y-113702429D01*
X156574381Y-113559571D01*
X156574381Y-113464333D01*
X156622000Y-113321476D01*
X156669619Y-113273857D01*
X157574381Y-112321476D02*
X157574381Y-112892905D01*
X157574381Y-112607191D02*
X156574381Y-112607191D01*
X156717238Y-112702429D01*
X156812476Y-112797667D01*
X156860095Y-112892905D01*
X157002952Y-111750048D02*
X156955333Y-111845286D01*
X156907714Y-111892905D01*
X156812476Y-111940524D01*
X156764857Y-111940524D01*
X156669619Y-111892905D01*
X156622000Y-111845286D01*
X156574381Y-111750048D01*
X156574381Y-111559571D01*
X156622000Y-111464333D01*
X156669619Y-111416714D01*
X156764857Y-111369095D01*
X156812476Y-111369095D01*
X156907714Y-111416714D01*
X156955333Y-111464333D01*
X157002952Y-111559571D01*
X157002952Y-111750048D01*
X157050571Y-111845286D01*
X157098190Y-111892905D01*
X157193429Y-111940524D01*
X157383905Y-111940524D01*
X157479143Y-111892905D01*
X157526762Y-111845286D01*
X157574381Y-111750048D01*
X157574381Y-111559571D01*
X157526762Y-111464333D01*
X157479143Y-111416714D01*
X157383905Y-111369095D01*
X157193429Y-111369095D01*
X157098190Y-111416714D01*
X157050571Y-111464333D01*
X157002952Y-111559571D01*
X139969143Y-105241143D02*
X139921524Y-105288762D01*
X139778667Y-105336381D01*
X139683429Y-105336381D01*
X139540571Y-105288762D01*
X139445333Y-105193524D01*
X139397714Y-105098286D01*
X139350095Y-104907810D01*
X139350095Y-104764952D01*
X139397714Y-104574476D01*
X139445333Y-104479238D01*
X139540571Y-104384000D01*
X139683429Y-104336381D01*
X139778667Y-104336381D01*
X139921524Y-104384000D01*
X139969143Y-104431619D01*
X140921524Y-105336381D02*
X140350095Y-105336381D01*
X140635809Y-105336381D02*
X140635809Y-104336381D01*
X140540571Y-104479238D01*
X140445333Y-104574476D01*
X140350095Y-104622095D01*
X141397714Y-105336381D02*
X141588190Y-105336381D01*
X141683429Y-105288762D01*
X141731048Y-105241143D01*
X141826286Y-105098286D01*
X141873905Y-104907810D01*
X141873905Y-104526857D01*
X141826286Y-104431619D01*
X141778667Y-104384000D01*
X141683429Y-104336381D01*
X141492952Y-104336381D01*
X141397714Y-104384000D01*
X141350095Y-104431619D01*
X141302476Y-104526857D01*
X141302476Y-104764952D01*
X141350095Y-104860190D01*
X141397714Y-104907810D01*
X141492952Y-104955429D01*
X141683429Y-104955429D01*
X141778667Y-104907810D01*
X141826286Y-104860190D01*
X141873905Y-104764952D01*
X139969143Y-106511143D02*
X139921524Y-106558762D01*
X139778667Y-106606381D01*
X139683429Y-106606381D01*
X139540571Y-106558762D01*
X139445333Y-106463524D01*
X139397714Y-106368286D01*
X139350095Y-106177810D01*
X139350095Y-106034952D01*
X139397714Y-105844476D01*
X139445333Y-105749238D01*
X139540571Y-105654000D01*
X139683429Y-105606381D01*
X139778667Y-105606381D01*
X139921524Y-105654000D01*
X139969143Y-105701619D01*
X140350095Y-105701619D02*
X140397714Y-105654000D01*
X140492952Y-105606381D01*
X140731048Y-105606381D01*
X140826286Y-105654000D01*
X140873905Y-105701619D01*
X140921524Y-105796857D01*
X140921524Y-105892095D01*
X140873905Y-106034952D01*
X140302476Y-106606381D01*
X140921524Y-106606381D01*
X141540571Y-105606381D02*
X141635810Y-105606381D01*
X141731048Y-105654000D01*
X141778667Y-105701619D01*
X141826286Y-105796857D01*
X141873905Y-105987333D01*
X141873905Y-106225429D01*
X141826286Y-106415905D01*
X141778667Y-106511143D01*
X141731048Y-106558762D01*
X141635810Y-106606381D01*
X141540571Y-106606381D01*
X141445333Y-106558762D01*
X141397714Y-106511143D01*
X141350095Y-106415905D01*
X141302476Y-106225429D01*
X141302476Y-105987333D01*
X141350095Y-105796857D01*
X141397714Y-105701619D01*
X141445333Y-105654000D01*
X141540571Y-105606381D01*
X103345381Y-128005857D02*
X102869190Y-128339191D01*
X103345381Y-128577286D02*
X102345381Y-128577286D01*
X102345381Y-128196333D01*
X102393000Y-128101095D01*
X102440619Y-128053476D01*
X102535857Y-128005857D01*
X102678714Y-128005857D01*
X102773952Y-128053476D01*
X102821571Y-128101095D01*
X102869190Y-128196333D01*
X102869190Y-128577286D01*
X103345381Y-127053476D02*
X103345381Y-127624905D01*
X103345381Y-127339191D02*
X102345381Y-127339191D01*
X102488238Y-127434429D01*
X102583476Y-127529667D01*
X102631095Y-127624905D01*
X102345381Y-126720143D02*
X102345381Y-126053476D01*
X103345381Y-126482048D01*
X98265381Y-129148857D02*
X97789190Y-129482191D01*
X98265381Y-129720286D02*
X97265381Y-129720286D01*
X97265381Y-129339333D01*
X97313000Y-129244095D01*
X97360619Y-129196476D01*
X97455857Y-129148857D01*
X97598714Y-129148857D01*
X97693952Y-129196476D01*
X97741571Y-129244095D01*
X97789190Y-129339333D01*
X97789190Y-129720286D01*
X98265381Y-128196476D02*
X98265381Y-128767905D01*
X98265381Y-128482191D02*
X97265381Y-128482191D01*
X97408238Y-128577429D01*
X97503476Y-128672667D01*
X97551095Y-128767905D01*
X97693952Y-127625048D02*
X97646333Y-127720286D01*
X97598714Y-127767905D01*
X97503476Y-127815524D01*
X97455857Y-127815524D01*
X97360619Y-127767905D01*
X97313000Y-127720286D01*
X97265381Y-127625048D01*
X97265381Y-127434571D01*
X97313000Y-127339333D01*
X97360619Y-127291714D01*
X97455857Y-127244095D01*
X97503476Y-127244095D01*
X97598714Y-127291714D01*
X97646333Y-127339333D01*
X97693952Y-127434571D01*
X97693952Y-127625048D01*
X97741571Y-127720286D01*
X97789190Y-127767905D01*
X97884429Y-127815524D01*
X98074905Y-127815524D01*
X98170143Y-127767905D01*
X98217762Y-127720286D01*
X98265381Y-127625048D01*
X98265381Y-127434571D01*
X98217762Y-127339333D01*
X98170143Y-127291714D01*
X98074905Y-127244095D01*
X97884429Y-127244095D01*
X97789190Y-127291714D01*
X97741571Y-127339333D01*
X97693952Y-127434571D01*
X101694381Y-124830857D02*
X101218190Y-125164191D01*
X101694381Y-125402286D02*
X100694381Y-125402286D01*
X100694381Y-125021333D01*
X100742000Y-124926095D01*
X100789619Y-124878476D01*
X100884857Y-124830857D01*
X101027714Y-124830857D01*
X101122952Y-124878476D01*
X101170571Y-124926095D01*
X101218190Y-125021333D01*
X101218190Y-125402286D01*
X101694381Y-123878476D02*
X101694381Y-124449905D01*
X101694381Y-124164191D02*
X100694381Y-124164191D01*
X100837238Y-124259429D01*
X100932476Y-124354667D01*
X100980095Y-124449905D01*
X101694381Y-123402286D02*
X101694381Y-123211810D01*
X101646762Y-123116571D01*
X101599143Y-123068952D01*
X101456286Y-122973714D01*
X101265810Y-122926095D01*
X100884857Y-122926095D01*
X100789619Y-122973714D01*
X100742000Y-123021333D01*
X100694381Y-123116571D01*
X100694381Y-123307048D01*
X100742000Y-123402286D01*
X100789619Y-123449905D01*
X100884857Y-123497524D01*
X101122952Y-123497524D01*
X101218190Y-123449905D01*
X101265810Y-123402286D01*
X101313429Y-123307048D01*
X101313429Y-123116571D01*
X101265810Y-123021333D01*
X101218190Y-122973714D01*
X101122952Y-122926095D01*
X96193762Y-123211619D02*
X96098524Y-123164000D01*
X96003286Y-123068762D01*
X95860429Y-122925905D01*
X95765190Y-122878286D01*
X95669952Y-122878286D01*
X95717571Y-123116381D02*
X95622333Y-123068762D01*
X95527095Y-122973524D01*
X95479476Y-122783048D01*
X95479476Y-122449714D01*
X95527095Y-122259238D01*
X95622333Y-122164000D01*
X95717571Y-122116381D01*
X95908048Y-122116381D01*
X96003286Y-122164000D01*
X96098524Y-122259238D01*
X96146143Y-122449714D01*
X96146143Y-122783048D01*
X96098524Y-122973524D01*
X96003286Y-123068762D01*
X95908048Y-123116381D01*
X95717571Y-123116381D01*
X97098524Y-123116381D02*
X96527095Y-123116381D01*
X96812809Y-123116381D02*
X96812809Y-122116381D01*
X96717571Y-122259238D01*
X96622333Y-122354476D01*
X96527095Y-122402095D01*
X104329619Y-119965238D02*
X104282000Y-120060476D01*
X104186762Y-120155714D01*
X104043905Y-120298571D01*
X103996286Y-120393810D01*
X103996286Y-120489048D01*
X104234381Y-120441429D02*
X104186762Y-120536667D01*
X104091524Y-120631905D01*
X103901048Y-120679524D01*
X103567714Y-120679524D01*
X103377238Y-120631905D01*
X103282000Y-120536667D01*
X103234381Y-120441429D01*
X103234381Y-120250952D01*
X103282000Y-120155714D01*
X103377238Y-120060476D01*
X103567714Y-120012857D01*
X103901048Y-120012857D01*
X104091524Y-120060476D01*
X104186762Y-120155714D01*
X104234381Y-120250952D01*
X104234381Y-120441429D01*
X103329619Y-119631905D02*
X103282000Y-119584286D01*
X103234381Y-119489048D01*
X103234381Y-119250952D01*
X103282000Y-119155714D01*
X103329619Y-119108095D01*
X103424857Y-119060476D01*
X103520095Y-119060476D01*
X103662952Y-119108095D01*
X104234381Y-119679524D01*
X104234381Y-119060476D01*
X116013619Y-125680238D02*
X115966000Y-125775476D01*
X115870762Y-125870714D01*
X115727905Y-126013571D01*
X115680286Y-126108810D01*
X115680286Y-126204048D01*
X115918381Y-126156429D02*
X115870762Y-126251667D01*
X115775524Y-126346905D01*
X115585048Y-126394524D01*
X115251714Y-126394524D01*
X115061238Y-126346905D01*
X114966000Y-126251667D01*
X114918381Y-126156429D01*
X114918381Y-125965952D01*
X114966000Y-125870714D01*
X115061238Y-125775476D01*
X115251714Y-125727857D01*
X115585048Y-125727857D01*
X115775524Y-125775476D01*
X115870762Y-125870714D01*
X115918381Y-125965952D01*
X115918381Y-126156429D01*
X114918381Y-125394524D02*
X114918381Y-124775476D01*
X115299333Y-125108810D01*
X115299333Y-124965952D01*
X115346952Y-124870714D01*
X115394571Y-124823095D01*
X115489810Y-124775476D01*
X115727905Y-124775476D01*
X115823143Y-124823095D01*
X115870762Y-124870714D01*
X115918381Y-124965952D01*
X115918381Y-125251667D01*
X115870762Y-125346905D01*
X115823143Y-125394524D01*
X136032143Y-120449381D02*
X135698809Y-119973190D01*
X135460714Y-120449381D02*
X135460714Y-119449381D01*
X135841667Y-119449381D01*
X135936905Y-119497000D01*
X135984524Y-119544619D01*
X136032143Y-119639857D01*
X136032143Y-119782714D01*
X135984524Y-119877952D01*
X135936905Y-119925571D01*
X135841667Y-119973190D01*
X135460714Y-119973190D01*
X136413095Y-119544619D02*
X136460714Y-119497000D01*
X136555952Y-119449381D01*
X136794048Y-119449381D01*
X136889286Y-119497000D01*
X136936905Y-119544619D01*
X136984524Y-119639857D01*
X136984524Y-119735095D01*
X136936905Y-119877952D01*
X136365476Y-120449381D01*
X136984524Y-120449381D01*
X137603571Y-119449381D02*
X137698810Y-119449381D01*
X137794048Y-119497000D01*
X137841667Y-119544619D01*
X137889286Y-119639857D01*
X137936905Y-119830333D01*
X137936905Y-120068429D01*
X137889286Y-120258905D01*
X137841667Y-120354143D01*
X137794048Y-120401762D01*
X137698810Y-120449381D01*
X137603571Y-120449381D01*
X137508333Y-120401762D01*
X137460714Y-120354143D01*
X137413095Y-120258905D01*
X137365476Y-120068429D01*
X137365476Y-119830333D01*
X137413095Y-119639857D01*
X137460714Y-119544619D01*
X137508333Y-119497000D01*
X137603571Y-119449381D01*
X133190381Y-120893857D02*
X132714190Y-121227191D01*
X133190381Y-121465286D02*
X132190381Y-121465286D01*
X132190381Y-121084333D01*
X132238000Y-120989095D01*
X132285619Y-120941476D01*
X132380857Y-120893857D01*
X132523714Y-120893857D01*
X132618952Y-120941476D01*
X132666571Y-120989095D01*
X132714190Y-121084333D01*
X132714190Y-121465286D01*
X132285619Y-120512905D02*
X132238000Y-120465286D01*
X132190381Y-120370048D01*
X132190381Y-120131952D01*
X132238000Y-120036714D01*
X132285619Y-119989095D01*
X132380857Y-119941476D01*
X132476095Y-119941476D01*
X132618952Y-119989095D01*
X133190381Y-120560524D01*
X133190381Y-119941476D01*
X133190381Y-118989095D02*
X133190381Y-119560524D01*
X133190381Y-119274810D02*
X132190381Y-119274810D01*
X132333238Y-119370048D01*
X132428476Y-119465286D01*
X132476095Y-119560524D01*
X122062143Y-127688381D02*
X121728809Y-127212190D01*
X121490714Y-127688381D02*
X121490714Y-126688381D01*
X121871667Y-126688381D01*
X121966905Y-126736000D01*
X122014524Y-126783619D01*
X122062143Y-126878857D01*
X122062143Y-127021714D01*
X122014524Y-127116952D01*
X121966905Y-127164571D01*
X121871667Y-127212190D01*
X121490714Y-127212190D01*
X122443095Y-126783619D02*
X122490714Y-126736000D01*
X122585952Y-126688381D01*
X122824048Y-126688381D01*
X122919286Y-126736000D01*
X122966905Y-126783619D01*
X123014524Y-126878857D01*
X123014524Y-126974095D01*
X122966905Y-127116952D01*
X122395476Y-127688381D01*
X123014524Y-127688381D01*
X123347857Y-126688381D02*
X123966905Y-126688381D01*
X123633571Y-127069333D01*
X123776429Y-127069333D01*
X123871667Y-127116952D01*
X123919286Y-127164571D01*
X123966905Y-127259810D01*
X123966905Y-127497905D01*
X123919286Y-127593143D01*
X123871667Y-127640762D01*
X123776429Y-127688381D01*
X123490714Y-127688381D01*
X123395476Y-127640762D01*
X123347857Y-127593143D01*
X118712381Y-130672857D02*
X118236190Y-131006191D01*
X118712381Y-131244286D02*
X117712381Y-131244286D01*
X117712381Y-130863333D01*
X117760000Y-130768095D01*
X117807619Y-130720476D01*
X117902857Y-130672857D01*
X118045714Y-130672857D01*
X118140952Y-130720476D01*
X118188571Y-130768095D01*
X118236190Y-130863333D01*
X118236190Y-131244286D01*
X117807619Y-130291905D02*
X117760000Y-130244286D01*
X117712381Y-130149048D01*
X117712381Y-129910952D01*
X117760000Y-129815714D01*
X117807619Y-129768095D01*
X117902857Y-129720476D01*
X117998095Y-129720476D01*
X118140952Y-129768095D01*
X118712381Y-130339524D01*
X118712381Y-129720476D01*
X118045714Y-128863333D02*
X118712381Y-128863333D01*
X117664762Y-129101429D02*
X118379048Y-129339524D01*
X118379048Y-128720476D01*
X157066381Y-118099857D02*
X156590190Y-118433191D01*
X157066381Y-118671286D02*
X156066381Y-118671286D01*
X156066381Y-118290333D01*
X156114000Y-118195095D01*
X156161619Y-118147476D01*
X156256857Y-118099857D01*
X156399714Y-118099857D01*
X156494952Y-118147476D01*
X156542571Y-118195095D01*
X156590190Y-118290333D01*
X156590190Y-118671286D01*
X156161619Y-117718905D02*
X156114000Y-117671286D01*
X156066381Y-117576048D01*
X156066381Y-117337952D01*
X156114000Y-117242714D01*
X156161619Y-117195095D01*
X156256857Y-117147476D01*
X156352095Y-117147476D01*
X156494952Y-117195095D01*
X157066381Y-117766524D01*
X157066381Y-117147476D01*
X156066381Y-116242714D02*
X156066381Y-116718905D01*
X156542571Y-116766524D01*
X156494952Y-116718905D01*
X156447333Y-116623667D01*
X156447333Y-116385571D01*
X156494952Y-116290333D01*
X156542571Y-116242714D01*
X156637810Y-116195095D01*
X156875905Y-116195095D01*
X156971143Y-116242714D01*
X157018762Y-116290333D01*
X157066381Y-116385571D01*
X157066381Y-116623667D01*
X157018762Y-116718905D01*
X156971143Y-116766524D01*
X87740381Y-115123333D02*
X88454667Y-115123333D01*
X88597524Y-115170953D01*
X88692762Y-115266191D01*
X88740381Y-115409048D01*
X88740381Y-115504286D01*
X88740381Y-114123333D02*
X88740381Y-114694762D01*
X88740381Y-114409048D02*
X87740381Y-114409048D01*
X87883238Y-114504286D01*
X87978476Y-114599524D01*
X88026095Y-114694762D01*
D10*
X91189381Y-113749904D02*
X91213190Y-113678475D01*
X91213190Y-113559428D01*
X91189381Y-113511809D01*
X91165571Y-113487999D01*
X91117952Y-113464190D01*
X91070333Y-113464190D01*
X91022714Y-113487999D01*
X90998905Y-113511809D01*
X90975095Y-113559428D01*
X90951286Y-113654666D01*
X90927476Y-113702285D01*
X90903667Y-113726094D01*
X90856048Y-113749904D01*
X90808429Y-113749904D01*
X90760810Y-113726094D01*
X90737000Y-113702285D01*
X90713190Y-113654666D01*
X90713190Y-113535618D01*
X90737000Y-113464190D01*
X91213190Y-113249904D02*
X90713190Y-113249904D01*
X91070333Y-113083238D01*
X90713190Y-112916571D01*
X91213190Y-112916571D01*
X91070333Y-112702285D02*
X91070333Y-112464190D01*
X91213190Y-112749904D02*
X90713190Y-112583237D01*
X91213190Y-112416571D01*
X91260810Y-112368952D02*
X91260810Y-111988000D01*
X90879857Y-111940381D02*
X90879857Y-111749905D01*
X90713190Y-111868952D02*
X91141762Y-111868952D01*
X91189381Y-111845143D01*
X91213190Y-111797524D01*
X91213190Y-111749905D01*
X91213190Y-111583238D02*
X90713190Y-111583238D01*
X91213190Y-111368953D02*
X90951286Y-111368953D01*
X90903667Y-111392762D01*
X90879857Y-111440381D01*
X90879857Y-111511810D01*
X90903667Y-111559429D01*
X90927476Y-111583238D01*
X91213190Y-111130857D02*
X90879857Y-111130857D01*
X90975095Y-111130857D02*
X90927476Y-111107048D01*
X90903667Y-111083238D01*
X90879857Y-111035619D01*
X90879857Y-110988000D01*
X91213190Y-110749905D02*
X91189381Y-110797524D01*
X91165571Y-110821333D01*
X91117952Y-110845143D01*
X90975095Y-110845143D01*
X90927476Y-110821333D01*
X90903667Y-110797524D01*
X90879857Y-110749905D01*
X90879857Y-110678476D01*
X90903667Y-110630857D01*
X90927476Y-110607048D01*
X90975095Y-110583238D01*
X91117952Y-110583238D01*
X91165571Y-110607048D01*
X91189381Y-110630857D01*
X91213190Y-110678476D01*
X91213190Y-110749905D01*
X90879857Y-110154667D02*
X91213190Y-110154667D01*
X90879857Y-110368952D02*
X91141762Y-110368952D01*
X91189381Y-110345143D01*
X91213190Y-110297524D01*
X91213190Y-110226095D01*
X91189381Y-110178476D01*
X91165571Y-110154667D01*
X90879857Y-109702286D02*
X91284619Y-109702286D01*
X91332238Y-109726095D01*
X91356048Y-109749905D01*
X91379857Y-109797524D01*
X91379857Y-109868952D01*
X91356048Y-109916571D01*
X91189381Y-109702286D02*
X91213190Y-109749905D01*
X91213190Y-109845143D01*
X91189381Y-109892762D01*
X91165571Y-109916571D01*
X91117952Y-109940381D01*
X90975095Y-109940381D01*
X90927476Y-109916571D01*
X90903667Y-109892762D01*
X90879857Y-109845143D01*
X90879857Y-109749905D01*
X90903667Y-109702286D01*
X91213190Y-109464190D02*
X90713190Y-109464190D01*
X91213190Y-109249905D02*
X90951286Y-109249905D01*
X90903667Y-109273714D01*
X90879857Y-109321333D01*
X90879857Y-109392762D01*
X90903667Y-109440381D01*
X90927476Y-109464190D01*
D13*
X131031381Y-129339095D02*
X130031381Y-129339095D01*
X130031381Y-129101000D01*
X130079000Y-128958142D01*
X130174238Y-128862904D01*
X130269476Y-128815285D01*
X130459952Y-128767666D01*
X130602810Y-128767666D01*
X130793286Y-128815285D01*
X130888524Y-128862904D01*
X130983762Y-128958142D01*
X131031381Y-129101000D01*
X131031381Y-129339095D01*
X130126619Y-128386714D02*
X130079000Y-128339095D01*
X130031381Y-128243857D01*
X130031381Y-128005761D01*
X130079000Y-127910523D01*
X130126619Y-127862904D01*
X130221857Y-127815285D01*
X130317095Y-127815285D01*
X130459952Y-127862904D01*
X131031381Y-128434333D01*
X131031381Y-127815285D01*
D21*
X158573429Y-101563857D02*
X157049429Y-101563857D01*
X157049429Y-100983285D01*
X157122000Y-100838143D01*
X157194571Y-100765571D01*
X157339714Y-100693000D01*
X157557429Y-100693000D01*
X157702571Y-100765571D01*
X157775143Y-100838143D01*
X157847714Y-100983285D01*
X157847714Y-101563857D01*
X158573429Y-99241571D02*
X158573429Y-100112428D01*
X158573429Y-99677000D02*
X157049429Y-99677000D01*
X157267143Y-99822143D01*
X157412286Y-99967285D01*
X157484857Y-100112428D01*
X157055429Y-112546002D02*
X158071429Y-112546002D01*
X156474857Y-112908859D02*
X157563429Y-113271716D01*
X157563429Y-112328288D01*
X156547429Y-111892859D02*
X156547429Y-110876859D01*
X158071429Y-111530002D01*
X156547429Y-110441430D02*
X156547429Y-109498001D01*
X157128000Y-110006001D01*
X157128000Y-109788287D01*
X157200571Y-109643144D01*
X157273143Y-109570573D01*
X157418286Y-109498001D01*
X157781143Y-109498001D01*
X157926286Y-109570573D01*
X157998857Y-109643144D01*
X158071429Y-109788287D01*
X158071429Y-110223715D01*
X157998857Y-110368858D01*
X157926286Y-110441430D01*
X156547429Y-108554572D02*
X156547429Y-108409429D01*
X156620000Y-108264286D01*
X156692571Y-108191715D01*
X156837714Y-108119144D01*
X157128000Y-108046572D01*
X157490857Y-108046572D01*
X157781143Y-108119144D01*
X157926286Y-108191715D01*
X157998857Y-108264286D01*
X158071429Y-108409429D01*
X158071429Y-108554572D01*
X157998857Y-108699715D01*
X157926286Y-108772286D01*
X157781143Y-108844858D01*
X157490857Y-108917429D01*
X157128000Y-108917429D01*
X156837714Y-108844858D01*
X156692571Y-108772286D01*
X156620000Y-108699715D01*
X156547429Y-108554572D01*
X158071429Y-107320857D02*
X158071429Y-107030572D01*
X157998857Y-106885429D01*
X157926286Y-106812857D01*
X157708571Y-106667715D01*
X157418286Y-106595143D01*
X156837714Y-106595143D01*
X156692571Y-106667715D01*
X156620000Y-106740286D01*
X156547429Y-106885429D01*
X156547429Y-107175715D01*
X156620000Y-107320857D01*
X156692571Y-107393429D01*
X156837714Y-107466000D01*
X157200571Y-107466000D01*
X157345714Y-107393429D01*
X157418286Y-107320857D01*
X157490857Y-107175715D01*
X157490857Y-106885429D01*
X157418286Y-106740286D01*
X157345714Y-106667715D01*
X157200571Y-106595143D01*
X157490857Y-105942000D02*
X157490857Y-104780857D01*
X156692571Y-104127714D02*
X156620000Y-104055143D01*
X156547429Y-103910000D01*
X156547429Y-103547143D01*
X156620000Y-103402000D01*
X156692571Y-103329429D01*
X156837714Y-103256857D01*
X156982857Y-103256857D01*
X157200571Y-103329429D01*
X158071429Y-104200286D01*
X158071429Y-103256857D01*
X156547429Y-101950571D02*
X156547429Y-102240857D01*
X156620000Y-102386000D01*
X156692571Y-102458571D01*
X156910286Y-102603714D01*
X157200571Y-102676285D01*
X157781143Y-102676285D01*
X157926286Y-102603714D01*
X157998857Y-102531142D01*
X158071429Y-102386000D01*
X158071429Y-102095714D01*
X157998857Y-101950571D01*
X157926286Y-101878000D01*
X157781143Y-101805428D01*
X157418286Y-101805428D01*
X157273143Y-101878000D01*
X157200571Y-101950571D01*
X157128000Y-102095714D01*
X157128000Y-102386000D01*
X157200571Y-102531142D01*
X157273143Y-102603714D01*
X157418286Y-102676285D01*
X156547429Y-100426571D02*
X156547429Y-101152285D01*
X157273143Y-101224856D01*
X157200571Y-101152285D01*
X157128000Y-101007142D01*
X157128000Y-100644285D01*
X157200571Y-100499142D01*
X157273143Y-100426571D01*
X157418286Y-100353999D01*
X157781143Y-100353999D01*
X157926286Y-100426571D01*
X157998857Y-100499142D01*
X158071429Y-100644285D01*
X158071429Y-101007142D01*
X157998857Y-101152285D01*
X157926286Y-101224856D01*
X158071429Y-98902570D02*
X158071429Y-99773427D01*
X158071429Y-99337999D02*
X156547429Y-99337999D01*
X156765143Y-99483142D01*
X156910286Y-99628284D01*
X156982857Y-99773427D01*
X158216571Y-98612284D02*
X158216571Y-97451141D01*
X157055429Y-96435141D02*
X158071429Y-96435141D01*
X157055429Y-97088284D02*
X157853714Y-97088284D01*
X157998857Y-97015712D01*
X158071429Y-96870570D01*
X158071429Y-96652855D01*
X157998857Y-96507712D01*
X157926286Y-96435141D01*
X157998857Y-95781998D02*
X158071429Y-95564284D01*
X158071429Y-95201427D01*
X157998857Y-95056284D01*
X157926286Y-94983713D01*
X157781143Y-94911141D01*
X157636000Y-94911141D01*
X157490857Y-94983713D01*
X157418286Y-95056284D01*
X157345714Y-95201427D01*
X157273143Y-95491713D01*
X157200571Y-95636855D01*
X157128000Y-95709427D01*
X156982857Y-95781998D01*
X156837714Y-95781998D01*
X156692571Y-95709427D01*
X156620000Y-95636855D01*
X156547429Y-95491713D01*
X156547429Y-95128855D01*
X156620000Y-94911141D01*
X158071429Y-94257998D02*
X156547429Y-94257998D01*
X156547429Y-93895141D01*
X156620000Y-93677426D01*
X156765143Y-93532284D01*
X156910286Y-93459712D01*
X157200571Y-93387141D01*
X157418286Y-93387141D01*
X157708571Y-93459712D01*
X157853714Y-93532284D01*
X157998857Y-93677426D01*
X158071429Y-93895141D01*
X158071429Y-94257998D01*
X158216571Y-93096855D02*
X158216571Y-91935712D01*
X157998857Y-91645426D02*
X158071429Y-91500283D01*
X158071429Y-91209998D01*
X157998857Y-91064855D01*
X157853714Y-90992283D01*
X157781143Y-90992283D01*
X157636000Y-91064855D01*
X157563429Y-91209998D01*
X157563429Y-91427712D01*
X157490857Y-91572855D01*
X157345714Y-91645426D01*
X157273143Y-91645426D01*
X157128000Y-91572855D01*
X157055429Y-91427712D01*
X157055429Y-91209998D01*
X157128000Y-91064855D01*
X158071429Y-90121427D02*
X157998857Y-90266569D01*
X157853714Y-90339141D01*
X156547429Y-90339141D01*
X158071429Y-89323141D02*
X157998857Y-89468283D01*
X157926286Y-89540855D01*
X157781143Y-89613426D01*
X157345714Y-89613426D01*
X157200571Y-89540855D01*
X157128000Y-89468283D01*
X157055429Y-89323141D01*
X157055429Y-89105426D01*
X157128000Y-88960283D01*
X157200571Y-88887712D01*
X157345714Y-88815141D01*
X157781143Y-88815141D01*
X157926286Y-88887712D01*
X157998857Y-88960283D01*
X158071429Y-89105426D01*
X158071429Y-89323141D01*
X157055429Y-88379712D02*
X157055429Y-87799141D01*
X156547429Y-88161998D02*
X157853714Y-88161998D01*
X157998857Y-88089426D01*
X158071429Y-87944284D01*
X158071429Y-87799141D01*
D13*
X111854381Y-128640857D02*
X111378190Y-128974191D01*
X111854381Y-129212286D02*
X110854381Y-129212286D01*
X110854381Y-128831333D01*
X110902000Y-128736095D01*
X110949619Y-128688476D01*
X111044857Y-128640857D01*
X111187714Y-128640857D01*
X111282952Y-128688476D01*
X111330571Y-128736095D01*
X111378190Y-128831333D01*
X111378190Y-129212286D01*
X110949619Y-128259905D02*
X110902000Y-128212286D01*
X110854381Y-128117048D01*
X110854381Y-127878952D01*
X110902000Y-127783714D01*
X110949619Y-127736095D01*
X111044857Y-127688476D01*
X111140095Y-127688476D01*
X111282952Y-127736095D01*
X111854381Y-128307524D01*
X111854381Y-127688476D01*
X110949619Y-127307524D02*
X110902000Y-127259905D01*
X110854381Y-127164667D01*
X110854381Y-126926571D01*
X110902000Y-126831333D01*
X110949619Y-126783714D01*
X111044857Y-126736095D01*
X111140095Y-126736095D01*
X111282952Y-126783714D01*
X111854381Y-127355143D01*
X111854381Y-126736095D01*
X154359809Y-107400190D02*
X154359809Y-107876381D01*
X154026476Y-106876381D02*
X154359809Y-107400190D01*
X154693143Y-106876381D01*
X154978857Y-106971619D02*
X155026476Y-106924000D01*
X155121714Y-106876381D01*
X155359810Y-106876381D01*
X155455048Y-106924000D01*
X155502667Y-106971619D01*
X155550286Y-107066857D01*
X155550286Y-107162095D01*
X155502667Y-107304952D01*
X154931238Y-107876381D01*
X155550286Y-107876381D01*
X125570381Y-111622857D02*
X125094190Y-111956191D01*
X125570381Y-112194286D02*
X124570381Y-112194286D01*
X124570381Y-111813333D01*
X124618000Y-111718095D01*
X124665619Y-111670476D01*
X124760857Y-111622857D01*
X124903714Y-111622857D01*
X124998952Y-111670476D01*
X125046571Y-111718095D01*
X125094190Y-111813333D01*
X125094190Y-112194286D01*
X124665619Y-111241905D02*
X124618000Y-111194286D01*
X124570381Y-111099048D01*
X124570381Y-110860952D01*
X124618000Y-110765714D01*
X124665619Y-110718095D01*
X124760857Y-110670476D01*
X124856095Y-110670476D01*
X124998952Y-110718095D01*
X125570381Y-111289524D01*
X125570381Y-110670476D01*
X124570381Y-109813333D02*
X124570381Y-110003810D01*
X124618000Y-110099048D01*
X124665619Y-110146667D01*
X124808476Y-110241905D01*
X124998952Y-110289524D01*
X125379905Y-110289524D01*
X125475143Y-110241905D01*
X125522762Y-110194286D01*
X125570381Y-110099048D01*
X125570381Y-109908571D01*
X125522762Y-109813333D01*
X125475143Y-109765714D01*
X125379905Y-109718095D01*
X125141810Y-109718095D01*
X125046571Y-109765714D01*
X124998952Y-109813333D01*
X124951333Y-109908571D01*
X124951333Y-110099048D01*
X124998952Y-110194286D01*
X125046571Y-110241905D01*
X125141810Y-110289524D01*
D22*
X145634427Y-102509947D02*
X145634427Y-102984080D01*
X144638747Y-102984080D01*
X145634427Y-101656507D02*
X145634427Y-102225467D01*
X145634427Y-101940987D02*
X144638747Y-101940987D01*
X144780987Y-102035813D01*
X144875813Y-102130640D01*
X144923227Y-102225467D01*
D23*
X140596216Y-102462835D02*
X140596216Y-103033247D01*
X140596216Y-102748041D02*
X139597996Y-102748041D01*
X139740599Y-102843110D01*
X139835667Y-102938178D01*
X139883201Y-103033247D01*
X140596216Y-102035027D02*
X139597996Y-102035027D01*
X140215941Y-101939958D02*
X140596216Y-101654752D01*
X139930736Y-101654752D02*
X140311010Y-102035027D01*
D13*
X137460905Y-126672381D02*
X137460905Y-125672381D01*
X137699000Y-125672381D01*
X137841858Y-125720000D01*
X137937096Y-125815238D01*
X137984715Y-125910476D01*
X138032334Y-126100952D01*
X138032334Y-126243810D01*
X137984715Y-126434286D01*
X137937096Y-126529524D01*
X137841858Y-126624762D01*
X137699000Y-126672381D01*
X137460905Y-126672381D01*
X138984715Y-126672381D02*
X138413286Y-126672381D01*
X138699000Y-126672381D02*
X138699000Y-125672381D01*
X138603762Y-125815238D01*
X138508524Y-125910476D01*
X138413286Y-125958095D01*
D19*
X133311557Y-128185355D02*
X133311557Y-127585915D01*
X133454281Y-127585915D01*
X133539915Y-127614460D01*
X133597004Y-127671550D01*
X133625549Y-127728639D01*
X133654094Y-127842818D01*
X133654094Y-127928452D01*
X133625549Y-128042631D01*
X133597004Y-128099721D01*
X133539915Y-128156810D01*
X133454281Y-128185355D01*
X133311557Y-128185355D01*
X133853907Y-127585915D02*
X134253534Y-127585915D01*
X133996631Y-128185355D01*
X132612210Y-130484055D02*
X132326763Y-130484055D01*
X132326763Y-129884615D01*
X132812024Y-130170063D02*
X133011837Y-130170063D01*
X133097471Y-130484055D02*
X132812024Y-130484055D01*
X132812024Y-129884615D01*
X133097471Y-129884615D01*
X133354374Y-130484055D02*
X133354374Y-129884615D01*
X133497098Y-129884615D01*
X133582732Y-129913160D01*
X133639821Y-129970250D01*
X133668366Y-130027339D01*
X133696911Y-130141518D01*
X133696911Y-130227152D01*
X133668366Y-130341331D01*
X133639821Y-130398421D01*
X133582732Y-130455510D01*
X133497098Y-130484055D01*
X133354374Y-130484055D01*
X133811090Y-130541145D02*
X134267806Y-130541145D01*
X134524709Y-130198608D02*
X134524709Y-130484055D01*
X134324896Y-129884615D02*
X134524709Y-130198608D01*
X134724522Y-129884615D01*
X134924336Y-130170063D02*
X135124149Y-130170063D01*
X135209783Y-130484055D02*
X134924336Y-130484055D01*
X134924336Y-129884615D01*
X135209783Y-129884615D01*
D24*
X151672672Y-136039942D02*
X151672672Y-135539562D01*
X151863293Y-135539562D01*
X151910948Y-135563390D01*
X151934776Y-135587218D01*
X151958604Y-135634873D01*
X151958604Y-135706356D01*
X151934776Y-135754011D01*
X151910948Y-135777839D01*
X151863293Y-135801666D01*
X151672672Y-135801666D01*
X152387501Y-135706356D02*
X152387501Y-136039942D01*
X152268363Y-135515735D02*
X152149224Y-135873149D01*
X152458984Y-135873149D01*
X150517032Y-128938102D02*
X150517032Y-129343172D01*
X150540860Y-129390827D01*
X150564687Y-129414655D01*
X150612343Y-129438482D01*
X150707653Y-129438482D01*
X150755308Y-129414655D01*
X150779136Y-129390827D01*
X150802964Y-129343172D01*
X150802964Y-128938102D01*
X151017412Y-129414655D02*
X151088895Y-129438482D01*
X151208033Y-129438482D01*
X151255689Y-129414655D01*
X151279516Y-129390827D01*
X151303344Y-129343172D01*
X151303344Y-129295517D01*
X151279516Y-129247861D01*
X151255689Y-129224034D01*
X151208033Y-129200206D01*
X151112723Y-129176379D01*
X151065068Y-129152551D01*
X151041240Y-129128723D01*
X151017412Y-129081068D01*
X151017412Y-129033413D01*
X151041240Y-128985758D01*
X151065068Y-128961930D01*
X151112723Y-128938102D01*
X151231861Y-128938102D01*
X151303344Y-128961930D01*
X151684585Y-129176379D02*
X151756068Y-129200206D01*
X151779896Y-129224034D01*
X151803724Y-129271689D01*
X151803724Y-129343172D01*
X151779896Y-129390827D01*
X151756068Y-129414655D01*
X151708413Y-129438482D01*
X151517792Y-129438482D01*
X151517792Y-128938102D01*
X151684585Y-128938102D01*
X151732241Y-128961930D01*
X151756068Y-128985758D01*
X151779896Y-129033413D01*
X151779896Y-129081068D01*
X151756068Y-129128723D01*
X151732241Y-129152551D01*
X151684585Y-129176379D01*
X151517792Y-129176379D01*
X151899034Y-129486138D02*
X152280276Y-129486138D01*
X152494725Y-128938102D02*
X152590035Y-128938102D01*
X152637690Y-128961930D01*
X152685346Y-129009585D01*
X152709173Y-129104896D01*
X152709173Y-129271689D01*
X152685346Y-129367000D01*
X152637690Y-129414655D01*
X152590035Y-129438482D01*
X152494725Y-129438482D01*
X152447069Y-129414655D01*
X152399414Y-129367000D01*
X152375586Y-129271689D01*
X152375586Y-129104896D01*
X152399414Y-129009585D01*
X152447069Y-128961930D01*
X152494725Y-128938102D01*
X152852139Y-128938102D02*
X153138071Y-128938102D01*
X152995105Y-129438482D02*
X152995105Y-128938102D01*
X153566968Y-128961930D02*
X153519313Y-128938102D01*
X153447830Y-128938102D01*
X153376347Y-128961930D01*
X153328692Y-129009585D01*
X153304864Y-129057240D01*
X153281036Y-129152551D01*
X153281036Y-129224034D01*
X153304864Y-129319344D01*
X153328692Y-129367000D01*
X153376347Y-129414655D01*
X153447830Y-129438482D01*
X153495485Y-129438482D01*
X153566968Y-129414655D01*
X153590796Y-129390827D01*
X153590796Y-129224034D01*
X153495485Y-129224034D01*
D13*
X120633381Y-102343905D02*
X121442905Y-102343905D01*
X121538143Y-102296286D01*
X121585762Y-102248667D01*
X121633381Y-102153429D01*
X121633381Y-101962952D01*
X121585762Y-101867714D01*
X121538143Y-101820095D01*
X121442905Y-101772476D01*
X120633381Y-101772476D01*
X121633381Y-100772476D02*
X121633381Y-101343905D01*
X121633381Y-101058191D02*
X120633381Y-101058191D01*
X120776238Y-101153429D01*
X120871476Y-101248667D01*
X120919095Y-101343905D01*
D25*
X149076895Y-118753276D02*
X149734876Y-118753276D01*
X149812286Y-118714571D01*
X149850990Y-118675867D01*
X149889695Y-118598457D01*
X149889695Y-118443638D01*
X149850990Y-118366229D01*
X149812286Y-118327524D01*
X149734876Y-118288819D01*
X149076895Y-118288819D01*
X149154305Y-117940476D02*
X149115600Y-117901771D01*
X149076895Y-117824362D01*
X149076895Y-117630838D01*
X149115600Y-117553428D01*
X149154305Y-117514724D01*
X149231714Y-117476019D01*
X149309124Y-117476019D01*
X149425238Y-117514724D01*
X149889695Y-117979181D01*
X149889695Y-117476019D01*
X147310990Y-121830304D02*
X147349695Y-121714190D01*
X147349695Y-121520666D01*
X147310990Y-121443256D01*
X147272286Y-121404552D01*
X147194876Y-121365847D01*
X147117467Y-121365847D01*
X147040057Y-121404552D01*
X147001352Y-121443256D01*
X146962648Y-121520666D01*
X146923943Y-121675485D01*
X146885238Y-121752894D01*
X146846533Y-121791599D01*
X146769124Y-121830304D01*
X146691714Y-121830304D01*
X146614305Y-121791599D01*
X146575600Y-121752894D01*
X146536895Y-121675485D01*
X146536895Y-121481961D01*
X146575600Y-121365847D01*
X146536895Y-121133618D02*
X146536895Y-120669161D01*
X147349695Y-120901390D02*
X146536895Y-120901390D01*
X147349695Y-120398228D02*
X146536895Y-120398228D01*
X147117467Y-120127295D01*
X146536895Y-119856362D01*
X147349695Y-119856362D01*
X146536895Y-119546724D02*
X146536895Y-119043562D01*
X146846533Y-119314495D01*
X146846533Y-119198381D01*
X146885238Y-119120971D01*
X146923943Y-119082267D01*
X147001352Y-119043562D01*
X147194876Y-119043562D01*
X147272286Y-119082267D01*
X147310990Y-119120971D01*
X147349695Y-119198381D01*
X147349695Y-119430609D01*
X147310990Y-119508019D01*
X147272286Y-119546724D01*
X146614305Y-118733924D02*
X146575600Y-118695219D01*
X146536895Y-118617810D01*
X146536895Y-118424286D01*
X146575600Y-118346876D01*
X146614305Y-118308172D01*
X146691714Y-118269467D01*
X146769124Y-118269467D01*
X146885238Y-118308172D01*
X147349695Y-118772629D01*
X147349695Y-118269467D01*
X146923943Y-117650191D02*
X146923943Y-117921124D01*
X147349695Y-117921124D02*
X146536895Y-117921124D01*
X146536895Y-117534077D01*
X146807829Y-116876095D02*
X147349695Y-116876095D01*
X146498190Y-117069619D02*
X147078762Y-117263143D01*
X147078762Y-116759981D01*
X146536895Y-116295524D02*
X146536895Y-116218115D01*
X146575600Y-116140705D01*
X146614305Y-116102000D01*
X146691714Y-116063296D01*
X146846533Y-116024591D01*
X147040057Y-116024591D01*
X147194876Y-116063296D01*
X147272286Y-116102000D01*
X147310990Y-116140705D01*
X147349695Y-116218115D01*
X147349695Y-116295524D01*
X147310990Y-116372934D01*
X147272286Y-116411638D01*
X147194876Y-116450343D01*
X147040057Y-116489048D01*
X146846533Y-116489048D01*
X146691714Y-116450343D01*
X146614305Y-116411638D01*
X146575600Y-116372934D01*
X146536895Y-116295524D01*
X146536895Y-115289201D02*
X146536895Y-115676248D01*
X146923943Y-115714953D01*
X146885238Y-115676248D01*
X146846533Y-115598839D01*
X146846533Y-115405315D01*
X146885238Y-115327905D01*
X146923943Y-115289201D01*
X147001352Y-115250496D01*
X147194876Y-115250496D01*
X147272286Y-115289201D01*
X147310990Y-115327905D01*
X147349695Y-115405315D01*
X147349695Y-115598839D01*
X147310990Y-115676248D01*
X147272286Y-115714953D01*
X147349695Y-114437696D02*
X146962648Y-114708629D01*
X147349695Y-114902153D02*
X146536895Y-114902153D01*
X146536895Y-114592515D01*
X146575600Y-114515106D01*
X146614305Y-114476401D01*
X146691714Y-114437696D01*
X146807829Y-114437696D01*
X146885238Y-114476401D01*
X146923943Y-114515106D01*
X146962648Y-114592515D01*
X146962648Y-114902153D01*
D24*
X128412682Y-127109242D02*
X128817752Y-127109242D01*
X128865407Y-127085414D01*
X128889235Y-127061587D01*
X128913062Y-127013931D01*
X128913062Y-126918621D01*
X128889235Y-126870966D01*
X128865407Y-126847138D01*
X128817752Y-126823310D01*
X128412682Y-126823310D01*
X128412682Y-126632689D02*
X128412682Y-126322930D01*
X128603303Y-126489723D01*
X128603303Y-126418241D01*
X128627131Y-126370585D01*
X128650959Y-126346758D01*
X128698614Y-126322930D01*
X128817752Y-126322930D01*
X128865407Y-126346758D01*
X128889235Y-126370585D01*
X128913062Y-126418241D01*
X128913062Y-126561206D01*
X128889235Y-126608862D01*
X128865407Y-126632689D01*
X124115002Y-128348277D02*
X123614622Y-128348277D01*
X123972037Y-128181484D01*
X123614622Y-128014690D01*
X124115002Y-128014690D01*
X124067347Y-127490482D02*
X124091175Y-127514310D01*
X124115002Y-127585793D01*
X124115002Y-127633448D01*
X124091175Y-127704931D01*
X124043520Y-127752586D01*
X123995864Y-127776414D01*
X123900554Y-127800242D01*
X123829071Y-127800242D01*
X123733760Y-127776414D01*
X123686105Y-127752586D01*
X123638450Y-127704931D01*
X123614622Y-127633448D01*
X123614622Y-127585793D01*
X123638450Y-127514310D01*
X123662278Y-127490482D01*
X124115002Y-127276034D02*
X123614622Y-127276034D01*
X123614622Y-127085413D01*
X123638450Y-127037758D01*
X123662278Y-127013930D01*
X123709933Y-126990102D01*
X123781416Y-126990102D01*
X123829071Y-127013930D01*
X123852899Y-127037758D01*
X123876726Y-127085413D01*
X123876726Y-127276034D01*
X124115002Y-126513550D02*
X124115002Y-126799482D01*
X124115002Y-126656516D02*
X123614622Y-126656516D01*
X123686105Y-126704171D01*
X123733760Y-126751826D01*
X123757588Y-126799482D01*
X123614622Y-126346757D02*
X123614622Y-126013170D01*
X124115002Y-126227619D01*
X123614622Y-125727239D02*
X123614622Y-125679584D01*
X123638450Y-125631929D01*
X123662278Y-125608101D01*
X123709933Y-125584274D01*
X123805243Y-125560446D01*
X123924381Y-125560446D01*
X124019692Y-125584274D01*
X124067347Y-125608101D01*
X124091175Y-125631929D01*
X124115002Y-125679584D01*
X124115002Y-125727239D01*
X124091175Y-125774895D01*
X124067347Y-125798722D01*
X124019692Y-125822550D01*
X123924381Y-125846378D01*
X123805243Y-125846378D01*
X123709933Y-125822550D01*
X123662278Y-125798722D01*
X123638450Y-125774895D01*
X123614622Y-125727239D01*
X123614622Y-125393653D02*
X123614622Y-125083894D01*
X123805243Y-125250687D01*
X123805243Y-125179205D01*
X123829071Y-125131549D01*
X123852899Y-125107722D01*
X123900554Y-125083894D01*
X124019692Y-125083894D01*
X124067347Y-125107722D01*
X124091175Y-125131549D01*
X124115002Y-125179205D01*
X124115002Y-125322170D01*
X124091175Y-125369826D01*
X124067347Y-125393653D01*
D13*
X137143381Y-123298905D02*
X137952905Y-123298905D01*
X138048143Y-123251286D01*
X138095762Y-123203667D01*
X138143381Y-123108429D01*
X138143381Y-122917952D01*
X138095762Y-122822714D01*
X138048143Y-122775095D01*
X137952905Y-122727476D01*
X137143381Y-122727476D01*
X137476714Y-121822714D02*
X138143381Y-121822714D01*
X137095762Y-122060810D02*
X137810048Y-122298905D01*
X137810048Y-121679857D01*
D26*
X160236524Y-108703071D02*
X159813191Y-108158786D01*
X159510810Y-108703071D02*
X159510810Y-107560071D01*
X159994619Y-107560071D01*
X160115572Y-107614500D01*
X160176048Y-107668929D01*
X160236524Y-107777786D01*
X160236524Y-107941071D01*
X160176048Y-108049929D01*
X160115572Y-108104357D01*
X159994619Y-108158786D01*
X159510810Y-108158786D01*
X160720334Y-108648643D02*
X160901762Y-108703071D01*
X161204143Y-108703071D01*
X161325096Y-108648643D01*
X161385572Y-108594214D01*
X161446048Y-108485357D01*
X161446048Y-108376500D01*
X161385572Y-108267643D01*
X161325096Y-108213214D01*
X161204143Y-108158786D01*
X160962239Y-108104357D01*
X160841286Y-108049929D01*
X160780810Y-107995500D01*
X160720334Y-107886643D01*
X160720334Y-107777786D01*
X160780810Y-107668929D01*
X160841286Y-107614500D01*
X160962239Y-107560071D01*
X161264619Y-107560071D01*
X161446048Y-107614500D01*
X161808905Y-107560071D02*
X162534620Y-107560071D01*
X162171763Y-108703071D02*
X162171763Y-107560071D01*
X158966524Y-122005051D02*
X158543191Y-121460766D01*
X158240810Y-122005051D02*
X158240810Y-120862051D01*
X158724619Y-120862051D01*
X158845572Y-120916480D01*
X158906048Y-120970909D01*
X158966524Y-121079766D01*
X158966524Y-121243051D01*
X158906048Y-121351909D01*
X158845572Y-121406337D01*
X158724619Y-121460766D01*
X158240810Y-121460766D01*
X160115572Y-122005051D02*
X159510810Y-122005051D01*
X159510810Y-120862051D01*
X160780810Y-120862051D02*
X161022714Y-120862051D01*
X161143667Y-120916480D01*
X161264619Y-121025337D01*
X161325095Y-121243051D01*
X161325095Y-121624051D01*
X161264619Y-121841766D01*
X161143667Y-121950623D01*
X161022714Y-122005051D01*
X160780810Y-122005051D01*
X160659857Y-121950623D01*
X160538905Y-121841766D01*
X160478429Y-121624051D01*
X160478429Y-121243051D01*
X160538905Y-121025337D01*
X160659857Y-120916480D01*
X160780810Y-120862051D01*
X162595095Y-122005051D02*
X162171762Y-121460766D01*
X161869381Y-122005051D02*
X161869381Y-120862051D01*
X162353190Y-120862051D01*
X162474143Y-120916480D01*
X162534619Y-120970909D01*
X162595095Y-121079766D01*
X162595095Y-121243051D01*
X162534619Y-121351909D01*
X162474143Y-121406337D01*
X162353190Y-121460766D01*
X161869381Y-121460766D01*
X163078905Y-121678480D02*
X163683667Y-121678480D01*
X162957952Y-122005051D02*
X163381286Y-120862051D01*
X163804619Y-122005051D01*
X159329381Y-114512051D02*
X159329381Y-115437337D01*
X159389857Y-115546194D01*
X159450333Y-115600623D01*
X159571286Y-115655051D01*
X159813190Y-115655051D01*
X159934143Y-115600623D01*
X159994619Y-115546194D01*
X160055095Y-115437337D01*
X160055095Y-114512051D01*
X160599381Y-115600623D02*
X160780809Y-115655051D01*
X161083190Y-115655051D01*
X161204143Y-115600623D01*
X161264619Y-115546194D01*
X161325095Y-115437337D01*
X161325095Y-115328480D01*
X161264619Y-115219623D01*
X161204143Y-115165194D01*
X161083190Y-115110766D01*
X160841286Y-115056337D01*
X160720333Y-115001909D01*
X160659857Y-114947480D01*
X160599381Y-114838623D01*
X160599381Y-114729766D01*
X160659857Y-114620909D01*
X160720333Y-114566480D01*
X160841286Y-114512051D01*
X161143666Y-114512051D01*
X161325095Y-114566480D01*
X162595095Y-115655051D02*
X162171762Y-115110766D01*
X161869381Y-115655051D02*
X161869381Y-114512051D01*
X162353190Y-114512051D01*
X162474143Y-114566480D01*
X162534619Y-114620909D01*
X162595095Y-114729766D01*
X162595095Y-114893051D01*
X162534619Y-115001909D01*
X162474143Y-115056337D01*
X162353190Y-115110766D01*
X161869381Y-115110766D01*
D13*
X103562667Y-92447381D02*
X103229333Y-91971190D01*
X102991238Y-92447381D02*
X102991238Y-91447381D01*
X103372191Y-91447381D01*
X103467429Y-91495000D01*
X103515048Y-91542619D01*
X103562667Y-91637857D01*
X103562667Y-91780714D01*
X103515048Y-91875952D01*
X103467429Y-91923571D01*
X103372191Y-91971190D01*
X102991238Y-91971190D01*
X103991238Y-91923571D02*
X104324572Y-91923571D01*
X104467429Y-92447381D02*
X103991238Y-92447381D01*
X103991238Y-91447381D01*
X104467429Y-91447381D01*
X105229334Y-91923571D02*
X104896000Y-91923571D01*
X104896000Y-92447381D02*
X104896000Y-91447381D01*
X105372191Y-91447381D01*
X105896000Y-91447381D02*
X105896000Y-91685476D01*
X105657905Y-91590238D02*
X105896000Y-91685476D01*
X106134096Y-91590238D01*
X105753143Y-91875952D02*
X105896000Y-91685476D01*
X106038858Y-91875952D01*
X106657905Y-91447381D02*
X106657905Y-91685476D01*
X106419810Y-91590238D02*
X106657905Y-91685476D01*
X106896001Y-91590238D01*
X106515048Y-91875952D02*
X106657905Y-91685476D01*
X106800763Y-91875952D01*
M02*
