G04 #@! TF.FileFunction,Soldermask,Top*
%FSLAX46Y46*%
G04 Gerber Fmt 4.6, Leading zero omitted, Abs format (unit mm)*
G04 Created by KiCad (PCBNEW 4.0.2-stable) date Mon 29 Aug 2016 22:28:05 CEST*
%MOMM*%
G01*
G04 APERTURE LIST*
%ADD10C,0.100000*%
%ADD11R,1.197560X1.197560*%
%ADD12R,2.340000X1.190000*%
%ADD13R,1.190000X1.140000*%
%ADD14R,1.800000X1.600000*%
%ADD15R,1.000000X0.900000*%
%ADD16R,0.900000X1.000000*%
%ADD17R,1.000000X0.800000*%
%ADD18R,0.800000X1.000000*%
%ADD19R,2.099260X1.598880*%
%ADD20O,2.099260X1.598880*%
%ADD21R,1.200100X1.200100*%
%ADD22R,2.127200X2.432000*%
%ADD23O,2.127200X2.432000*%
%ADD24R,1.620000X1.310000*%
%ADD25R,1.700000X1.100000*%
%ADD26R,1.800000X1.850000*%
%ADD27R,1.250000X1.350000*%
%ADD28R,1.000000X1.400000*%
%ADD29R,4.190000X1.600000*%
%ADD30R,1.400000X1.950000*%
%ADD31R,2.940000X1.416000*%
%ADD32R,1.310000X1.620000*%
%ADD33R,2.297380X2.297380*%
%ADD34R,0.798780X1.748740*%
%ADD35R,0.798780X1.746200*%
%ADD36C,1.197560*%
%ADD37R,1.416000X1.924000*%
%ADD38R,1.924000X1.416000*%
%ADD39R,1.800000X0.700000*%
%ADD40R,0.700000X1.800000*%
%ADD41R,0.886460X0.434340*%
%ADD42R,1.884680X1.584960*%
%ADD43R,1.400760X0.999440*%
%ADD44R,1.300000X1.400000*%
%ADD45C,3.900120*%
%ADD46C,2.540000*%
G04 APERTURE END LIST*
D10*
D11*
X153820000Y-97518000D03*
X155318600Y-97518000D03*
X153820000Y-95994000D03*
X155318600Y-95994000D03*
X153820000Y-94470000D03*
X155318600Y-94470000D03*
X153820000Y-92946000D03*
X155318600Y-92946000D03*
D12*
X88287000Y-107883000D03*
X88287000Y-104933000D03*
D13*
X89812000Y-106408000D03*
D14*
X147955500Y-105506500D03*
X145755500Y-105506500D03*
X147955500Y-107106500D03*
X145755500Y-107106500D03*
D15*
X154032000Y-110472000D03*
X155132000Y-110472000D03*
X147617500Y-103804500D03*
X146517500Y-103804500D03*
X146412000Y-108948000D03*
X147512000Y-108948000D03*
X126388000Y-116822000D03*
X127488000Y-116822000D03*
D16*
X150391000Y-105519000D03*
X150391000Y-104419000D03*
X153185000Y-105519000D03*
X153185000Y-104419000D03*
D15*
X139892000Y-121648000D03*
X138792000Y-121648000D03*
D16*
X130833000Y-111912000D03*
X130833000Y-113012000D03*
X129309000Y-121732000D03*
X129309000Y-120632000D03*
D15*
X126388000Y-118092000D03*
X127488000Y-118092000D03*
X124906000Y-115552000D03*
X123806000Y-115552000D03*
D16*
X128928000Y-117203000D03*
X128928000Y-116103000D03*
D15*
X124948000Y-116822000D03*
X123848000Y-116822000D03*
X124948000Y-119362000D03*
X123848000Y-119362000D03*
X124948000Y-118092000D03*
X123848000Y-118092000D03*
X126304000Y-119362000D03*
X127404000Y-119362000D03*
X126388000Y-115552000D03*
X127488000Y-115552000D03*
D17*
X139342000Y-129580000D03*
X139342000Y-130480000D03*
X136802000Y-129638000D03*
X136802000Y-130538000D03*
X134262000Y-91560000D03*
X134262000Y-90660000D03*
X136802000Y-91560000D03*
X136802000Y-90660000D03*
X144422000Y-90660000D03*
X144422000Y-91560000D03*
X146962000Y-90660000D03*
X146962000Y-91560000D03*
X149502000Y-127617000D03*
X149502000Y-128517000D03*
X151153000Y-127606000D03*
X151153000Y-128506000D03*
X152232500Y-127606000D03*
X152232500Y-128506000D03*
D18*
X151407000Y-97518000D03*
X152307000Y-97518000D03*
D17*
X154074000Y-127548000D03*
X154074000Y-128448000D03*
D18*
X153936000Y-125839000D03*
X154836000Y-125839000D03*
X151407000Y-95994000D03*
X152307000Y-95994000D03*
X151396000Y-94470000D03*
X152296000Y-94470000D03*
X151396000Y-92946000D03*
X152296000Y-92946000D03*
D17*
X99707000Y-126612000D03*
X99707000Y-125712000D03*
D16*
X157122000Y-110726000D03*
X157122000Y-109626000D03*
D15*
X142094000Y-105011000D03*
X143194000Y-105011000D03*
X142136000Y-106154000D03*
X143236000Y-106154000D03*
D19*
X130960000Y-121140000D03*
D20*
X130960000Y-119138480D03*
D17*
X102766000Y-125469000D03*
X102766000Y-124569000D03*
X97813000Y-125712000D03*
X97813000Y-126612000D03*
X101242000Y-122294000D03*
X101242000Y-121394000D03*
D21*
X97818000Y-123680000D03*
X99718000Y-123680000D03*
X98768000Y-121681020D03*
X102766000Y-121394000D03*
X102766000Y-123294000D03*
X104764980Y-122344000D03*
X116482000Y-129268000D03*
X116482000Y-127368000D03*
X114483020Y-128318000D03*
D18*
X134897000Y-119997000D03*
X133997000Y-119997000D03*
D17*
X132738000Y-123114000D03*
X132738000Y-122214000D03*
D18*
X120800000Y-127236000D03*
X119900000Y-127236000D03*
D17*
X118260000Y-127236000D03*
X118260000Y-128136000D03*
D18*
X156106000Y-119489000D03*
X157006000Y-119489000D03*
D22*
X96162000Y-87358000D03*
D23*
X98702000Y-87358000D03*
X101242000Y-87358000D03*
X103782000Y-87358000D03*
X106322000Y-87358000D03*
X108862000Y-87358000D03*
X111402000Y-87358000D03*
X113942000Y-87358000D03*
X116482000Y-87358000D03*
X119022000Y-87358000D03*
X121562000Y-87358000D03*
X124102000Y-87358000D03*
X126642000Y-87358000D03*
X129182000Y-87358000D03*
X131722000Y-87358000D03*
X134262000Y-87358000D03*
X136802000Y-87358000D03*
X139342000Y-87358000D03*
X141882000Y-87358000D03*
X144422000Y-87358000D03*
X146962000Y-87358000D03*
X149502000Y-87358000D03*
X152042000Y-87358000D03*
X154582000Y-87358000D03*
X157122000Y-87358000D03*
D12*
X88287000Y-112963000D03*
X88287000Y-110013000D03*
D13*
X89812000Y-111488000D03*
D24*
X130579000Y-127077000D03*
X130579000Y-123807000D03*
D25*
X160932000Y-104458000D03*
X160932000Y-103358000D03*
X160932000Y-102258000D03*
X160932000Y-101158000D03*
X160932000Y-100058000D03*
X160932000Y-98958000D03*
X160932000Y-97858000D03*
X160932000Y-96758000D03*
D26*
X162632000Y-95133000D03*
D27*
X164857000Y-95833000D03*
D28*
X163882000Y-94908000D03*
D29*
X163392000Y-105688000D03*
D17*
X111402000Y-130988000D03*
X111402000Y-130088000D03*
D30*
X150391000Y-107297000D03*
X152991000Y-107297000D03*
D17*
X125118000Y-113012000D03*
X125118000Y-113912000D03*
D31*
X142644000Y-101201000D03*
X142644000Y-103487000D03*
D32*
X132897000Y-126093000D03*
X136167000Y-126093000D03*
D11*
X133004700Y-129014000D03*
X134503300Y-129014000D03*
D22*
X96162000Y-133078000D03*
D23*
X98702000Y-133078000D03*
X101242000Y-133078000D03*
X103782000Y-133078000D03*
X106322000Y-133078000D03*
X108862000Y-133078000D03*
X111402000Y-133078000D03*
X113942000Y-133078000D03*
X116482000Y-133078000D03*
X119022000Y-133078000D03*
X121562000Y-133078000D03*
X124102000Y-133078000D03*
X126642000Y-133078000D03*
X129182000Y-133078000D03*
X131722000Y-133078000D03*
X134262000Y-133078000D03*
X136802000Y-133078000D03*
X139342000Y-133078000D03*
X141882000Y-133078000D03*
X144422000Y-133078000D03*
D33*
X150843120Y-133212620D03*
X153240880Y-133212620D03*
X155991700Y-133212620D03*
X148092300Y-133212620D03*
D34*
X150741520Y-130538000D03*
D35*
X151394300Y-130538000D03*
X152042000Y-130538000D03*
X152689700Y-130538000D03*
X153342480Y-130538000D03*
D36*
X153939380Y-131066320D03*
X150142080Y-131063780D03*
D37*
X119022000Y-117838000D03*
X117752000Y-117838000D03*
X116482000Y-117838000D03*
X115212000Y-117838000D03*
X113942000Y-117838000D03*
X112672000Y-117838000D03*
X111402000Y-117838000D03*
X110132000Y-117838000D03*
X108862000Y-117838000D03*
X107592000Y-117838000D03*
X106322000Y-117838000D03*
X105052000Y-117838000D03*
X103782000Y-117838000D03*
X102512000Y-117838000D03*
X101242000Y-117838000D03*
X99972000Y-117838000D03*
X98702000Y-117838000D03*
X97432000Y-117838000D03*
X96162000Y-117838000D03*
X94892000Y-117838000D03*
X94892000Y-100058000D03*
D38*
X93622000Y-112758000D03*
X93622000Y-111488000D03*
X93622000Y-110218000D03*
X93622000Y-108948000D03*
X93622000Y-107678000D03*
X93622000Y-106408000D03*
X93622000Y-105138000D03*
D37*
X96162000Y-100058000D03*
X97432000Y-100058000D03*
X98702000Y-100058000D03*
X99972000Y-100058000D03*
X101242000Y-100058000D03*
X102512000Y-100058000D03*
X103782000Y-100058000D03*
X105052000Y-100058000D03*
X106322000Y-100058000D03*
X107592000Y-100058000D03*
X108862000Y-100058000D03*
X110132000Y-100058000D03*
X111402000Y-100058000D03*
X112672000Y-100058000D03*
X113942000Y-100058000D03*
X115212000Y-100058000D03*
X116482000Y-100058000D03*
X117752000Y-100058000D03*
X119022000Y-100058000D03*
D39*
X154052000Y-115884000D03*
X154052000Y-114384000D03*
X154052000Y-114884000D03*
X154052000Y-115384000D03*
X154052000Y-116384000D03*
X154052000Y-116884000D03*
X154052000Y-117384000D03*
X154052000Y-117884000D03*
X154052000Y-118384000D03*
X154052000Y-118884000D03*
X154052000Y-119384000D03*
X154052000Y-119884000D03*
X154052000Y-120384000D03*
X154052000Y-120884000D03*
X154052000Y-121384000D03*
X154052000Y-121884000D03*
D40*
X146002000Y-123934000D03*
X144502000Y-123934000D03*
X145002000Y-123934000D03*
X145502000Y-123934000D03*
X146502000Y-123934000D03*
X147002000Y-123934000D03*
X147502000Y-123934000D03*
X148002000Y-123934000D03*
X148502000Y-123934000D03*
X149002000Y-123934000D03*
X149502000Y-123934000D03*
X150002000Y-123934000D03*
X150502000Y-123934000D03*
X151002000Y-123934000D03*
X151502000Y-123934000D03*
X152002000Y-123934000D03*
D39*
X142452000Y-121884000D03*
X142452000Y-121384000D03*
X142452000Y-120884000D03*
X142452000Y-120384000D03*
X142452000Y-119884000D03*
X142452000Y-119384000D03*
X142452000Y-118884000D03*
X142452000Y-118384000D03*
X142452000Y-117884000D03*
X142452000Y-117384000D03*
X142452000Y-116884000D03*
X142452000Y-116384000D03*
X142452000Y-115384000D03*
X142452000Y-114884000D03*
X142452000Y-114384000D03*
X142452000Y-115884000D03*
D40*
X150502000Y-112334000D03*
X152002000Y-112334000D03*
X151502000Y-112334000D03*
X151002000Y-112334000D03*
X150002000Y-112334000D03*
X149502000Y-112334000D03*
X149002000Y-112334000D03*
X148502000Y-112334000D03*
X148002000Y-112334000D03*
X147502000Y-112334000D03*
X147002000Y-112334000D03*
X146502000Y-112334000D03*
X146002000Y-112334000D03*
X145502000Y-112334000D03*
X145002000Y-112334000D03*
X144502000Y-112334000D03*
D41*
X124940200Y-125978700D03*
X124940200Y-126481620D03*
X124940200Y-126974380D03*
X124940200Y-127477300D03*
X127835800Y-127477300D03*
X127835800Y-126974380D03*
X127835800Y-126481620D03*
X127835800Y-125978700D03*
D42*
X126388000Y-126728000D03*
D43*
X134053720Y-121648000D03*
X134053720Y-123553000D03*
X134053720Y-122600500D03*
X136167000Y-123553000D03*
X136167000Y-121648000D03*
D44*
X158657000Y-112288000D03*
X163207000Y-110688000D03*
X158657000Y-110688000D03*
X163207000Y-112288000D03*
X158657000Y-124988000D03*
X163207000Y-123388000D03*
X158657000Y-123388000D03*
X163207000Y-124988000D03*
X158657000Y-118638000D03*
X163207000Y-117038000D03*
X158657000Y-117038000D03*
X163207000Y-118638000D03*
D45*
X91003260Y-130616740D03*
X91003260Y-90616820D03*
X161003120Y-90616820D03*
X161003120Y-130616740D03*
D46*
X87907000Y-133586000D03*
X163853000Y-87739000D03*
X101496000Y-91295000D03*
M02*
