G04 #@! TF.FileFunction,Copper,L1,Top,Signal*
%FSLAX46Y46*%
G04 Gerber Fmt 4.6, Leading zero omitted, Abs format (unit mm)*
G04 Created by KiCad (PCBNEW 4.0.2-stable) date Mon 29 Aug 2016 22:28:05 CEST*
%MOMM*%
G01*
G04 APERTURE LIST*
%ADD10C,0.100000*%
%ADD11R,0.797560X0.797560*%
%ADD12R,2.200000X1.050000*%
%ADD13R,1.050000X1.000000*%
%ADD14R,1.400000X1.200000*%
%ADD15R,0.600000X0.500000*%
%ADD16R,0.500000X0.600000*%
%ADD17R,0.600000X0.400000*%
%ADD18R,0.400000X0.600000*%
%ADD19R,1.699260X1.198880*%
%ADD20O,1.699260X1.198880*%
%ADD21R,0.800100X0.800100*%
%ADD22R,1.727200X2.032000*%
%ADD23O,1.727200X2.032000*%
%ADD24R,1.220000X0.910000*%
%ADD25R,1.300000X0.700000*%
%ADD26R,1.400000X1.450000*%
%ADD27R,0.850000X0.950000*%
%ADD28R,0.600000X1.000000*%
%ADD29R,3.790000X1.200000*%
%ADD30R,1.000000X1.550000*%
%ADD31R,2.540000X1.016000*%
%ADD32R,0.910000X1.220000*%
%ADD33R,1.897380X1.897380*%
%ADD34R,0.398780X1.348740*%
%ADD35R,0.398780X1.346200*%
%ADD36R,1.016000X1.524000*%
%ADD37R,1.524000X1.016000*%
%ADD38R,1.400000X0.300000*%
%ADD39R,0.300000X1.400000*%
%ADD40R,0.749300X0.297180*%
%ADD41R,1.747520X1.447800*%
%ADD42R,1.000760X0.599440*%
%ADD43R,0.900000X1.000000*%
%ADD44C,1.000000*%
%ADD45C,0.685800*%
%ADD46C,0.300000*%
%ADD47C,0.152400*%
%ADD48C,0.500000*%
%ADD49C,0.850000*%
%ADD50C,0.254000*%
G04 APERTURE END LIST*
D10*
D11*
X153820000Y-97518000D03*
X155318600Y-97518000D03*
X153820000Y-95994000D03*
X155318600Y-95994000D03*
X153820000Y-94470000D03*
X155318600Y-94470000D03*
X153820000Y-92946000D03*
X155318600Y-92946000D03*
D12*
X88287000Y-107883000D03*
X88287000Y-104933000D03*
D13*
X89812000Y-106408000D03*
D14*
X147955500Y-105506500D03*
X145755500Y-105506500D03*
X147955500Y-107106500D03*
X145755500Y-107106500D03*
D15*
X154032000Y-110472000D03*
X155132000Y-110472000D03*
X147617500Y-103804500D03*
X146517500Y-103804500D03*
X146412000Y-108948000D03*
X147512000Y-108948000D03*
X126388000Y-116822000D03*
X127488000Y-116822000D03*
D16*
X150391000Y-105519000D03*
X150391000Y-104419000D03*
X153185000Y-105519000D03*
X153185000Y-104419000D03*
D15*
X139892000Y-121648000D03*
X138792000Y-121648000D03*
D16*
X130833000Y-111912000D03*
X130833000Y-113012000D03*
X129309000Y-121732000D03*
X129309000Y-120632000D03*
D15*
X126388000Y-118092000D03*
X127488000Y-118092000D03*
X124906000Y-115552000D03*
X123806000Y-115552000D03*
D16*
X128928000Y-117203000D03*
X128928000Y-116103000D03*
D15*
X124948000Y-116822000D03*
X123848000Y-116822000D03*
X124948000Y-119362000D03*
X123848000Y-119362000D03*
X124948000Y-118092000D03*
X123848000Y-118092000D03*
X126304000Y-119362000D03*
X127404000Y-119362000D03*
X126388000Y-115552000D03*
X127488000Y-115552000D03*
D17*
X139342000Y-129580000D03*
X139342000Y-130480000D03*
X136802000Y-129638000D03*
X136802000Y-130538000D03*
X134262000Y-91560000D03*
X134262000Y-90660000D03*
X136802000Y-91560000D03*
X136802000Y-90660000D03*
X144422000Y-90660000D03*
X144422000Y-91560000D03*
X146962000Y-90660000D03*
X146962000Y-91560000D03*
X149502000Y-127617000D03*
X149502000Y-128517000D03*
X151153000Y-127606000D03*
X151153000Y-128506000D03*
X152232500Y-127606000D03*
X152232500Y-128506000D03*
D18*
X151407000Y-97518000D03*
X152307000Y-97518000D03*
D17*
X154074000Y-127548000D03*
X154074000Y-128448000D03*
D18*
X153936000Y-125839000D03*
X154836000Y-125839000D03*
X151407000Y-95994000D03*
X152307000Y-95994000D03*
X151396000Y-94470000D03*
X152296000Y-94470000D03*
X151396000Y-92946000D03*
X152296000Y-92946000D03*
D17*
X99707000Y-126612000D03*
X99707000Y-125712000D03*
D16*
X157122000Y-110726000D03*
X157122000Y-109626000D03*
D15*
X142094000Y-105011000D03*
X143194000Y-105011000D03*
X142136000Y-106154000D03*
X143236000Y-106154000D03*
D19*
X130960000Y-121140000D03*
D20*
X130960000Y-119138480D03*
D17*
X102766000Y-125469000D03*
X102766000Y-124569000D03*
X97813000Y-125712000D03*
X97813000Y-126612000D03*
X101242000Y-122294000D03*
X101242000Y-121394000D03*
D21*
X97818000Y-123680000D03*
X99718000Y-123680000D03*
X98768000Y-121681020D03*
X102766000Y-121394000D03*
X102766000Y-123294000D03*
X104764980Y-122344000D03*
X116482000Y-129268000D03*
X116482000Y-127368000D03*
X114483020Y-128318000D03*
D18*
X134897000Y-119997000D03*
X133997000Y-119997000D03*
D17*
X132738000Y-123114000D03*
X132738000Y-122214000D03*
D18*
X120800000Y-127236000D03*
X119900000Y-127236000D03*
D17*
X118260000Y-127236000D03*
X118260000Y-128136000D03*
D18*
X156106000Y-119489000D03*
X157006000Y-119489000D03*
D22*
X96162000Y-87358000D03*
D23*
X98702000Y-87358000D03*
X101242000Y-87358000D03*
X103782000Y-87358000D03*
X106322000Y-87358000D03*
X108862000Y-87358000D03*
X111402000Y-87358000D03*
X113942000Y-87358000D03*
X116482000Y-87358000D03*
X119022000Y-87358000D03*
X121562000Y-87358000D03*
X124102000Y-87358000D03*
X126642000Y-87358000D03*
X129182000Y-87358000D03*
X131722000Y-87358000D03*
X134262000Y-87358000D03*
X136802000Y-87358000D03*
X139342000Y-87358000D03*
X141882000Y-87358000D03*
X144422000Y-87358000D03*
X146962000Y-87358000D03*
X149502000Y-87358000D03*
X152042000Y-87358000D03*
X154582000Y-87358000D03*
X157122000Y-87358000D03*
D12*
X88287000Y-112963000D03*
X88287000Y-110013000D03*
D13*
X89812000Y-111488000D03*
D24*
X130579000Y-127077000D03*
X130579000Y-123807000D03*
D25*
X160932000Y-104458000D03*
X160932000Y-103358000D03*
X160932000Y-102258000D03*
X160932000Y-101158000D03*
X160932000Y-100058000D03*
X160932000Y-98958000D03*
X160932000Y-97858000D03*
X160932000Y-96758000D03*
D26*
X162632000Y-95133000D03*
D27*
X164857000Y-95833000D03*
D28*
X163882000Y-94908000D03*
D29*
X163392000Y-105688000D03*
D17*
X111402000Y-130988000D03*
X111402000Y-130088000D03*
D30*
X150391000Y-107297000D03*
X152991000Y-107297000D03*
D17*
X125118000Y-113012000D03*
X125118000Y-113912000D03*
D31*
X142644000Y-101201000D03*
X142644000Y-103487000D03*
D32*
X132897000Y-126093000D03*
X136167000Y-126093000D03*
D11*
X133004700Y-129014000D03*
X134503300Y-129014000D03*
D22*
X96162000Y-133078000D03*
D23*
X98702000Y-133078000D03*
X101242000Y-133078000D03*
X103782000Y-133078000D03*
X106322000Y-133078000D03*
X108862000Y-133078000D03*
X111402000Y-133078000D03*
X113942000Y-133078000D03*
X116482000Y-133078000D03*
X119022000Y-133078000D03*
X121562000Y-133078000D03*
X124102000Y-133078000D03*
X126642000Y-133078000D03*
X129182000Y-133078000D03*
X131722000Y-133078000D03*
X134262000Y-133078000D03*
X136802000Y-133078000D03*
X139342000Y-133078000D03*
X141882000Y-133078000D03*
X144422000Y-133078000D03*
D33*
X150843120Y-133212620D03*
X153240880Y-133212620D03*
X155991700Y-133212620D03*
X148092300Y-133212620D03*
D34*
X150741520Y-130538000D03*
D35*
X151394300Y-130538000D03*
X152042000Y-130538000D03*
X152689700Y-130538000D03*
X153342480Y-130538000D03*
D36*
X119022000Y-117838000D03*
X117752000Y-117838000D03*
X116482000Y-117838000D03*
X115212000Y-117838000D03*
X113942000Y-117838000D03*
X112672000Y-117838000D03*
X111402000Y-117838000D03*
X110132000Y-117838000D03*
X108862000Y-117838000D03*
X107592000Y-117838000D03*
X106322000Y-117838000D03*
X105052000Y-117838000D03*
X103782000Y-117838000D03*
X102512000Y-117838000D03*
X101242000Y-117838000D03*
X99972000Y-117838000D03*
X98702000Y-117838000D03*
X97432000Y-117838000D03*
X96162000Y-117838000D03*
X94892000Y-117838000D03*
X94892000Y-100058000D03*
D37*
X93622000Y-112758000D03*
X93622000Y-111488000D03*
X93622000Y-110218000D03*
X93622000Y-108948000D03*
X93622000Y-107678000D03*
X93622000Y-106408000D03*
X93622000Y-105138000D03*
D36*
X96162000Y-100058000D03*
X97432000Y-100058000D03*
X98702000Y-100058000D03*
X99972000Y-100058000D03*
X101242000Y-100058000D03*
X102512000Y-100058000D03*
X103782000Y-100058000D03*
X105052000Y-100058000D03*
X106322000Y-100058000D03*
X107592000Y-100058000D03*
X108862000Y-100058000D03*
X110132000Y-100058000D03*
X111402000Y-100058000D03*
X112672000Y-100058000D03*
X113942000Y-100058000D03*
X115212000Y-100058000D03*
X116482000Y-100058000D03*
X117752000Y-100058000D03*
X119022000Y-100058000D03*
D38*
X154052000Y-115884000D03*
X154052000Y-114384000D03*
X154052000Y-114884000D03*
X154052000Y-115384000D03*
X154052000Y-116384000D03*
X154052000Y-116884000D03*
X154052000Y-117384000D03*
X154052000Y-117884000D03*
X154052000Y-118384000D03*
X154052000Y-118884000D03*
X154052000Y-119384000D03*
X154052000Y-119884000D03*
X154052000Y-120384000D03*
X154052000Y-120884000D03*
X154052000Y-121384000D03*
X154052000Y-121884000D03*
D39*
X146002000Y-123934000D03*
X144502000Y-123934000D03*
X145002000Y-123934000D03*
X145502000Y-123934000D03*
X146502000Y-123934000D03*
X147002000Y-123934000D03*
X147502000Y-123934000D03*
X148002000Y-123934000D03*
X148502000Y-123934000D03*
X149002000Y-123934000D03*
X149502000Y-123934000D03*
X150002000Y-123934000D03*
X150502000Y-123934000D03*
X151002000Y-123934000D03*
X151502000Y-123934000D03*
X152002000Y-123934000D03*
D38*
X142452000Y-121884000D03*
X142452000Y-121384000D03*
X142452000Y-120884000D03*
X142452000Y-120384000D03*
X142452000Y-119884000D03*
X142452000Y-119384000D03*
X142452000Y-118884000D03*
X142452000Y-118384000D03*
X142452000Y-117884000D03*
X142452000Y-117384000D03*
X142452000Y-116884000D03*
X142452000Y-116384000D03*
X142452000Y-115384000D03*
X142452000Y-114884000D03*
X142452000Y-114384000D03*
X142452000Y-115884000D03*
D39*
X150502000Y-112334000D03*
X152002000Y-112334000D03*
X151502000Y-112334000D03*
X151002000Y-112334000D03*
X150002000Y-112334000D03*
X149502000Y-112334000D03*
X149002000Y-112334000D03*
X148502000Y-112334000D03*
X148002000Y-112334000D03*
X147502000Y-112334000D03*
X147002000Y-112334000D03*
X146502000Y-112334000D03*
X146002000Y-112334000D03*
X145502000Y-112334000D03*
X145002000Y-112334000D03*
X144502000Y-112334000D03*
D40*
X124940200Y-125978700D03*
X124940200Y-126481620D03*
X124940200Y-126974380D03*
X124940200Y-127477300D03*
X127835800Y-127477300D03*
X127835800Y-126974380D03*
X127835800Y-126481620D03*
X127835800Y-125978700D03*
D41*
X126388000Y-126728000D03*
D42*
X134053720Y-121648000D03*
X134053720Y-123553000D03*
X134053720Y-122600500D03*
X136167000Y-123553000D03*
X136167000Y-121648000D03*
D43*
X158657000Y-112288000D03*
X163207000Y-110688000D03*
X158657000Y-110688000D03*
X163207000Y-112288000D03*
X158657000Y-124988000D03*
X163207000Y-123388000D03*
X158657000Y-123388000D03*
X163207000Y-124988000D03*
X158657000Y-118638000D03*
X163207000Y-117038000D03*
X158657000Y-117038000D03*
X163207000Y-118638000D03*
D44*
X87907000Y-133586000D03*
X163853000Y-87739000D03*
X101496000Y-91295000D03*
D45*
X126436159Y-115503841D03*
X132230000Y-114409000D03*
X129784836Y-114320142D03*
X126896000Y-113774000D03*
X154523014Y-123863624D03*
X153315756Y-123006170D03*
X138402735Y-118771532D03*
X139342000Y-115552000D03*
X159154000Y-107678000D03*
X159408000Y-102344000D03*
X159154000Y-100058000D03*
X97813000Y-126612000D03*
X111402000Y-117838000D03*
X123848000Y-116822000D03*
X106322000Y-100058000D03*
X141755000Y-123908600D03*
X138707000Y-124670600D03*
X144263651Y-114938068D03*
X138792000Y-121648000D03*
X134053720Y-122600500D03*
X133997000Y-119997000D03*
X129309000Y-120632000D03*
X128928000Y-116103000D03*
X127488000Y-116822000D03*
X127488000Y-118092000D03*
X127404000Y-119362000D03*
X123848000Y-118092000D03*
X123848000Y-119362000D03*
X124737000Y-128252000D03*
X97818000Y-123680000D03*
X119022000Y-111361000D03*
X163207000Y-123388000D03*
X163207000Y-117038000D03*
X163207000Y-110688000D03*
X156741000Y-130214781D03*
X146321105Y-114024093D03*
X145946000Y-131300000D03*
X141120000Y-131300000D03*
X138072000Y-131300000D03*
X138072000Y-129638000D03*
X93622000Y-111488000D03*
X93622000Y-106408000D03*
X94892000Y-100058000D03*
X119022000Y-117838000D03*
X119022000Y-100058000D03*
X151534000Y-105646000D03*
X147955500Y-107106500D03*
X145630874Y-105631126D03*
X93622000Y-112758000D03*
X93622000Y-108948000D03*
X93622000Y-105138000D03*
X156487000Y-92882500D03*
X162632000Y-95133000D03*
X163392000Y-105688000D03*
X94892000Y-117838000D03*
X101242000Y-117838000D03*
X110132000Y-100058000D03*
X134135000Y-117203000D03*
X134411608Y-126610533D03*
X148520043Y-114057430D03*
X114790645Y-129613278D03*
X149045605Y-108896395D03*
X152791181Y-109456290D03*
X147978000Y-110345000D03*
X138072000Y-94470000D03*
X121307353Y-114195703D03*
X147923070Y-111209321D03*
X119784000Y-124442000D03*
X119784000Y-120632000D03*
X131775232Y-94016040D03*
X133173090Y-103733161D03*
X138590937Y-97419071D03*
X140590087Y-109716910D03*
X150010000Y-119306574D03*
X152296000Y-119120468D03*
X150162400Y-118117400D03*
X139213169Y-98070420D03*
X141395721Y-109948325D03*
X152952140Y-112971994D03*
X151986105Y-115689320D03*
X152453877Y-117367824D03*
X136802000Y-89644000D03*
X138229502Y-114458155D03*
X137926157Y-119461077D03*
X141374000Y-105646000D03*
X143152000Y-90660000D03*
X137442952Y-114168434D03*
X137193320Y-119054201D03*
X147978000Y-90660000D03*
X146708000Y-97518000D03*
X158657000Y-124988000D03*
X99972000Y-117838000D03*
X147021692Y-127184071D03*
X142771000Y-124823000D03*
X135807883Y-117799391D03*
X153312000Y-111361000D03*
X153364480Y-124165448D03*
X146048148Y-127440261D03*
X142324212Y-125532210D03*
X139342000Y-118854000D03*
X157957878Y-114148129D03*
X157744331Y-104820236D03*
X147978000Y-116568000D03*
X146454000Y-118346000D03*
X146047699Y-125129312D03*
X153646719Y-103244267D03*
X156779142Y-101512598D03*
X159154000Y-121140000D03*
X158570050Y-119728246D03*
X157884000Y-99296000D03*
X158049453Y-120815483D03*
X157122000Y-98026000D03*
X158212518Y-121637680D03*
X157122000Y-96756000D03*
X147597021Y-118783084D03*
X151853869Y-113834103D03*
X148818648Y-117381427D03*
X152043979Y-101930633D03*
X122070000Y-118600000D03*
X114219125Y-130400680D03*
X126921548Y-112135669D03*
X149959014Y-116842303D03*
X142487773Y-127858351D03*
X140629614Y-127568976D03*
X151861794Y-120987270D03*
X149502000Y-97518000D03*
X142659402Y-128678804D03*
X140865157Y-128373413D03*
X154504014Y-122717378D03*
X149502000Y-95994000D03*
X143140520Y-129365189D03*
X140895155Y-129211088D03*
X149160655Y-120597794D03*
X155209978Y-122265478D03*
X149502000Y-94470000D03*
X143939203Y-129619559D03*
X141197381Y-129992919D03*
X155115458Y-118397500D03*
X148912492Y-93439007D03*
X150012278Y-120754407D03*
X138888101Y-127457017D03*
X151445189Y-118013211D03*
X139599303Y-126514146D03*
X140102409Y-119812480D03*
X102245403Y-112921423D03*
X103299400Y-102293200D03*
X147092769Y-111094437D03*
X112318086Y-115247170D03*
X104290000Y-102217000D03*
X101019024Y-114612200D03*
X147660520Y-114257985D03*
X102108412Y-115701588D03*
X133976498Y-94406480D03*
X134057806Y-105903554D03*
X134836774Y-94406480D03*
X134671780Y-106517529D03*
X135838363Y-94292711D03*
X135555125Y-107400875D03*
X137325113Y-94089529D03*
X137954417Y-108333142D03*
X136468611Y-93274050D03*
X137125423Y-108209172D03*
X135795424Y-108279838D03*
X129978844Y-92310923D03*
X130631518Y-91784986D03*
X130900307Y-102785975D03*
X131857029Y-106446712D03*
X128585022Y-91706094D03*
X129436000Y-104630000D03*
X130198000Y-106408000D03*
X156970222Y-116213842D03*
X152052355Y-110535520D03*
X159408000Y-114282000D03*
X150712093Y-113525647D03*
X149212247Y-115032554D03*
X151152183Y-116248130D03*
X147654899Y-126167781D03*
X147664313Y-125329622D03*
X147964905Y-126946560D03*
X146897325Y-128055733D03*
X156868000Y-125013480D03*
X155634275Y-127883655D03*
X140423150Y-117850007D03*
X104290000Y-125966000D03*
X102766000Y-125469000D03*
X141250938Y-117718226D03*
X138516480Y-95946255D03*
X138973619Y-109595635D03*
X138151185Y-96701020D03*
X139797843Y-109443141D03*
D46*
X126388000Y-115552000D02*
X126436159Y-115503841D01*
X126388000Y-116822000D02*
X126388000Y-115552000D01*
X137422192Y-120744192D02*
X137818000Y-121140000D01*
X137818000Y-121140000D02*
X137818000Y-122410000D01*
X137818000Y-122410000D02*
X138453000Y-123045000D01*
X138453000Y-123045000D02*
X140485000Y-123045000D01*
X140485000Y-123045000D02*
X140739000Y-122791000D01*
X140739000Y-122791000D02*
X142263000Y-122791000D01*
X142263000Y-122791000D02*
X142452000Y-122602000D01*
X142452000Y-122602000D02*
X142452000Y-122345000D01*
X142452000Y-122345000D02*
X142452000Y-121884000D01*
X137422192Y-120744192D02*
X137691000Y-121013000D01*
X132230000Y-114409000D02*
X132230000Y-114893933D01*
X132230000Y-114893933D02*
X133673134Y-116337067D01*
X133673134Y-116337067D02*
X135786000Y-116337067D01*
X129441937Y-113977243D02*
X129784836Y-114320142D01*
X129238694Y-113774000D02*
X129441937Y-113977243D01*
X126896000Y-113774000D02*
X129238694Y-113774000D01*
X135968270Y-116337067D02*
X136072203Y-116441000D01*
X136072203Y-116441000D02*
X136453203Y-116822000D01*
X138402735Y-118771532D02*
X138059836Y-118428633D01*
X138059836Y-118428633D02*
X136072203Y-116441000D01*
X112225000Y-128318000D02*
X111402000Y-129141000D01*
X111402000Y-129141000D02*
X111402000Y-130088000D01*
X114483020Y-128318000D02*
X112225000Y-128318000D01*
X124991000Y-125331000D02*
X124948000Y-125288000D01*
X124948000Y-125288000D02*
X124948000Y-119362000D01*
X124991000Y-125479310D02*
X124991000Y-125331000D01*
X124940200Y-125978700D02*
X124940200Y-125530110D01*
X124940200Y-125530110D02*
X124991000Y-125479310D01*
X158138000Y-115679000D02*
X159281000Y-115679000D01*
X156843000Y-114384000D02*
X158138000Y-115679000D01*
X154052000Y-114384000D02*
X156843000Y-114384000D01*
X157630000Y-122283000D02*
X159408000Y-122283000D01*
X156995000Y-122918000D02*
X157630000Y-122283000D01*
X156487000Y-122918000D02*
X156995000Y-122918000D01*
X155541376Y-123863624D02*
X156487000Y-122918000D01*
X154523014Y-123863624D02*
X155541376Y-123863624D01*
X154836000Y-125839000D02*
X154836000Y-124176610D01*
X154836000Y-124176610D02*
X154523014Y-123863624D01*
X154836000Y-126432000D02*
X154836000Y-125839000D01*
X152002000Y-123934000D02*
X152452000Y-123934000D01*
X152452000Y-123934000D02*
X153315756Y-123070244D01*
X153315756Y-123070244D02*
X153315756Y-123006170D01*
X136453203Y-116822000D02*
X136961203Y-117330000D01*
X137422192Y-120744192D02*
X136453203Y-119775203D01*
X136453203Y-119775203D02*
X136453203Y-116822000D01*
X135786000Y-116337067D02*
X134285067Y-116337067D01*
X154052000Y-114384000D02*
X155954000Y-114384000D01*
X135786000Y-116337067D02*
X135968270Y-116337067D01*
X136961203Y-117330000D02*
X138059836Y-118428633D01*
X139510000Y-115384000D02*
X139342000Y-115552000D01*
X142452000Y-115384000D02*
X139510000Y-115384000D01*
X154052000Y-114384000D02*
X155052000Y-114384000D01*
X155052000Y-114384000D02*
X155154000Y-114282000D01*
X134262000Y-91560000D02*
X136802000Y-91560000D01*
X155598000Y-128760000D02*
X157884000Y-128760000D01*
X154836000Y-127998000D02*
X155598000Y-128760000D01*
X154836000Y-126432000D02*
X154836000Y-127998000D01*
X124948000Y-115552000D02*
X124948000Y-116822000D01*
X160932000Y-100058000D02*
X159154000Y-100058000D01*
X130960000Y-119138480D02*
X130709810Y-119138480D01*
X130425330Y-118854000D02*
X129309000Y-118854000D01*
X130709810Y-119138480D02*
X130425330Y-118854000D01*
X139318933Y-124797600D02*
X140866000Y-124797600D01*
X140866000Y-124797600D02*
X141755000Y-123908600D01*
X138707000Y-124670600D02*
X139191933Y-124670600D01*
X139191933Y-124670600D02*
X139318933Y-124797600D01*
X142452000Y-114884000D02*
X144209583Y-114884000D01*
X144209583Y-114884000D02*
X144263651Y-114938068D01*
X129309000Y-120632000D02*
X129309000Y-118854000D01*
X129309000Y-118854000D02*
X128547000Y-118092000D01*
X128547000Y-118092000D02*
X127488000Y-118092000D01*
X128928000Y-116103000D02*
X130790000Y-116103000D01*
X130790000Y-116103000D02*
X130833000Y-116060000D01*
X153342480Y-130538000D02*
X153342480Y-130064290D01*
X153342480Y-130064290D02*
X153841870Y-129564900D01*
X155555914Y-129564900D02*
X156205795Y-130214781D01*
X153841870Y-129564900D02*
X155555914Y-129564900D01*
X156205795Y-130214781D02*
X156741000Y-130214781D01*
X124940200Y-127477300D02*
X124940200Y-128048800D01*
X124940200Y-128048800D02*
X124737000Y-128252000D01*
X119022000Y-116776000D02*
X119022000Y-111361000D01*
X119022000Y-117838000D02*
X119022000Y-116776000D01*
X155212000Y-115044000D02*
X156713000Y-115044000D01*
X156713000Y-115044000D02*
X158657000Y-116988000D01*
X158657000Y-116988000D02*
X158657000Y-117038000D01*
X154052000Y-114884000D02*
X155052000Y-114884000D01*
X155052000Y-114884000D02*
X155212000Y-115044000D01*
X146502000Y-113843198D02*
X146321105Y-114024093D01*
X146502000Y-112334000D02*
X146502000Y-113843198D01*
X152804000Y-114636000D02*
X153052000Y-114884000D01*
X152804000Y-114075145D02*
X152804000Y-114636000D01*
X155132000Y-111747145D02*
X152804000Y-114075145D01*
X155132000Y-110472000D02*
X155132000Y-111747145D01*
X153052000Y-114884000D02*
X154052000Y-114884000D01*
X146502000Y-112334000D02*
X146502000Y-111458714D01*
X145145941Y-105631126D02*
X145630874Y-105631126D01*
X146447468Y-110537027D02*
X144676000Y-108765559D01*
X144676000Y-108765559D02*
X144676000Y-106101067D01*
X146502000Y-111458714D02*
X146447468Y-111404182D01*
X144676000Y-106101067D02*
X145145941Y-105631126D01*
X146447468Y-111404182D02*
X146447468Y-110537027D01*
X143236000Y-106154000D02*
X143236000Y-105053000D01*
X143236000Y-105053000D02*
X143194000Y-105011000D01*
X163392000Y-110503000D02*
X163207000Y-110688000D01*
X163207000Y-110688000D02*
X163207000Y-110638000D01*
X163207000Y-110738000D02*
X163207000Y-110688000D01*
X163207000Y-117088000D02*
X163207000Y-117038000D01*
X158657000Y-123388000D02*
X159407000Y-123388000D01*
X159407000Y-123388000D02*
X163207000Y-123388000D01*
X158657000Y-117038000D02*
X159407000Y-117038000D01*
X159407000Y-117038000D02*
X163207000Y-117038000D01*
X158657000Y-110688000D02*
X159407000Y-110688000D01*
X159407000Y-110688000D02*
X163207000Y-110688000D01*
X157122000Y-109626000D02*
X157595000Y-109626000D01*
X157595000Y-109626000D02*
X158657000Y-110688000D01*
X143194000Y-105011000D02*
X145010748Y-105011000D01*
X145010748Y-105011000D02*
X145630874Y-105631126D01*
X141120000Y-131300000D02*
X145946000Y-131300000D01*
X138072000Y-129638000D02*
X138072000Y-131300000D01*
X138072000Y-129638000D02*
X139284000Y-129638000D01*
X136802000Y-129638000D02*
X138072000Y-129638000D01*
X139284000Y-129638000D02*
X139342000Y-129580000D01*
X106322000Y-100058000D02*
X106322000Y-100566000D01*
X111402000Y-117838000D02*
X111402000Y-118346000D01*
X127488000Y-114874000D02*
X127404000Y-114790000D01*
X127488000Y-115552000D02*
X127488000Y-114874000D01*
X151458867Y-104550999D02*
X151458867Y-105570867D01*
X151458867Y-105570867D02*
X151534000Y-105646000D01*
X163392000Y-105688000D02*
X157418000Y-105688000D01*
X154200000Y-104884000D02*
X153735000Y-104419000D01*
X157418000Y-105688000D02*
X156614000Y-104884000D01*
X156614000Y-104884000D02*
X154200000Y-104884000D01*
X153735000Y-104419000D02*
X153185000Y-104419000D01*
X153185000Y-104419000D02*
X151590866Y-104419000D01*
X150391000Y-104419000D02*
X151326868Y-104419000D01*
X151590866Y-104419000D02*
X151458867Y-104550999D01*
X151326868Y-104419000D02*
X151458867Y-104550999D01*
X147955500Y-107106500D02*
X147996226Y-107065774D01*
X146517500Y-103804500D02*
X146517500Y-104744500D01*
X147533500Y-107528500D02*
X147996226Y-107065774D01*
X145973773Y-105288227D02*
X145630874Y-105631126D01*
X146517500Y-104744500D02*
X145973773Y-105288227D01*
X147996226Y-107065774D02*
X148339125Y-106722875D01*
X147533500Y-108884500D02*
X147533500Y-107528500D01*
X147599822Y-107106500D02*
X147955500Y-107106500D01*
X130833000Y-113012000D02*
X130833000Y-113612000D01*
X130833000Y-113612000D02*
X130833000Y-116060000D01*
X127354000Y-115552000D02*
X127404000Y-115552000D01*
X123848000Y-115552000D02*
X123848000Y-115002000D01*
X130833000Y-116060000D02*
X127912000Y-116060000D01*
X127912000Y-116060000D02*
X127404000Y-115552000D01*
X127488000Y-118092000D02*
X127488000Y-119362000D01*
X127446000Y-116822000D02*
X127446000Y-118050000D01*
X127446000Y-118050000D02*
X127488000Y-118092000D01*
X127404000Y-115552000D02*
X127404000Y-116780000D01*
X127404000Y-116780000D02*
X127446000Y-116822000D01*
X123848000Y-118092000D02*
X123848000Y-119362000D01*
X123848000Y-116822000D02*
X123848000Y-118092000D01*
X123848000Y-115552000D02*
X123848000Y-116822000D01*
X155318600Y-92946000D02*
X156423500Y-92946000D01*
X156423500Y-92946000D02*
X156487000Y-92882500D01*
X163882000Y-94908000D02*
X162857000Y-94908000D01*
X162857000Y-94908000D02*
X162632000Y-95133000D01*
X155318600Y-95994000D02*
X155318600Y-97518000D01*
X155318600Y-94470000D02*
X155318600Y-95994000D01*
X155318600Y-92946000D02*
X155318600Y-94470000D01*
X160932000Y-102258000D02*
X161882000Y-102258000D01*
X161882000Y-102258000D02*
X163392000Y-103768000D01*
X163392000Y-103768000D02*
X163392000Y-104788000D01*
X163392000Y-104788000D02*
X163392000Y-105688000D01*
X93622000Y-105138000D02*
X88492000Y-105138000D01*
X88492000Y-105138000D02*
X88287000Y-104933000D01*
X93622000Y-112758000D02*
X88492000Y-112758000D01*
X88492000Y-112758000D02*
X88287000Y-112963000D01*
X93622000Y-108948000D02*
X88527000Y-108948000D01*
X88527000Y-108948000D02*
X88287000Y-109188000D01*
X88287000Y-109188000D02*
X88287000Y-110013000D01*
X88527000Y-108948000D02*
X88287000Y-108708000D01*
X88287000Y-108708000D02*
X88287000Y-107883000D01*
X127404000Y-114790000D02*
X126134000Y-114790000D01*
X123848000Y-115002000D02*
X124060000Y-114790000D01*
X124991000Y-114790000D02*
X126134000Y-114790000D01*
X126134000Y-114790000D02*
X126592000Y-114790000D01*
X124060000Y-114790000D02*
X124991000Y-114790000D01*
X97813000Y-126612000D02*
X97713000Y-126612000D01*
X125118000Y-113901000D02*
X125118000Y-114790000D01*
X128928000Y-117203000D02*
X131087000Y-117203000D01*
X131087000Y-117203000D02*
X132611000Y-118727000D01*
X132611000Y-118727000D02*
X132611000Y-119739190D01*
X132611000Y-119739190D02*
X131210190Y-121140000D01*
X131210190Y-121140000D02*
X130960000Y-121140000D01*
X134135000Y-117203000D02*
X132611000Y-118727000D01*
X130960000Y-121140000D02*
X130960000Y-123426000D01*
X130960000Y-123426000D02*
X130579000Y-123807000D01*
X130734000Y-123807000D02*
X130579000Y-123807000D01*
X142136000Y-106154000D02*
X142136000Y-105053000D01*
X142136000Y-105053000D02*
X142094000Y-105011000D01*
X142107149Y-104831851D02*
X142644000Y-104295000D01*
X142107149Y-106836512D02*
X142107149Y-104831851D01*
X145995057Y-112327057D02*
X145995057Y-110724420D01*
X145995057Y-110724420D02*
X142107149Y-106836512D01*
X146002000Y-112334000D02*
X145995057Y-112327057D01*
X142644000Y-104295000D02*
X142644000Y-103487000D01*
X136167000Y-126093000D02*
X136922000Y-126093000D01*
X137146174Y-125868826D02*
X141249390Y-125868826D01*
X136922000Y-126093000D02*
X137146174Y-125868826D01*
X142487176Y-127106612D02*
X141249390Y-125868826D01*
X144334008Y-128701035D02*
X142739585Y-127106612D01*
X147207071Y-128701035D02*
X144334008Y-128701035D01*
X149502000Y-127617000D02*
X148291106Y-127617000D01*
X148291106Y-127617000D02*
X147207071Y-128701035D01*
X142739585Y-127106612D02*
X142487176Y-127106612D01*
X135024000Y-126093000D02*
X134506467Y-126610533D01*
X134506467Y-126610533D02*
X134411608Y-126610533D01*
X136167000Y-126093000D02*
X135024000Y-126093000D01*
X136167000Y-123553000D02*
X136167000Y-123680000D01*
X136167000Y-127998000D02*
X136167000Y-127871000D01*
X136167000Y-127871000D02*
X136167000Y-126285194D01*
X134503300Y-129014000D02*
X135202080Y-129014000D01*
X135202080Y-129014000D02*
X136167000Y-128049080D01*
X136167000Y-128049080D02*
X136167000Y-127871000D01*
X149502000Y-127606000D02*
X149502000Y-127106000D01*
X149402000Y-127606000D02*
X149502000Y-127606000D01*
X149502000Y-127106000D02*
X149002000Y-126606000D01*
X136167000Y-123553000D02*
X136167000Y-125802536D01*
X149002000Y-124934000D02*
X149002000Y-123934000D01*
X136167000Y-125802536D02*
X136408329Y-126043865D01*
X136167000Y-126285194D02*
X136408329Y-126043865D01*
X149002000Y-126606000D02*
X149002000Y-124934000D01*
X98702000Y-133078000D02*
X98702000Y-132925600D01*
D47*
X154074000Y-127548000D02*
X154074000Y-126728000D01*
X153936000Y-125839000D02*
X153936000Y-126590000D01*
X153936000Y-126590000D02*
X154074000Y-126728000D01*
X153936000Y-122780590D02*
X153819410Y-122664000D01*
X153819410Y-122664000D02*
X153590078Y-122434668D01*
X153936000Y-125839000D02*
X153936000Y-122780590D01*
X149502000Y-123081600D02*
X149502000Y-123934000D01*
X153590078Y-122434668D02*
X153390254Y-122434668D01*
X153390254Y-122434668D02*
X152433296Y-121477710D01*
X152433296Y-121477710D02*
X152433296Y-120712948D01*
X152433296Y-120712948D02*
X152136116Y-120415768D01*
X152136116Y-120415768D02*
X151620810Y-120415768D01*
X151620810Y-120415768D02*
X149502000Y-122534578D01*
X149502000Y-122534578D02*
X149502000Y-123081600D01*
X154074000Y-127606000D02*
X153952205Y-127484205D01*
X155852000Y-109368384D02*
X153364020Y-109368384D01*
X158657000Y-112238000D02*
X156741000Y-110322000D01*
X156741000Y-110322000D02*
X156614000Y-110195000D01*
X157122000Y-110726000D02*
X157122000Y-110703000D01*
X157122000Y-110703000D02*
X156741000Y-110322000D01*
X149002000Y-113575473D02*
X148862942Y-113714531D01*
X149002000Y-112334000D02*
X149002000Y-113575473D01*
X148862942Y-113714531D02*
X148520043Y-114057430D01*
X114305712Y-129613278D02*
X114790645Y-129613278D01*
X111502000Y-130988000D02*
X112876722Y-129613278D01*
X112876722Y-129613278D02*
X114305712Y-129613278D01*
X111402000Y-130988000D02*
X111502000Y-130988000D01*
X149002000Y-108940000D02*
X149045605Y-108896395D01*
X149002000Y-112334000D02*
X149002000Y-108940000D01*
X156614000Y-110130384D02*
X155852000Y-109368384D01*
X153364020Y-109368384D02*
X153276114Y-109456290D01*
X153276114Y-109456290D02*
X152791181Y-109456290D01*
X158657000Y-112288000D02*
X158657000Y-112238000D01*
X156614000Y-110195000D02*
X156614000Y-110130384D01*
X163207000Y-112288000D02*
X158657000Y-112288000D01*
X111402000Y-130988000D02*
X111402000Y-133078000D01*
X148055500Y-105506500D02*
X147955500Y-105506500D01*
X149248000Y-106699000D02*
X148055500Y-105506500D01*
X149248000Y-107754933D02*
X149248000Y-106699000D01*
X150060811Y-108567744D02*
X149248000Y-107754933D01*
X150060811Y-111422789D02*
X150060811Y-108567744D01*
X150002000Y-111481600D02*
X150060811Y-111422789D01*
X150002000Y-112334000D02*
X150002000Y-111481600D01*
X147617500Y-105168500D02*
X147955500Y-105506500D01*
X147617500Y-103804500D02*
X147617500Y-105168500D01*
X147978000Y-110418429D02*
X148494571Y-110935000D01*
X148494571Y-110935000D02*
X148494571Y-112326571D01*
X147978000Y-110345000D02*
X147978000Y-110418429D01*
X148494571Y-112326571D02*
X148502000Y-112334000D01*
X113922848Y-94978000D02*
X137564000Y-94978000D01*
X137564000Y-94978000D02*
X138072000Y-94470000D01*
X96771600Y-89136000D02*
X108080848Y-89136000D01*
X108080848Y-89136000D02*
X113922848Y-94978000D01*
X96162000Y-87358000D02*
X96162000Y-88526400D01*
X96162000Y-88526400D02*
X96771600Y-89136000D01*
X96162000Y-87358000D02*
X96162000Y-87510400D01*
X121307353Y-119108647D02*
X121307353Y-114680636D01*
X119784000Y-120632000D02*
X121307353Y-119108647D01*
X121307353Y-114680636D02*
X121307353Y-114195703D01*
X148002000Y-111288251D02*
X147923070Y-111209321D01*
X148002000Y-112334000D02*
X148002000Y-111288251D01*
X120800000Y-127236000D02*
X120800000Y-127136000D01*
X120800000Y-125966000D02*
X120800000Y-127236000D01*
X119784000Y-124950000D02*
X120800000Y-125966000D01*
X119784000Y-124442000D02*
X119784000Y-124950000D01*
X134308251Y-102598000D02*
X133546251Y-103360000D01*
X151808322Y-106217502D02*
X151259678Y-106217502D01*
X150962498Y-105086218D02*
X150823881Y-104947601D01*
X147608518Y-102598000D02*
X134308251Y-102598000D01*
X150962498Y-105920322D02*
X150962498Y-105086218D01*
X152105502Y-105920322D02*
X151808322Y-106217502D01*
X151480853Y-111460453D02*
X151480853Y-109933323D01*
X152105502Y-105666322D02*
X152105502Y-105920322D01*
X153573144Y-104990399D02*
X152781425Y-104990399D01*
X153845356Y-105262611D02*
X153573144Y-104990399D01*
X152529678Y-108884498D02*
X153130402Y-108884498D01*
X152781425Y-104990399D02*
X152105502Y-105666322D01*
X151502000Y-111481600D02*
X151480853Y-111460453D01*
X153845356Y-108169544D02*
X153845356Y-105262611D01*
X153130402Y-108884498D02*
X153845356Y-108169544D01*
X151259678Y-106217502D02*
X150962498Y-105920322D01*
X151502000Y-112334000D02*
X151502000Y-111481600D01*
X149958119Y-104947601D02*
X147608518Y-102598000D01*
X150823881Y-104947601D02*
X149958119Y-104947601D01*
X151480853Y-109933323D02*
X152529678Y-108884498D01*
X129275987Y-94673189D02*
X129542678Y-94406498D01*
X103782000Y-87510400D02*
X105102789Y-88831189D01*
X103782000Y-87358000D02*
X103782000Y-87510400D01*
X108207104Y-88831189D02*
X114049104Y-94673189D01*
X105102789Y-88831189D02*
X108207104Y-88831189D01*
X114049104Y-94673189D02*
X129275987Y-94673189D01*
X131432333Y-94358939D02*
X131775232Y-94016040D01*
X131384774Y-94406498D02*
X131432333Y-94358939D01*
X129542678Y-94406498D02*
X131384774Y-94406498D01*
X133546251Y-103360000D02*
X134257440Y-102648811D01*
X133173090Y-103733161D02*
X133546251Y-103360000D01*
X134257440Y-102648811D02*
X143024256Y-102648811D01*
X143024256Y-102648811D02*
X143075067Y-102598000D01*
X151534000Y-112302000D02*
X151502000Y-112334000D01*
X140590087Y-109716910D02*
X140590087Y-110398471D01*
X140590087Y-110398471D02*
X143853467Y-113661851D01*
X143853467Y-113661851D02*
X145012354Y-113661851D01*
X145012354Y-113661851D02*
X145444793Y-114094291D01*
X145444793Y-114094291D02*
X145444793Y-115481860D01*
X145444793Y-115481860D02*
X149269507Y-119306574D01*
X149525067Y-119306574D02*
X150010000Y-119306574D01*
X149269507Y-119306574D02*
X149525067Y-119306574D01*
X133503893Y-92615735D02*
X137088238Y-92615735D01*
X137088238Y-92615735D02*
X139122438Y-94649935D01*
X138933836Y-97076172D02*
X138590937Y-97419071D01*
X139122438Y-96887570D02*
X138933836Y-97076172D01*
X139122438Y-94649935D02*
X139122438Y-96887570D01*
X131722000Y-87358000D02*
X131722000Y-90833842D01*
X131722000Y-90833842D02*
X133503893Y-92615735D01*
X154052000Y-118884000D02*
X152532468Y-118884000D01*
X152532468Y-118884000D02*
X152296000Y-119120468D01*
X154913651Y-119061723D02*
X155384323Y-119061723D01*
X155811600Y-119489000D02*
X156164000Y-119489000D01*
X154052000Y-118884000D02*
X154735928Y-118884000D01*
X155384323Y-119061723D02*
X155811600Y-119489000D01*
X154735928Y-118884000D02*
X154913651Y-119061723D01*
X148684541Y-118120363D02*
X149349600Y-118120363D01*
X149349600Y-118120363D02*
X150128921Y-118120363D01*
X150162400Y-118117400D02*
X149352563Y-118117400D01*
X149352563Y-118117400D02*
X149349600Y-118120363D01*
X150613854Y-117635430D02*
X150128921Y-118120363D01*
X141395721Y-110433258D02*
X144319503Y-113357040D01*
X145749604Y-115185426D02*
X148684541Y-118120363D01*
X145749604Y-113968034D02*
X145749604Y-115185426D01*
X150939876Y-117309408D02*
X150613854Y-117635430D01*
X151549637Y-117309408D02*
X150939876Y-117309408D01*
X151882375Y-117642146D02*
X151549637Y-117309408D01*
X144319503Y-113357040D02*
X145138610Y-113357040D01*
X145138610Y-113357040D02*
X145749604Y-113968034D01*
X141395721Y-109948325D02*
X141395721Y-110433258D01*
X152179555Y-117939326D02*
X151549637Y-117309408D01*
X139556068Y-97727521D02*
X139213169Y-98070420D01*
X139556068Y-94652498D02*
X139556068Y-97727521D01*
X137214494Y-92310924D02*
X139556068Y-94652498D01*
X133301600Y-91520400D02*
X133301600Y-91982375D01*
X134262000Y-90660000D02*
X134162000Y-90660000D01*
X134162000Y-90660000D02*
X133301600Y-91520400D01*
X133301600Y-91982375D02*
X133630149Y-92310924D01*
X133630149Y-92310924D02*
X137214494Y-92310924D01*
X152728199Y-117939326D02*
X152179555Y-117939326D01*
X152179555Y-117939326D02*
X151882375Y-117642146D01*
X153283525Y-117384000D02*
X152728199Y-117939326D01*
X154052000Y-117384000D02*
X153283525Y-117384000D01*
X134262000Y-90660000D02*
X134262000Y-87358000D01*
X152952140Y-113278701D02*
X152952140Y-112971994D01*
X151986105Y-115689320D02*
X152425389Y-115250036D01*
X152425389Y-115250036D02*
X152425389Y-113805452D01*
X152425389Y-113805452D02*
X152952140Y-113278701D01*
X152796776Y-117024925D02*
X152453877Y-117367824D01*
X154052000Y-116884000D02*
X152937701Y-116884000D01*
X152937701Y-116884000D02*
X152796776Y-117024925D01*
X136802000Y-89644000D02*
X136802000Y-87358000D01*
X136802000Y-90660000D02*
X136802000Y-89644000D01*
X141374000Y-105646000D02*
X141031101Y-105303101D01*
X141031101Y-105303101D02*
X133671946Y-105303101D01*
X133671946Y-105303101D02*
X133038153Y-105936893D01*
X133038153Y-105936893D02*
X133038153Y-106330818D01*
X133038153Y-106330818D02*
X136548055Y-109840720D01*
X136548055Y-109840720D02*
X136548055Y-112291775D01*
X136548055Y-112291775D02*
X136760280Y-112504000D01*
X136760280Y-112504000D02*
X138229502Y-113973222D01*
X138229502Y-113973222D02*
X138229502Y-114458155D01*
X139036446Y-120384000D02*
X138456422Y-119803976D01*
X142452000Y-120384000D02*
X139036446Y-120384000D01*
X138456422Y-119803976D02*
X138269056Y-119803976D01*
X138269056Y-119803976D02*
X137926157Y-119461077D01*
X144422000Y-90660000D02*
X143152000Y-90660000D01*
X144422000Y-90660000D02*
X144422000Y-90307600D01*
X144422000Y-90307600D02*
X144422000Y-87358000D01*
X137100053Y-113825535D02*
X137442952Y-114168434D01*
X136243244Y-112968726D02*
X137100053Y-113825535D01*
X136243244Y-109966976D02*
X136243244Y-112968726D01*
X132733342Y-106457074D02*
X136243244Y-109966976D01*
X132733342Y-106046134D02*
X132733342Y-106457074D01*
X132484000Y-105796793D02*
X132733342Y-106046134D01*
X132484000Y-103614000D02*
X132484000Y-105796793D01*
X143868291Y-102166191D02*
X133931809Y-102166191D01*
X146708000Y-99326482D02*
X143868291Y-102166191D01*
X146708000Y-97518000D02*
X146708000Y-99326482D01*
X133931809Y-102166191D02*
X132484000Y-103614000D01*
X137193320Y-119539134D02*
X137193320Y-119054201D01*
X138481333Y-120259954D02*
X137914140Y-120259954D01*
X142452000Y-120884000D02*
X139105379Y-120884000D01*
X139105379Y-120884000D02*
X138481333Y-120259954D01*
X137914140Y-120259954D02*
X137193320Y-119539134D01*
X147978000Y-90660000D02*
X146962000Y-90660000D01*
X146962000Y-90660000D02*
X146962000Y-90307600D01*
X146962000Y-90307600D02*
X146962000Y-87358000D01*
D46*
X101242000Y-121394000D02*
X102634000Y-121394000D01*
X102512000Y-117060222D02*
X102512000Y-117838000D01*
X101463111Y-115391843D02*
X101463111Y-116011333D01*
X105052000Y-100058000D02*
X105052000Y-111802952D01*
X101463111Y-116011333D02*
X102512000Y-117060222D01*
X105052000Y-111802952D02*
X101463111Y-115391843D01*
X102766000Y-121526000D02*
X102766000Y-118092000D01*
X102766000Y-118092000D02*
X102512000Y-117838000D01*
D47*
X158657000Y-124988000D02*
X163207000Y-124988000D01*
X98768000Y-121681020D02*
X98768000Y-121128570D01*
X98768000Y-121128570D02*
X99972000Y-119924570D01*
X99972000Y-119924570D02*
X99972000Y-118752400D01*
X99972000Y-118752400D02*
X99972000Y-117838000D01*
X144676000Y-126728000D02*
X146565621Y-126728000D01*
X146678793Y-126841172D02*
X147021692Y-127184071D01*
X142771000Y-124823000D02*
X144676000Y-126728000D01*
X146565621Y-126728000D02*
X146678793Y-126841172D01*
X152296000Y-94470000D02*
X153820000Y-94470000D01*
D46*
X118260000Y-128136000D02*
X118260000Y-128636000D01*
X118260000Y-128636000D02*
X118260000Y-129268000D01*
X116482000Y-129268000D02*
X118260000Y-129268000D01*
X118260000Y-129268000D02*
X120292000Y-129268000D01*
X120292000Y-129268000D02*
X121562000Y-130538000D01*
X116482000Y-129268000D02*
X116482000Y-133078000D01*
X121562000Y-130538000D02*
X121562000Y-133078000D01*
D47*
X97813000Y-125712000D02*
X99707000Y-125712000D01*
X99718000Y-125701000D02*
X99718000Y-123680000D01*
X99707000Y-125712000D02*
X99718000Y-125701000D01*
X102766000Y-123294000D02*
X102766000Y-124558000D01*
X101567400Y-122283000D02*
X101115000Y-122283000D01*
X102175450Y-122283000D02*
X101567400Y-122283000D01*
X102766000Y-123426000D02*
X102766000Y-122873550D01*
X102766000Y-122873550D02*
X102175450Y-122283000D01*
X119900000Y-127236000D02*
X118260000Y-127236000D01*
X118260000Y-127236000D02*
X117498000Y-127236000D01*
X117366000Y-127368000D02*
X117498000Y-127236000D01*
X116482000Y-127368000D02*
X117366000Y-127368000D01*
D46*
X134053720Y-123553000D02*
X134897000Y-123553000D01*
X134897000Y-123553000D02*
X135278000Y-123172000D01*
X135278000Y-123172000D02*
X135278000Y-122791000D01*
X135278000Y-122791000D02*
X135818879Y-122250121D01*
X135818879Y-122250121D02*
X136909301Y-122250121D01*
X136909301Y-122250121D02*
X136969781Y-122189641D01*
X136969781Y-122189641D02*
X136969781Y-120931585D01*
X136969781Y-120931585D02*
X135807883Y-119769687D01*
X135807883Y-119769687D02*
X135807883Y-118284324D01*
X135807883Y-118284324D02*
X135807883Y-117799391D01*
D47*
X146412000Y-108948000D02*
X146362000Y-108948000D01*
X146362000Y-108948000D02*
X145755500Y-108341500D01*
X145755500Y-108341500D02*
X145755500Y-107858900D01*
X145755500Y-107858900D02*
X145755500Y-107106500D01*
X147732983Y-109646499D02*
X147160499Y-109646499D01*
X147160499Y-109646499D02*
X146462000Y-108948000D01*
X146462000Y-108948000D02*
X146412000Y-108948000D01*
X149629001Y-108567000D02*
X149248001Y-108186000D01*
X149502000Y-112334000D02*
X149502000Y-111481600D01*
X149502000Y-111481600D02*
X149629001Y-111354599D01*
X149629001Y-111354599D02*
X149629001Y-108567000D01*
X149248001Y-108186000D02*
X148486000Y-108186000D01*
X148232000Y-109147482D02*
X147732983Y-109646499D01*
X148232000Y-108440000D02*
X148232000Y-109147482D01*
X148486000Y-108186000D02*
X148232000Y-108440000D01*
X152296000Y-97518000D02*
X153820000Y-97518000D01*
X153820000Y-95994000D02*
X152296000Y-95994000D01*
X152296000Y-92946000D02*
X152648400Y-92946000D01*
X152648400Y-92946000D02*
X153820000Y-92946000D01*
D46*
X154032000Y-110641000D02*
X153312000Y-111361000D01*
X152425000Y-111361000D02*
X153312000Y-111361000D01*
X154032000Y-110472000D02*
X154032000Y-110641000D01*
X152002000Y-112334000D02*
X152002000Y-111784000D01*
X152002000Y-111784000D02*
X152425000Y-111361000D01*
D47*
X150391000Y-107297000D02*
X150391000Y-105561000D01*
X150502000Y-112334000D02*
X150502000Y-107408000D01*
X150502000Y-107408000D02*
X150391000Y-107297000D01*
X152991000Y-105713000D02*
X153185000Y-105519000D01*
X151002000Y-109286000D02*
X152991000Y-107297000D01*
X151002000Y-112334000D02*
X151002000Y-109286000D01*
X152991000Y-107297000D02*
X152991000Y-105713000D01*
X133754000Y-127713520D02*
X133754000Y-124482400D01*
X133754000Y-124482400D02*
X132738000Y-123466400D01*
X132738000Y-123466400D02*
X132738000Y-123114000D01*
X133004700Y-129014000D02*
X133004700Y-128462820D01*
X133004700Y-128462820D02*
X133754000Y-127713520D01*
D46*
X149502000Y-128506000D02*
X149502000Y-129298480D01*
X149502000Y-129298480D02*
X150741520Y-130538000D01*
X151394300Y-130538000D02*
X151394300Y-128683800D01*
X151394300Y-128683800D02*
X151216500Y-128506000D01*
X152042000Y-130538000D02*
X152042000Y-128696500D01*
X152042000Y-128696500D02*
X152232500Y-128506000D01*
D47*
X152689700Y-130538000D02*
X152689700Y-129712500D01*
X152689700Y-129712500D02*
X153896200Y-128506000D01*
X153896200Y-128506000D02*
X154074000Y-128506000D01*
X134839000Y-119997000D02*
X135191400Y-119997000D01*
X135191400Y-119997000D02*
X136167000Y-120972600D01*
X136167000Y-120972600D02*
X136167000Y-121648000D01*
X133400940Y-121648000D02*
X134053720Y-121648000D01*
X132951600Y-121648000D02*
X133400940Y-121648000D01*
X132738000Y-121861600D02*
X132951600Y-121648000D01*
X132738000Y-122214000D02*
X132738000Y-121861600D01*
X158657000Y-118638000D02*
X159259400Y-118638000D01*
X159259400Y-118638000D02*
X163207000Y-118638000D01*
X157006000Y-119489000D02*
X157856000Y-119489000D01*
X157856000Y-119489000D02*
X158657000Y-118688000D01*
X158657000Y-118688000D02*
X158657000Y-118638000D01*
X139892000Y-121648000D02*
X140344400Y-121648000D01*
X140608400Y-121384000D02*
X141599600Y-121384000D01*
X140344400Y-121648000D02*
X140608400Y-121384000D01*
X141599600Y-121384000D02*
X142452000Y-121384000D01*
X139342000Y-118854000D02*
X138695161Y-118207161D01*
X136548000Y-115933000D02*
X132527000Y-111912000D01*
X138695161Y-118207161D02*
X138514414Y-118207161D01*
X138514414Y-118207161D02*
X136548000Y-116240745D01*
X136548000Y-116240745D02*
X136548000Y-115933000D01*
X132527000Y-111912000D02*
X131468000Y-111912000D01*
X131468000Y-111912000D02*
X130833000Y-111912000D01*
X151502000Y-123934000D02*
X151502000Y-124786400D01*
X153021581Y-124508347D02*
X153364480Y-124165448D01*
X151808143Y-125092543D02*
X152437385Y-125092543D01*
X151502000Y-124786400D02*
X151808143Y-125092543D01*
X152437385Y-125092543D02*
X153021581Y-124508347D01*
X145563215Y-127440261D02*
X146048148Y-127440261D01*
X142324212Y-125532210D02*
X144232263Y-127440261D01*
X144232263Y-127440261D02*
X145563215Y-127440261D01*
X151534000Y-123966000D02*
X151502000Y-123934000D01*
D48*
X89812000Y-111488000D02*
X91082000Y-110218000D01*
X91082000Y-110218000D02*
X93622000Y-110218000D01*
X89812000Y-106408000D02*
X91082000Y-107678000D01*
X91082000Y-107678000D02*
X93622000Y-107678000D01*
D47*
X148612429Y-116568000D02*
X148462933Y-116568000D01*
X151282368Y-113564330D02*
X151282368Y-113898061D01*
X151282368Y-113898061D02*
X148612429Y-116568000D01*
X152334881Y-113262601D02*
X151584097Y-113262601D01*
X152380601Y-113216881D02*
X152334881Y-113262601D01*
X154560601Y-111227963D02*
X153388090Y-112400474D01*
X154560601Y-110081917D02*
X154560601Y-111227963D01*
X154649119Y-109993399D02*
X154560601Y-110081917D01*
X155614881Y-109993399D02*
X154649119Y-109993399D01*
X148462933Y-116568000D02*
X147978000Y-116568000D01*
X155928189Y-110306707D02*
X155614881Y-109993399D01*
X153388090Y-112400474D02*
X152519356Y-112400474D01*
X155928189Y-112118440D02*
X155928189Y-110306707D01*
X157957878Y-114148129D02*
X155928189Y-112118440D01*
X152519356Y-112400474D02*
X152380601Y-112539229D01*
X152380601Y-112539229D02*
X152380601Y-113216881D01*
X151584097Y-113262601D02*
X151282368Y-113564330D01*
X145326402Y-119473598D02*
X146111101Y-118688899D01*
X148002000Y-123934000D02*
X148002000Y-123081600D01*
X148002000Y-123081600D02*
X146568400Y-121648000D01*
X146111101Y-118688899D02*
X146454000Y-118346000D01*
X146568400Y-121648000D02*
X146237461Y-121648000D01*
X146237461Y-121648000D02*
X145326402Y-120736943D01*
X145326402Y-120736943D02*
X145326402Y-119473598D01*
X158106567Y-104458000D02*
X158087230Y-104477337D01*
X160932000Y-104458000D02*
X158106567Y-104458000D01*
X158087230Y-104477337D02*
X157744331Y-104820236D01*
X146532632Y-125129312D02*
X146047699Y-125129312D01*
X147502000Y-124636156D02*
X147008844Y-125129312D01*
X147008844Y-125129312D02*
X146532632Y-125129312D01*
X147502000Y-123934000D02*
X147502000Y-124636156D01*
X160932000Y-103358000D02*
X153760452Y-103358000D01*
X153760452Y-103358000D02*
X153646719Y-103244267D01*
X158811101Y-120797101D02*
X159154000Y-121140000D01*
X157775131Y-120243981D02*
X158323775Y-120243981D01*
X158323775Y-120243981D02*
X158811101Y-120731307D01*
X154926933Y-119884000D02*
X155365345Y-120322412D01*
X158811101Y-120731307D02*
X158811101Y-120797101D01*
X155365345Y-120322412D02*
X157696700Y-120322412D01*
X154052000Y-119884000D02*
X154926933Y-119884000D01*
X157696700Y-120322412D02*
X157775131Y-120243981D01*
X157133740Y-101158000D02*
X157122041Y-101169699D01*
X157122041Y-101169699D02*
X156779142Y-101512598D01*
X160932000Y-101158000D02*
X157133740Y-101158000D01*
X157648875Y-119939170D02*
X157874193Y-119939170D01*
X158085117Y-119728246D02*
X158570050Y-119728246D01*
X157570444Y-120017601D02*
X157648875Y-119939170D01*
X154052000Y-119384000D02*
X154964399Y-119384000D01*
X155598000Y-120017601D02*
X157570444Y-120017601D01*
X154964399Y-119384000D02*
X155598000Y-120017601D01*
X157874193Y-119939170D02*
X158085117Y-119728246D01*
X160932000Y-98958000D02*
X158476000Y-98958000D01*
X158222000Y-98958000D02*
X157884000Y-99296000D01*
X158476000Y-98958000D02*
X158222000Y-98958000D01*
X154995867Y-120384000D02*
X155427350Y-120815483D01*
X157564520Y-120815483D02*
X158049453Y-120815483D01*
X155427350Y-120815483D02*
X157564520Y-120815483D01*
X154052000Y-120384000D02*
X154995867Y-120384000D01*
X160932000Y-97858000D02*
X157290000Y-97858000D01*
X157290000Y-97858000D02*
X157122000Y-98026000D01*
X157727585Y-121637680D02*
X158212518Y-121637680D01*
X155818479Y-121637680D02*
X157727585Y-121637680D01*
X155064799Y-120884000D02*
X155818479Y-121637680D01*
X154052000Y-120884000D02*
X155064799Y-120884000D01*
X157122000Y-96756000D02*
X160930000Y-96756000D01*
X160930000Y-96756000D02*
X160932000Y-96758000D01*
X147939920Y-119125983D02*
X147597021Y-118783084D01*
X148502000Y-123934000D02*
X148502000Y-119688063D01*
X148502000Y-119688063D02*
X147939920Y-119125983D01*
X151510970Y-114177002D02*
X151853869Y-113834103D01*
X148818648Y-117381427D02*
X148818648Y-116869324D01*
X148818648Y-116869324D02*
X151510970Y-114177002D01*
X161710511Y-96134861D02*
X161569650Y-95994000D01*
X152386878Y-101587734D02*
X152043979Y-101930633D01*
X156400374Y-97574238D02*
X152386878Y-101587734D01*
X163977739Y-96134861D02*
X161710511Y-96134861D01*
X156737928Y-95994000D02*
X156400374Y-96331554D01*
X164857000Y-95833000D02*
X164279600Y-95833000D01*
X164279600Y-95833000D02*
X163977739Y-96134861D01*
X161569650Y-95994000D02*
X156737928Y-95994000D01*
X156400374Y-96331554D02*
X156400374Y-97574238D01*
X125118000Y-113012000D02*
X124665600Y-113012000D01*
X124665600Y-113012000D02*
X122070000Y-115607600D01*
X122070000Y-115607600D02*
X122070000Y-118115067D01*
X122070000Y-118115067D02*
X122070000Y-118600000D01*
X113942000Y-133078000D02*
X113942000Y-130677805D01*
X113942000Y-130677805D02*
X114219125Y-130400680D01*
X125118000Y-113012000D02*
X126045217Y-113012000D01*
X126045217Y-113012000D02*
X126921548Y-112135669D01*
X150443947Y-116842303D02*
X149959014Y-116842303D01*
X150474455Y-116872811D02*
X150443947Y-116842303D01*
X152141855Y-116872811D02*
X150474455Y-116872811D01*
X154052000Y-116384000D02*
X152630666Y-116384000D01*
X152630666Y-116384000D02*
X152141855Y-116872811D01*
X142198398Y-127568976D02*
X142487773Y-127858351D01*
X140629614Y-127568976D02*
X142198398Y-127568976D01*
X151002000Y-123934000D02*
X151002000Y-121847064D01*
X151002000Y-121847064D02*
X151518895Y-121330169D01*
X151518895Y-121330169D02*
X151861794Y-120987270D01*
X149502000Y-97518000D02*
X151396000Y-97518000D01*
X141350090Y-128373413D02*
X141655481Y-128678804D01*
X141655481Y-128678804D02*
X142659402Y-128678804D01*
X140865157Y-128373413D02*
X141350090Y-128373413D01*
X154052000Y-121884000D02*
X154052000Y-122265364D01*
X154052000Y-122265364D02*
X154161115Y-122374479D01*
X154161115Y-122374479D02*
X154504014Y-122717378D01*
X149386000Y-95994000D02*
X151280000Y-95994000D01*
X141534189Y-129365189D02*
X143140520Y-129365189D01*
X141380088Y-129211088D02*
X141534189Y-129365189D01*
X140895155Y-129211088D02*
X141380088Y-129211088D01*
X150221511Y-121384000D02*
X149461928Y-121384000D01*
X149461928Y-121384000D02*
X149160655Y-121082727D01*
X151494554Y-120110957D02*
X150221511Y-121384000D01*
X152262372Y-120110957D02*
X151494554Y-120110957D01*
X152738107Y-120586692D02*
X152262372Y-120110957D01*
X153199600Y-121384000D02*
X152738107Y-120922507D01*
X152738107Y-120922507D02*
X152738107Y-120586692D01*
X154052000Y-121384000D02*
X153199600Y-121384000D01*
X149160655Y-121082727D02*
X149160655Y-120597794D01*
X154052000Y-121384000D02*
X154904400Y-121384000D01*
X155209978Y-121780545D02*
X155209978Y-122265478D01*
X154904400Y-121384000D02*
X155209978Y-121689578D01*
X155209978Y-121689578D02*
X155209978Y-121780545D01*
X149502000Y-94470000D02*
X151396000Y-94470000D01*
X131722000Y-133078000D02*
X131722000Y-132925600D01*
X143565843Y-129992919D02*
X143596304Y-129962458D01*
X141197381Y-129992919D02*
X143565843Y-129992919D01*
X143596304Y-129962458D02*
X143939203Y-129619559D01*
X155101958Y-118384000D02*
X155115458Y-118397500D01*
X154052000Y-118384000D02*
X155101958Y-118384000D01*
X151396000Y-92946000D02*
X149405499Y-92946000D01*
X149255391Y-93096108D02*
X148912492Y-93439007D01*
X149405499Y-92946000D02*
X149255391Y-93096108D01*
X151732804Y-118548948D02*
X150012278Y-120269474D01*
X150012278Y-120269474D02*
X150012278Y-120754407D01*
X153145659Y-118384000D02*
X152980711Y-118548948D01*
X152980711Y-118548948D02*
X151732804Y-118548948D01*
X154052000Y-118384000D02*
X153145659Y-118384000D01*
X138071501Y-127457017D02*
X138403168Y-127457017D01*
X136040000Y-129488518D02*
X138071501Y-127457017D01*
X138403168Y-127457017D02*
X138888101Y-127457017D01*
X136040000Y-129876000D02*
X136040000Y-129488518D01*
X136702000Y-130538000D02*
X136040000Y-129876000D01*
X136802000Y-130538000D02*
X136702000Y-130538000D01*
X153214592Y-117884000D02*
X152854455Y-118244137D01*
X154052000Y-117884000D02*
X153214592Y-117884000D01*
X151676115Y-118244137D02*
X151445189Y-118013211D01*
X152854455Y-118244137D02*
X151676115Y-118244137D01*
X136802000Y-130538000D02*
X136802000Y-133078000D01*
X139942202Y-126857045D02*
X139599303Y-126514146D01*
X139942202Y-129979798D02*
X139942202Y-126857045D01*
X139342000Y-130480000D02*
X139442000Y-130480000D01*
X139442000Y-130480000D02*
X139942202Y-129979798D01*
X140173929Y-119884000D02*
X140102409Y-119812480D01*
X142452000Y-119884000D02*
X140173929Y-119884000D01*
X139342000Y-130480000D02*
X139342000Y-133078000D01*
X102245403Y-112921423D02*
X102730336Y-112921423D01*
X102730336Y-112921423D02*
X104290000Y-111361759D01*
X104290000Y-103283800D02*
X103299400Y-102293200D01*
X104290000Y-111361759D02*
X104290000Y-103283800D01*
X147502000Y-111619255D02*
X147092769Y-111210024D01*
X147092769Y-111210024D02*
X147092769Y-111094437D01*
X147502000Y-112334000D02*
X147502000Y-111619255D01*
X98702000Y-87358000D02*
X98702000Y-87510400D01*
X111975187Y-115590069D02*
X112318086Y-115247170D01*
X111863668Y-115701588D02*
X111975187Y-115590069D01*
X102108412Y-115701588D02*
X111863668Y-115701588D01*
X104632899Y-102559899D02*
X104290000Y-102217000D01*
X104632899Y-111483258D02*
X104632899Y-102559899D01*
X101503957Y-114612200D02*
X104632899Y-111483258D01*
X101019024Y-114612200D02*
X101503957Y-114612200D01*
X147317621Y-113915086D02*
X147660520Y-114257985D01*
X147002000Y-113599465D02*
X147317621Y-113915086D01*
X147002000Y-112334000D02*
X147002000Y-113599465D01*
X134057806Y-105903554D02*
X140638754Y-105903554D01*
X140638754Y-105903554D02*
X145502000Y-110766803D01*
X145502000Y-110766803D02*
X145502000Y-112334000D01*
X106322000Y-87358000D02*
X107164982Y-87358000D01*
X131500910Y-93444538D02*
X132119678Y-93444538D01*
X114175360Y-94368378D02*
X129149732Y-94368378D01*
X129149732Y-94368378D02*
X129416422Y-94101687D01*
X130843761Y-94101687D02*
X131500910Y-93444538D01*
X129416422Y-94101687D02*
X130843761Y-94101687D01*
X107164982Y-87358000D02*
X114175360Y-94368378D01*
X133081620Y-94406480D02*
X133491565Y-94406480D01*
X133491565Y-94406480D02*
X133976498Y-94406480D01*
X132119678Y-93444538D02*
X133081620Y-94406480D01*
X134671780Y-106517529D02*
X140768457Y-106517529D01*
X140768457Y-106517529D02*
X145002000Y-110751072D01*
X145002000Y-110751072D02*
X145002000Y-112334000D01*
X132998870Y-93834979D02*
X134265273Y-93834979D01*
X134265273Y-93834979D02*
X134493875Y-94063581D01*
X108862000Y-87358000D02*
X108862000Y-87510400D01*
X132303618Y-93139727D02*
X132998870Y-93834979D01*
X130717505Y-93796876D02*
X131374654Y-93139727D01*
X108862000Y-87510400D02*
X115415167Y-94063567D01*
X129290166Y-93796876D02*
X130717505Y-93796876D01*
X134493875Y-94063581D02*
X134836774Y-94406480D01*
X115415167Y-94063567D02*
X129023475Y-94063567D01*
X131374654Y-93139727D02*
X132303618Y-93139727D01*
X129023475Y-94063567D02*
X129290166Y-93796876D01*
X134849242Y-93530168D02*
X135611785Y-94292711D01*
X129163910Y-93492065D02*
X130591249Y-93492065D01*
X111402000Y-87358000D02*
X111402000Y-87510400D01*
X111402000Y-87510400D02*
X112418000Y-88526400D01*
X112418000Y-88526400D02*
X112418000Y-88728134D01*
X128897220Y-93758756D02*
X129163910Y-93492065D01*
X130591249Y-93492065D02*
X131248398Y-92834916D01*
X117448622Y-93758756D02*
X128897220Y-93758756D01*
X133125126Y-93530168D02*
X134849242Y-93530168D01*
X132429874Y-92834916D02*
X133125126Y-93530168D01*
X135611785Y-94292711D02*
X135838363Y-94292711D01*
X131248398Y-92834916D02*
X132429874Y-92834916D01*
X112418000Y-88728134D02*
X117448622Y-93758756D01*
X144502000Y-112334000D02*
X144502000Y-110762820D01*
X144502000Y-110762820D02*
X141140055Y-107400875D01*
X141140055Y-107400875D02*
X136040058Y-107400875D01*
X136040058Y-107400875D02*
X135555125Y-107400875D01*
X136840180Y-94089529D02*
X137325113Y-94089529D01*
X135583497Y-93225357D02*
X136447669Y-94089529D01*
X133251382Y-93225357D02*
X135583497Y-93225357D01*
X131122142Y-92530105D02*
X132556130Y-92530105D01*
X128770963Y-93453945D02*
X129037654Y-93187254D01*
X119885545Y-93453945D02*
X128770963Y-93453945D01*
X113942000Y-87510400D02*
X119885545Y-93453945D01*
X113942000Y-87358000D02*
X113942000Y-87510400D01*
X129037654Y-93187254D02*
X130464993Y-93187254D01*
X136447669Y-94089529D02*
X136840180Y-94089529D01*
X130464993Y-93187254D02*
X131122142Y-92530105D01*
X132556130Y-92530105D02*
X133251382Y-93225357D01*
X141599600Y-114081600D02*
X141599600Y-113531600D01*
X142452000Y-114384000D02*
X141902000Y-114384000D01*
X137954417Y-109886417D02*
X137954417Y-108818075D01*
X141599600Y-113531600D02*
X137954417Y-109886417D01*
X141902000Y-114384000D02*
X141599600Y-114081600D01*
X137954417Y-108818075D02*
X137954417Y-108333142D01*
X138770498Y-115826322D02*
X139067678Y-116123502D01*
X139616322Y-116123502D02*
X139855824Y-115884000D01*
X137125423Y-108209172D02*
X137125423Y-108694105D01*
X137125423Y-108694105D02*
X137157677Y-108726359D01*
X139855824Y-115884000D02*
X142452000Y-115884000D01*
X137157677Y-108726359D02*
X137157677Y-111902062D01*
X137157677Y-111902062D02*
X139105815Y-113850200D01*
X139105815Y-113850200D02*
X139105815Y-114858733D01*
X139105815Y-114858733D02*
X138770498Y-115194050D01*
X138770498Y-115194050D02*
X138770498Y-115826322D01*
X139067678Y-116123502D02*
X139616322Y-116123502D01*
X116482000Y-87358000D02*
X116482000Y-87510400D01*
X116482000Y-87510400D02*
X122120734Y-93149134D01*
X128644708Y-93149134D02*
X128911398Y-92882443D01*
X132682386Y-92225294D02*
X133377637Y-92920546D01*
X130995886Y-92225294D02*
X132682386Y-92225294D01*
X136125712Y-92931151D02*
X136468611Y-93274050D01*
X133377637Y-92920546D02*
X136115107Y-92920546D01*
X136115107Y-92920546D02*
X136125712Y-92931151D01*
X122120734Y-93149134D02*
X128644708Y-93149134D01*
X128911398Y-92882443D02*
X130338737Y-92882443D01*
X130338737Y-92882443D02*
X130995886Y-92225294D01*
X136138323Y-108622737D02*
X135795424Y-108279838D01*
X138464775Y-115068706D02*
X138801004Y-114732477D01*
X138464775Y-115951666D02*
X138464775Y-115068706D01*
X138801004Y-114732477D02*
X138801004Y-113976455D01*
X141599600Y-116384000D02*
X141555287Y-116428313D01*
X142452000Y-116384000D02*
X141599600Y-116384000D01*
X141555287Y-116428313D02*
X138941422Y-116428313D01*
X136852866Y-109337280D02*
X136138323Y-108622737D01*
X138941422Y-116428313D02*
X138464775Y-115951666D01*
X136852866Y-112028318D02*
X136852866Y-109337280D01*
X138801004Y-113976455D02*
X136852866Y-112028318D01*
X124355923Y-92844323D02*
X128518451Y-92844323D01*
X119022000Y-87358000D02*
X119022000Y-87510400D01*
X119022000Y-87510400D02*
X124355923Y-92844323D01*
X129712135Y-92577632D02*
X129978844Y-92310923D01*
X128785142Y-92577632D02*
X129712135Y-92577632D01*
X128518451Y-92844323D02*
X128785142Y-92577632D01*
X137767244Y-115685202D02*
X137767244Y-115300976D01*
X137767244Y-115300976D02*
X135938433Y-113472165D01*
X135938433Y-113472165D02*
X135938433Y-111867566D01*
X138892559Y-116810517D02*
X137767244Y-115685202D01*
X142378517Y-116810517D02*
X138892559Y-116810517D01*
X142452000Y-116884000D02*
X142378517Y-116810517D01*
X135938433Y-111867566D02*
X135862180Y-111791313D01*
X135862180Y-111791313D02*
X135862180Y-110016979D01*
X135862180Y-110016979D02*
X132428531Y-106583330D01*
X132428531Y-106583330D02*
X132428531Y-106172391D01*
X132428531Y-106172391D02*
X130900307Y-104644166D01*
X130900307Y-104644166D02*
X130900307Y-103270908D01*
X130900307Y-103270908D02*
X130900307Y-102785975D01*
X130288619Y-91442087D02*
X130631518Y-91784986D01*
X130001856Y-91442087D02*
X130288619Y-91442087D01*
X129171122Y-92272821D02*
X130001856Y-91442087D01*
X121562000Y-87358000D02*
X121562000Y-87510400D01*
X121562000Y-87510400D02*
X126591112Y-92539512D01*
X128392196Y-92539512D02*
X128658886Y-92272821D01*
X128658886Y-92272821D02*
X129171122Y-92272821D01*
X126591112Y-92539512D02*
X128392196Y-92539512D01*
X135633622Y-113598421D02*
X135633622Y-111993822D01*
X137462433Y-115427232D02*
X135633622Y-113598421D01*
X137462433Y-115811458D02*
X137462433Y-115427232D01*
X138797699Y-117146724D02*
X137462433Y-115811458D01*
X141525260Y-117146724D02*
X138797699Y-117146724D01*
X141762536Y-117384000D02*
X141525260Y-117146724D01*
X135633622Y-111993822D02*
X135557369Y-111917569D01*
X135557369Y-111917569D02*
X135557369Y-110147052D01*
X135557369Y-110147052D02*
X132199928Y-106789611D01*
X142452000Y-117384000D02*
X141762536Y-117384000D01*
X132199928Y-106789611D02*
X131857029Y-106446712D01*
X124102000Y-87358000D02*
X124102000Y-87510400D01*
X128297694Y-91706094D02*
X128585022Y-91706094D01*
X124102000Y-87510400D02*
X128297694Y-91706094D01*
X140648891Y-118884000D02*
X139362430Y-117597539D01*
X137157622Y-115553488D02*
X135328811Y-113724677D01*
X142452000Y-118884000D02*
X140648891Y-118884000D01*
X139362430Y-117597539D02*
X138817447Y-117597539D01*
X138817447Y-117597539D02*
X137157622Y-115937714D01*
X137157622Y-115937714D02*
X137157622Y-115553488D01*
X135252558Y-112043825D02*
X135252558Y-110650491D01*
X135328811Y-112120078D02*
X135252558Y-112043825D01*
X135328811Y-113724677D02*
X135328811Y-112120078D01*
X129778899Y-104972899D02*
X129436000Y-104630000D01*
X129778899Y-105176832D02*
X129778899Y-104972899D01*
X135252558Y-110650491D02*
X129778899Y-105176832D01*
X135024000Y-113977933D02*
X135024000Y-112246334D01*
X136852811Y-115806744D02*
X135024000Y-113977933D01*
X136852811Y-116063970D02*
X136852811Y-115806744D01*
X138691191Y-117902350D02*
X136852811Y-116063970D01*
X139236174Y-117902350D02*
X138691191Y-117902350D01*
X140717824Y-119384000D02*
X139236174Y-117902350D01*
X142452000Y-119384000D02*
X140717824Y-119384000D01*
X130198000Y-106892933D02*
X130198000Y-106408000D01*
X130198000Y-107420334D02*
X130198000Y-106892933D01*
X135024000Y-112246334D02*
X130198000Y-107420334D01*
X154052000Y-115884000D02*
X156640380Y-115884000D01*
X156640380Y-115884000D02*
X156970222Y-116213842D01*
X152537288Y-110535520D02*
X152052355Y-110535520D01*
X153764479Y-109688588D02*
X152917547Y-110535520D01*
X155741138Y-109688588D02*
X153764479Y-109688588D01*
X152917547Y-110535520D02*
X152537288Y-110535520D01*
X156233000Y-110180451D02*
X155741138Y-109688588D01*
X156233000Y-111591933D02*
X156233000Y-110180451D01*
X158923067Y-114282000D02*
X156233000Y-111591933D01*
X159408000Y-114282000D02*
X158923067Y-114282000D01*
X153137249Y-115384000D02*
X152260427Y-116260822D01*
X152260427Y-116260822D02*
X151649808Y-116260822D01*
X151649808Y-116260822D02*
X151637116Y-116248130D01*
X151637116Y-116248130D02*
X151152183Y-116248130D01*
X154052000Y-115384000D02*
X153137249Y-115384000D01*
X149212247Y-115032554D02*
X150712093Y-113532708D01*
X150712093Y-113532708D02*
X150712093Y-113525647D01*
X147605496Y-126118378D02*
X147654899Y-126167781D01*
X145690512Y-126118378D02*
X147605496Y-126118378D01*
X144502000Y-123934000D02*
X144502000Y-124929866D01*
X144502000Y-124929866D02*
X145690512Y-126118378D01*
X147292134Y-125701801D02*
X147321414Y-125672521D01*
X145705002Y-125701801D02*
X147292134Y-125701801D01*
X145002000Y-124998799D02*
X145705002Y-125701801D01*
X145002000Y-123934000D02*
X145002000Y-124998799D01*
X147321414Y-125672521D02*
X147664313Y-125329622D01*
X147064483Y-126423189D02*
X147380577Y-126739283D01*
X145564256Y-126423189D02*
X147064483Y-126423189D01*
X144123399Y-124982332D02*
X145564256Y-126423189D01*
X144205707Y-122968811D02*
X144123399Y-123051119D01*
X145389211Y-122968811D02*
X144205707Y-122968811D01*
X145502000Y-123081600D02*
X145389211Y-122968811D01*
X147757628Y-126739283D02*
X147964905Y-126946560D01*
X145502000Y-123934000D02*
X145502000Y-123081600D01*
X147380577Y-126739283D02*
X147757628Y-126739283D01*
X144123399Y-123051119D02*
X144123399Y-124982332D01*
X146412392Y-128055733D02*
X146897325Y-128055733D01*
X142896410Y-126728001D02*
X144224142Y-128055733D01*
X142644001Y-126728001D02*
X142896410Y-126728001D01*
X143957178Y-122664000D02*
X141752710Y-124868468D01*
X146002000Y-123081600D02*
X145584400Y-122664000D01*
X144224142Y-128055733D02*
X146412392Y-128055733D01*
X141752710Y-125836710D02*
X142644001Y-126728001D01*
X141752710Y-124868468D02*
X141752710Y-125836710D01*
X146002000Y-123934000D02*
X146002000Y-123081600D01*
X145584400Y-122664000D02*
X143957178Y-122664000D01*
X155634275Y-126247205D02*
X156525101Y-125356379D01*
X156525101Y-125356379D02*
X156868000Y-125013480D01*
X155634275Y-127883655D02*
X155634275Y-126247205D01*
D49*
X151216500Y-127606000D02*
X151219501Y-127602999D01*
X151219501Y-127602999D02*
X151219501Y-127381677D01*
X151219501Y-127381677D02*
X149759000Y-125921176D01*
X149759000Y-125921176D02*
X149759000Y-125331000D01*
D46*
X150002000Y-124934000D02*
X149759000Y-125177000D01*
X149759000Y-125177000D02*
X149759000Y-125331000D01*
X150002000Y-123934000D02*
X150002000Y-124934000D01*
X150502000Y-123934000D02*
X150502000Y-124934000D01*
X150502000Y-124934000D02*
X150769000Y-125201000D01*
X150769000Y-125201000D02*
X150769000Y-125331000D01*
D47*
X150502000Y-123934000D02*
X150502000Y-124786400D01*
X150502000Y-124786400D02*
X150769000Y-125053400D01*
X150769000Y-125053400D02*
X150769000Y-125502824D01*
D49*
X150769000Y-125502824D02*
X150769000Y-125331000D01*
X152232500Y-127606000D02*
X152229499Y-127602999D01*
X152229499Y-127602999D02*
X152229499Y-126963323D01*
X152229499Y-126963323D02*
X150769000Y-125502824D01*
D47*
X99707000Y-126612000D02*
X103644000Y-126612000D01*
X103644000Y-126612000D02*
X104290000Y-125966000D01*
X142452000Y-118384000D02*
X140957143Y-118384000D01*
X140957143Y-118384000D02*
X140766049Y-118192906D01*
X140766049Y-118192906D02*
X140423150Y-117850007D01*
X99718000Y-126601000D02*
X99818000Y-126601000D01*
X142452000Y-117884000D02*
X141416712Y-117884000D01*
X141416712Y-117884000D02*
X141250938Y-117718226D01*
X138973619Y-109595635D02*
X138973619Y-110296931D01*
X144835171Y-115339148D02*
X144485502Y-115688817D01*
X138973619Y-110296931D02*
X142435863Y-113759175D01*
X142435863Y-113759175D02*
X143037040Y-113759175D01*
X144621444Y-114271473D02*
X144835171Y-114485200D01*
X143037040Y-113759175D02*
X143549337Y-114271473D01*
X143549337Y-114271473D02*
X144621444Y-114271473D01*
X144835171Y-114485200D02*
X144835171Y-115339148D01*
X144485502Y-115688817D02*
X144485502Y-120772435D01*
X144485502Y-120772435D02*
X146502000Y-122788933D01*
X146502000Y-122788933D02*
X146502000Y-123934000D01*
X138031547Y-95946255D02*
X138516480Y-95946255D01*
X111402000Y-100058000D02*
X111402000Y-97695067D01*
X111402000Y-97695067D02*
X113150812Y-95946255D01*
X113150812Y-95946255D02*
X138031547Y-95946255D01*
X139797843Y-109443141D02*
X139797843Y-110088912D01*
X139797843Y-110088912D02*
X143675593Y-113966662D01*
X143675593Y-113966662D02*
X144886098Y-113966662D01*
X144886098Y-113966662D02*
X145139982Y-114220547D01*
X145139982Y-114220547D02*
X145139982Y-115465404D01*
X145139982Y-115465404D02*
X144790313Y-115815073D01*
X144790313Y-115815073D02*
X144790313Y-120646179D01*
X144790313Y-120646179D02*
X147002000Y-122857866D01*
X147002000Y-122857866D02*
X147002000Y-123934000D01*
X112672000Y-99143600D02*
X112418000Y-98889600D01*
X137666252Y-96701020D02*
X138151185Y-96701020D01*
X112672000Y-100058000D02*
X112672000Y-99143600D01*
X112827114Y-96701020D02*
X137666252Y-96701020D01*
X112418000Y-98889600D02*
X112418000Y-97110134D01*
X112418000Y-97110134D02*
X112827114Y-96701020D01*
D46*
X129666599Y-125409599D02*
X129817000Y-125560000D01*
X129817000Y-125560000D02*
X130235700Y-125978700D01*
X129309000Y-121732000D02*
X129309000Y-125052000D01*
X129309000Y-125052000D02*
X129817000Y-125560000D01*
X130579000Y-127077000D02*
X130579000Y-126322000D01*
X130579000Y-126322000D02*
X130808000Y-126093000D01*
X130808000Y-126093000D02*
X132142000Y-126093000D01*
X132142000Y-126093000D02*
X132897000Y-126093000D01*
X127835800Y-125978700D02*
X130235700Y-125978700D01*
X130235700Y-125978700D02*
X130579000Y-126322000D01*
D50*
G36*
X156862921Y-106243079D02*
X157117594Y-106413245D01*
X157418000Y-106473000D01*
X160884370Y-106473000D01*
X160893838Y-106523317D01*
X161032910Y-106739441D01*
X161245110Y-106884431D01*
X161497000Y-106935440D01*
X165176340Y-106935440D01*
X165176340Y-134792500D01*
X157026751Y-134792500D01*
X157175707Y-134764472D01*
X157391831Y-134625400D01*
X157536821Y-134413200D01*
X157587830Y-134161310D01*
X157587830Y-132263930D01*
X157543552Y-132028613D01*
X157404480Y-131812489D01*
X157192280Y-131667499D01*
X156940390Y-131616490D01*
X155043010Y-131616490D01*
X154807693Y-131660768D01*
X154806184Y-131661739D01*
X154815265Y-131652674D01*
X154972980Y-131272854D01*
X154973339Y-130861591D01*
X154816287Y-130481496D01*
X154684921Y-130349900D01*
X155230756Y-130349900D01*
X155650714Y-130769857D01*
X155650716Y-130769860D01*
X155868409Y-130915317D01*
X155905389Y-130940026D01*
X156127289Y-130984166D01*
X156186341Y-131043321D01*
X156545630Y-131192511D01*
X156934663Y-131192850D01*
X157185816Y-131089076D01*
X158617647Y-131089076D01*
X158979986Y-131966003D01*
X159650328Y-132637516D01*
X160526621Y-133001385D01*
X161475456Y-133002213D01*
X162352383Y-132639874D01*
X163023896Y-131969532D01*
X163387765Y-131093239D01*
X163388593Y-130144404D01*
X163026254Y-129267477D01*
X162355912Y-128595964D01*
X161479619Y-128232095D01*
X160530784Y-128231267D01*
X159653857Y-128593606D01*
X158982344Y-129263948D01*
X158618475Y-130140241D01*
X158617647Y-131089076D01*
X157185816Y-131089076D01*
X157294212Y-131044288D01*
X157569540Y-130769440D01*
X157718730Y-130410151D01*
X157719069Y-130021118D01*
X157570507Y-129661569D01*
X157295659Y-129386241D01*
X156936370Y-129237051D01*
X156547337Y-129236712D01*
X156399124Y-129297952D01*
X156110993Y-129009821D01*
X155865884Y-128846045D01*
X156187487Y-128713162D01*
X156462815Y-128438314D01*
X156612005Y-128079025D01*
X156612344Y-127689992D01*
X156463782Y-127330443D01*
X156345475Y-127211929D01*
X156345475Y-126541793D01*
X156895863Y-125991405D01*
X157061663Y-125991549D01*
X157421212Y-125842987D01*
X157593916Y-125670584D01*
X157603838Y-125723317D01*
X157742910Y-125939441D01*
X157955110Y-126084431D01*
X158207000Y-126135440D01*
X159107000Y-126135440D01*
X159342317Y-126091162D01*
X159558441Y-125952090D01*
X159703431Y-125739890D01*
X159711671Y-125699200D01*
X162149300Y-125699200D01*
X162153838Y-125723317D01*
X162292910Y-125939441D01*
X162505110Y-126084431D01*
X162757000Y-126135440D01*
X163657000Y-126135440D01*
X163892317Y-126091162D01*
X164108441Y-125952090D01*
X164253431Y-125739890D01*
X164304440Y-125488000D01*
X164304440Y-124488000D01*
X164260162Y-124252683D01*
X164219519Y-124189522D01*
X164253431Y-124139890D01*
X164304440Y-123888000D01*
X164304440Y-122888000D01*
X164260162Y-122652683D01*
X164121090Y-122436559D01*
X163908890Y-122291569D01*
X163657000Y-122240560D01*
X162757000Y-122240560D01*
X162521683Y-122284838D01*
X162305559Y-122423910D01*
X162183192Y-122603000D01*
X159678192Y-122603000D01*
X159571090Y-122436559D01*
X159358890Y-122291569D01*
X159107000Y-122240560D01*
X158992753Y-122240560D01*
X159041058Y-122192339D01*
X159071997Y-122117829D01*
X159347663Y-122118069D01*
X159707212Y-121969507D01*
X159982540Y-121694659D01*
X160131730Y-121335370D01*
X160132069Y-120946337D01*
X159983507Y-120586788D01*
X159708659Y-120311460D01*
X159434077Y-120197443D01*
X159547780Y-119923616D01*
X159548054Y-119608774D01*
X159558441Y-119602090D01*
X159703431Y-119389890D01*
X159711671Y-119349200D01*
X162149300Y-119349200D01*
X162153838Y-119373317D01*
X162292910Y-119589441D01*
X162505110Y-119734431D01*
X162757000Y-119785440D01*
X163657000Y-119785440D01*
X163892317Y-119741162D01*
X164108441Y-119602090D01*
X164253431Y-119389890D01*
X164304440Y-119138000D01*
X164304440Y-118138000D01*
X164260162Y-117902683D01*
X164219519Y-117839522D01*
X164253431Y-117789890D01*
X164304440Y-117538000D01*
X164304440Y-116538000D01*
X164260162Y-116302683D01*
X164121090Y-116086559D01*
X163908890Y-115941569D01*
X163657000Y-115890560D01*
X162757000Y-115890560D01*
X162521683Y-115934838D01*
X162305559Y-116073910D01*
X162183192Y-116253000D01*
X159678192Y-116253000D01*
X159571090Y-116086559D01*
X159358890Y-115941569D01*
X159107000Y-115890560D01*
X158669718Y-115890560D01*
X157905141Y-115125983D01*
X158151541Y-115126198D01*
X158511090Y-114977636D01*
X158590296Y-114898568D01*
X158650902Y-114939063D01*
X158667181Y-114942301D01*
X158689908Y-114946822D01*
X158853341Y-115110540D01*
X159212630Y-115259730D01*
X159601663Y-115260069D01*
X159961212Y-115111507D01*
X160236540Y-114836659D01*
X160385730Y-114477370D01*
X160386069Y-114088337D01*
X160237507Y-113728788D01*
X159962659Y-113453460D01*
X159603370Y-113304270D01*
X159477521Y-113304160D01*
X159558441Y-113252090D01*
X159703431Y-113039890D01*
X159711671Y-112999200D01*
X162149300Y-112999200D01*
X162153838Y-113023317D01*
X162292910Y-113239441D01*
X162505110Y-113384431D01*
X162757000Y-113435440D01*
X163657000Y-113435440D01*
X163892317Y-113391162D01*
X164108441Y-113252090D01*
X164253431Y-113039890D01*
X164304440Y-112788000D01*
X164304440Y-111788000D01*
X164260162Y-111552683D01*
X164219519Y-111489522D01*
X164253431Y-111439890D01*
X164304440Y-111188000D01*
X164304440Y-110188000D01*
X164260162Y-109952683D01*
X164121090Y-109736559D01*
X163908890Y-109591569D01*
X163657000Y-109540560D01*
X162757000Y-109540560D01*
X162521683Y-109584838D01*
X162305559Y-109723910D01*
X162183192Y-109903000D01*
X159678192Y-109903000D01*
X159571090Y-109736559D01*
X159358890Y-109591569D01*
X159107000Y-109540560D01*
X158619718Y-109540560D01*
X158150079Y-109070921D01*
X157895407Y-108900755D01*
X157846714Y-108891069D01*
X157836090Y-108874559D01*
X157623890Y-108729569D01*
X157372000Y-108678560D01*
X156872000Y-108678560D01*
X156636683Y-108722838D01*
X156420559Y-108861910D01*
X156392451Y-108903047D01*
X156354894Y-108865490D01*
X156124165Y-108711321D01*
X155852000Y-108657184D01*
X154358443Y-108657184D01*
X154502419Y-108441708D01*
X154556556Y-108169544D01*
X154556556Y-105669000D01*
X156288842Y-105669000D01*
X156862921Y-106243079D01*
X156862921Y-106243079D01*
G37*
X156862921Y-106243079D02*
X157117594Y-106413245D01*
X157418000Y-106473000D01*
X160884370Y-106473000D01*
X160893838Y-106523317D01*
X161032910Y-106739441D01*
X161245110Y-106884431D01*
X161497000Y-106935440D01*
X165176340Y-106935440D01*
X165176340Y-134792500D01*
X157026751Y-134792500D01*
X157175707Y-134764472D01*
X157391831Y-134625400D01*
X157536821Y-134413200D01*
X157587830Y-134161310D01*
X157587830Y-132263930D01*
X157543552Y-132028613D01*
X157404480Y-131812489D01*
X157192280Y-131667499D01*
X156940390Y-131616490D01*
X155043010Y-131616490D01*
X154807693Y-131660768D01*
X154806184Y-131661739D01*
X154815265Y-131652674D01*
X154972980Y-131272854D01*
X154973339Y-130861591D01*
X154816287Y-130481496D01*
X154684921Y-130349900D01*
X155230756Y-130349900D01*
X155650714Y-130769857D01*
X155650716Y-130769860D01*
X155868409Y-130915317D01*
X155905389Y-130940026D01*
X156127289Y-130984166D01*
X156186341Y-131043321D01*
X156545630Y-131192511D01*
X156934663Y-131192850D01*
X157185816Y-131089076D01*
X158617647Y-131089076D01*
X158979986Y-131966003D01*
X159650328Y-132637516D01*
X160526621Y-133001385D01*
X161475456Y-133002213D01*
X162352383Y-132639874D01*
X163023896Y-131969532D01*
X163387765Y-131093239D01*
X163388593Y-130144404D01*
X163026254Y-129267477D01*
X162355912Y-128595964D01*
X161479619Y-128232095D01*
X160530784Y-128231267D01*
X159653857Y-128593606D01*
X158982344Y-129263948D01*
X158618475Y-130140241D01*
X158617647Y-131089076D01*
X157185816Y-131089076D01*
X157294212Y-131044288D01*
X157569540Y-130769440D01*
X157718730Y-130410151D01*
X157719069Y-130021118D01*
X157570507Y-129661569D01*
X157295659Y-129386241D01*
X156936370Y-129237051D01*
X156547337Y-129236712D01*
X156399124Y-129297952D01*
X156110993Y-129009821D01*
X155865884Y-128846045D01*
X156187487Y-128713162D01*
X156462815Y-128438314D01*
X156612005Y-128079025D01*
X156612344Y-127689992D01*
X156463782Y-127330443D01*
X156345475Y-127211929D01*
X156345475Y-126541793D01*
X156895863Y-125991405D01*
X157061663Y-125991549D01*
X157421212Y-125842987D01*
X157593916Y-125670584D01*
X157603838Y-125723317D01*
X157742910Y-125939441D01*
X157955110Y-126084431D01*
X158207000Y-126135440D01*
X159107000Y-126135440D01*
X159342317Y-126091162D01*
X159558441Y-125952090D01*
X159703431Y-125739890D01*
X159711671Y-125699200D01*
X162149300Y-125699200D01*
X162153838Y-125723317D01*
X162292910Y-125939441D01*
X162505110Y-126084431D01*
X162757000Y-126135440D01*
X163657000Y-126135440D01*
X163892317Y-126091162D01*
X164108441Y-125952090D01*
X164253431Y-125739890D01*
X164304440Y-125488000D01*
X164304440Y-124488000D01*
X164260162Y-124252683D01*
X164219519Y-124189522D01*
X164253431Y-124139890D01*
X164304440Y-123888000D01*
X164304440Y-122888000D01*
X164260162Y-122652683D01*
X164121090Y-122436559D01*
X163908890Y-122291569D01*
X163657000Y-122240560D01*
X162757000Y-122240560D01*
X162521683Y-122284838D01*
X162305559Y-122423910D01*
X162183192Y-122603000D01*
X159678192Y-122603000D01*
X159571090Y-122436559D01*
X159358890Y-122291569D01*
X159107000Y-122240560D01*
X158992753Y-122240560D01*
X159041058Y-122192339D01*
X159071997Y-122117829D01*
X159347663Y-122118069D01*
X159707212Y-121969507D01*
X159982540Y-121694659D01*
X160131730Y-121335370D01*
X160132069Y-120946337D01*
X159983507Y-120586788D01*
X159708659Y-120311460D01*
X159434077Y-120197443D01*
X159547780Y-119923616D01*
X159548054Y-119608774D01*
X159558441Y-119602090D01*
X159703431Y-119389890D01*
X159711671Y-119349200D01*
X162149300Y-119349200D01*
X162153838Y-119373317D01*
X162292910Y-119589441D01*
X162505110Y-119734431D01*
X162757000Y-119785440D01*
X163657000Y-119785440D01*
X163892317Y-119741162D01*
X164108441Y-119602090D01*
X164253431Y-119389890D01*
X164304440Y-119138000D01*
X164304440Y-118138000D01*
X164260162Y-117902683D01*
X164219519Y-117839522D01*
X164253431Y-117789890D01*
X164304440Y-117538000D01*
X164304440Y-116538000D01*
X164260162Y-116302683D01*
X164121090Y-116086559D01*
X163908890Y-115941569D01*
X163657000Y-115890560D01*
X162757000Y-115890560D01*
X162521683Y-115934838D01*
X162305559Y-116073910D01*
X162183192Y-116253000D01*
X159678192Y-116253000D01*
X159571090Y-116086559D01*
X159358890Y-115941569D01*
X159107000Y-115890560D01*
X158669718Y-115890560D01*
X157905141Y-115125983D01*
X158151541Y-115126198D01*
X158511090Y-114977636D01*
X158590296Y-114898568D01*
X158650902Y-114939063D01*
X158667181Y-114942301D01*
X158689908Y-114946822D01*
X158853341Y-115110540D01*
X159212630Y-115259730D01*
X159601663Y-115260069D01*
X159961212Y-115111507D01*
X160236540Y-114836659D01*
X160385730Y-114477370D01*
X160386069Y-114088337D01*
X160237507Y-113728788D01*
X159962659Y-113453460D01*
X159603370Y-113304270D01*
X159477521Y-113304160D01*
X159558441Y-113252090D01*
X159703431Y-113039890D01*
X159711671Y-112999200D01*
X162149300Y-112999200D01*
X162153838Y-113023317D01*
X162292910Y-113239441D01*
X162505110Y-113384431D01*
X162757000Y-113435440D01*
X163657000Y-113435440D01*
X163892317Y-113391162D01*
X164108441Y-113252090D01*
X164253431Y-113039890D01*
X164304440Y-112788000D01*
X164304440Y-111788000D01*
X164260162Y-111552683D01*
X164219519Y-111489522D01*
X164253431Y-111439890D01*
X164304440Y-111188000D01*
X164304440Y-110188000D01*
X164260162Y-109952683D01*
X164121090Y-109736559D01*
X163908890Y-109591569D01*
X163657000Y-109540560D01*
X162757000Y-109540560D01*
X162521683Y-109584838D01*
X162305559Y-109723910D01*
X162183192Y-109903000D01*
X159678192Y-109903000D01*
X159571090Y-109736559D01*
X159358890Y-109591569D01*
X159107000Y-109540560D01*
X158619718Y-109540560D01*
X158150079Y-109070921D01*
X157895407Y-108900755D01*
X157846714Y-108891069D01*
X157836090Y-108874559D01*
X157623890Y-108729569D01*
X157372000Y-108678560D01*
X156872000Y-108678560D01*
X156636683Y-108722838D01*
X156420559Y-108861910D01*
X156392451Y-108903047D01*
X156354894Y-108865490D01*
X156124165Y-108711321D01*
X155852000Y-108657184D01*
X154358443Y-108657184D01*
X154502419Y-108441708D01*
X154556556Y-108169544D01*
X154556556Y-105669000D01*
X156288842Y-105669000D01*
X156862921Y-106243079D01*
G36*
X94650960Y-88374000D02*
X94695238Y-88609317D01*
X94834310Y-88825441D01*
X95046510Y-88970431D01*
X95298400Y-89021440D01*
X95653858Y-89021440D01*
X95659106Y-89029294D01*
X96268706Y-89638895D01*
X96499436Y-89793063D01*
X96771600Y-89847200D01*
X107786260Y-89847200D01*
X113174114Y-95235055D01*
X113150812Y-95235055D01*
X112878648Y-95289192D01*
X112647918Y-95443360D01*
X110899106Y-97192173D01*
X110744937Y-97422902D01*
X110715262Y-97572090D01*
X110690800Y-97695067D01*
X110690800Y-98658847D01*
X110640000Y-98648560D01*
X109624000Y-98648560D01*
X109492338Y-98673334D01*
X109370000Y-98648560D01*
X108354000Y-98648560D01*
X108222338Y-98673334D01*
X108100000Y-98648560D01*
X107084000Y-98648560D01*
X106952338Y-98673334D01*
X106830000Y-98648560D01*
X105814000Y-98648560D01*
X105682338Y-98673334D01*
X105560000Y-98648560D01*
X104544000Y-98648560D01*
X104412338Y-98673334D01*
X104290000Y-98648560D01*
X103274000Y-98648560D01*
X103142338Y-98673334D01*
X103020000Y-98648560D01*
X102004000Y-98648560D01*
X101872338Y-98673334D01*
X101750000Y-98648560D01*
X100734000Y-98648560D01*
X100602338Y-98673334D01*
X100480000Y-98648560D01*
X99464000Y-98648560D01*
X99332338Y-98673334D01*
X99210000Y-98648560D01*
X98194000Y-98648560D01*
X98062338Y-98673334D01*
X97940000Y-98648560D01*
X96924000Y-98648560D01*
X96792338Y-98673334D01*
X96670000Y-98648560D01*
X95654000Y-98648560D01*
X95522338Y-98673334D01*
X95400000Y-98648560D01*
X94384000Y-98648560D01*
X94148683Y-98692838D01*
X93932559Y-98831910D01*
X93787569Y-99044110D01*
X93736560Y-99296000D01*
X93736560Y-100820000D01*
X93780838Y-101055317D01*
X93919910Y-101271441D01*
X94132110Y-101416431D01*
X94384000Y-101467440D01*
X95400000Y-101467440D01*
X95531662Y-101442666D01*
X95654000Y-101467440D01*
X96670000Y-101467440D01*
X96801662Y-101442666D01*
X96924000Y-101467440D01*
X97940000Y-101467440D01*
X98071662Y-101442666D01*
X98194000Y-101467440D01*
X99210000Y-101467440D01*
X99341662Y-101442666D01*
X99464000Y-101467440D01*
X100480000Y-101467440D01*
X100611662Y-101442666D01*
X100734000Y-101467440D01*
X101750000Y-101467440D01*
X101881662Y-101442666D01*
X102004000Y-101467440D01*
X102742434Y-101467440D01*
X102470860Y-101738541D01*
X102321670Y-102097830D01*
X102321331Y-102486863D01*
X102469893Y-102846412D01*
X102744741Y-103121740D01*
X103104030Y-103270930D01*
X103271488Y-103271076D01*
X103578800Y-103578388D01*
X103578800Y-111067171D01*
X102625551Y-112020420D01*
X102440773Y-111943693D01*
X102051740Y-111943354D01*
X101692191Y-112091916D01*
X101416863Y-112366764D01*
X101267673Y-112726053D01*
X101267334Y-113115086D01*
X101415896Y-113474635D01*
X101525719Y-113584650D01*
X101399172Y-113711197D01*
X101214394Y-113634470D01*
X100825361Y-113634131D01*
X100465812Y-113782693D01*
X100190484Y-114057541D01*
X100041294Y-114416830D01*
X100040955Y-114805863D01*
X100189517Y-115165412D01*
X100464365Y-115440740D01*
X100678111Y-115529495D01*
X100678111Y-116011333D01*
X100737866Y-116311740D01*
X100815922Y-116428560D01*
X100734000Y-116428560D01*
X100602338Y-116453334D01*
X100480000Y-116428560D01*
X99464000Y-116428560D01*
X99332338Y-116453334D01*
X99210000Y-116428560D01*
X98194000Y-116428560D01*
X98062338Y-116453334D01*
X97940000Y-116428560D01*
X96924000Y-116428560D01*
X96792338Y-116453334D01*
X96670000Y-116428560D01*
X95654000Y-116428560D01*
X95522338Y-116453334D01*
X95400000Y-116428560D01*
X94384000Y-116428560D01*
X94148683Y-116472838D01*
X93932559Y-116611910D01*
X93787569Y-116824110D01*
X93736560Y-117076000D01*
X93736560Y-118600000D01*
X93780838Y-118835317D01*
X93919910Y-119051441D01*
X94132110Y-119196431D01*
X94384000Y-119247440D01*
X95400000Y-119247440D01*
X95531662Y-119222666D01*
X95654000Y-119247440D01*
X96670000Y-119247440D01*
X96801662Y-119222666D01*
X96924000Y-119247440D01*
X97940000Y-119247440D01*
X98071662Y-119222666D01*
X98194000Y-119247440D01*
X99210000Y-119247440D01*
X99260800Y-119237881D01*
X99260800Y-119629982D01*
X98265106Y-120625676D01*
X98244314Y-120656794D01*
X98132633Y-120677808D01*
X97916509Y-120816880D01*
X97771519Y-121029080D01*
X97720510Y-121280970D01*
X97720510Y-122081070D01*
X97764788Y-122316387D01*
X97903860Y-122532511D01*
X98050213Y-122632510D01*
X97417950Y-122632510D01*
X97182633Y-122676788D01*
X96966509Y-122815860D01*
X96821519Y-123028060D01*
X96770510Y-123279950D01*
X96770510Y-124080050D01*
X96814788Y-124315367D01*
X96953860Y-124531491D01*
X97166060Y-124676481D01*
X97417950Y-124727490D01*
X98218050Y-124727490D01*
X98453367Y-124683212D01*
X98669491Y-124544140D01*
X98768632Y-124399043D01*
X98853860Y-124531491D01*
X99006800Y-124635990D01*
X99006800Y-125000800D01*
X98489630Y-125000800D01*
X98364890Y-124915569D01*
X98113000Y-124864560D01*
X97513000Y-124864560D01*
X97277683Y-124908838D01*
X97061559Y-125047910D01*
X96916569Y-125260110D01*
X96865560Y-125512000D01*
X96865560Y-125912000D01*
X96909838Y-126147317D01*
X96917342Y-126158979D01*
X96916569Y-126160110D01*
X96892564Y-126278651D01*
X96835270Y-126416630D01*
X96834931Y-126805663D01*
X96888982Y-126936477D01*
X96909838Y-127047317D01*
X96979531Y-127155623D01*
X96983493Y-127165212D01*
X96989707Y-127171437D01*
X97048910Y-127263441D01*
X97151579Y-127333592D01*
X97258341Y-127440540D01*
X97617630Y-127589730D01*
X98006663Y-127590069D01*
X98366212Y-127441507D01*
X98472928Y-127334977D01*
X98564441Y-127276090D01*
X98634217Y-127173969D01*
X98641540Y-127166659D01*
X98645147Y-127157973D01*
X98709431Y-127063890D01*
X98733436Y-126945349D01*
X98768680Y-126860471D01*
X98803838Y-127047317D01*
X98942910Y-127263441D01*
X99155110Y-127408431D01*
X99407000Y-127459440D01*
X100007000Y-127459440D01*
X100242317Y-127415162D01*
X100385230Y-127323200D01*
X103644000Y-127323200D01*
X103916165Y-127269063D01*
X104146894Y-127114894D01*
X104317863Y-126943925D01*
X104483663Y-126944069D01*
X104843212Y-126795507D01*
X105118540Y-126520659D01*
X105267730Y-126161370D01*
X105268069Y-125772337D01*
X105119507Y-125412788D01*
X104844659Y-125137460D01*
X104485370Y-124988270D01*
X104096337Y-124987931D01*
X103736788Y-125136493D01*
X103701327Y-125171892D01*
X103690018Y-125144523D01*
X103669162Y-125033683D01*
X103661658Y-125022021D01*
X103662431Y-125020890D01*
X103713440Y-124769000D01*
X103713440Y-124369000D01*
X103669162Y-124133683D01*
X103652206Y-124107333D01*
X103762481Y-123945940D01*
X103813490Y-123694050D01*
X103813490Y-123072090D01*
X103826603Y-123103748D01*
X104005231Y-123282377D01*
X104238620Y-123379050D01*
X104479230Y-123379050D01*
X104637980Y-123220300D01*
X104637980Y-122471000D01*
X104891980Y-122471000D01*
X104891980Y-123220300D01*
X105050730Y-123379050D01*
X105291340Y-123379050D01*
X105524729Y-123282377D01*
X105703357Y-123103748D01*
X105800030Y-122870359D01*
X105800030Y-122629750D01*
X105641280Y-122471000D01*
X104891980Y-122471000D01*
X104637980Y-122471000D01*
X103888680Y-122471000D01*
X103742523Y-122617157D01*
X103630140Y-122442509D01*
X103485043Y-122343368D01*
X103617491Y-122258140D01*
X103744271Y-122072591D01*
X103888680Y-122217000D01*
X104637980Y-122217000D01*
X104637980Y-121467700D01*
X104891980Y-121467700D01*
X104891980Y-122217000D01*
X105641280Y-122217000D01*
X105800030Y-122058250D01*
X105800030Y-121817641D01*
X105703357Y-121584252D01*
X105524729Y-121405623D01*
X105291340Y-121308950D01*
X105050730Y-121308950D01*
X104891980Y-121467700D01*
X104637980Y-121467700D01*
X104479230Y-121308950D01*
X104238620Y-121308950D01*
X104005231Y-121405623D01*
X103826603Y-121584252D01*
X103813490Y-121615910D01*
X103813490Y-120993950D01*
X103769212Y-120758633D01*
X103630140Y-120542509D01*
X103551000Y-120488435D01*
X103551000Y-119247440D01*
X104290000Y-119247440D01*
X104421662Y-119222666D01*
X104544000Y-119247440D01*
X105560000Y-119247440D01*
X105691662Y-119222666D01*
X105814000Y-119247440D01*
X106830000Y-119247440D01*
X106961662Y-119222666D01*
X107084000Y-119247440D01*
X108100000Y-119247440D01*
X108231662Y-119222666D01*
X108354000Y-119247440D01*
X109370000Y-119247440D01*
X109501662Y-119222666D01*
X109624000Y-119247440D01*
X110640000Y-119247440D01*
X110771662Y-119222666D01*
X110894000Y-119247440D01*
X111910000Y-119247440D01*
X112041662Y-119222666D01*
X112164000Y-119247440D01*
X113180000Y-119247440D01*
X113311662Y-119222666D01*
X113434000Y-119247440D01*
X114450000Y-119247440D01*
X114581662Y-119222666D01*
X114704000Y-119247440D01*
X115720000Y-119247440D01*
X115851662Y-119222666D01*
X115974000Y-119247440D01*
X116990000Y-119247440D01*
X117121662Y-119222666D01*
X117244000Y-119247440D01*
X118260000Y-119247440D01*
X118391662Y-119222666D01*
X118514000Y-119247440D01*
X119530000Y-119247440D01*
X119765317Y-119203162D01*
X119981441Y-119064090D01*
X120126431Y-118851890D01*
X120177440Y-118600000D01*
X120177440Y-117076000D01*
X120133162Y-116840683D01*
X119994090Y-116624559D01*
X119807000Y-116496726D01*
X119807000Y-111959123D01*
X119850540Y-111915659D01*
X119999730Y-111556370D01*
X120000069Y-111167337D01*
X119851507Y-110807788D01*
X119576659Y-110532460D01*
X119217370Y-110383270D01*
X118828337Y-110382931D01*
X118468788Y-110531493D01*
X118193460Y-110806341D01*
X118044270Y-111165630D01*
X118043931Y-111554663D01*
X118192493Y-111914212D01*
X118237000Y-111958797D01*
X118237000Y-116428560D01*
X117244000Y-116428560D01*
X117112338Y-116453334D01*
X116990000Y-116428560D01*
X115974000Y-116428560D01*
X115842338Y-116453334D01*
X115720000Y-116428560D01*
X114704000Y-116428560D01*
X114572338Y-116453334D01*
X114450000Y-116428560D01*
X113434000Y-116428560D01*
X113302338Y-116453334D01*
X113180000Y-116428560D01*
X112164000Y-116428560D01*
X112032338Y-116453334D01*
X111910000Y-116428560D01*
X110894000Y-116428560D01*
X110762338Y-116453334D01*
X110640000Y-116428560D01*
X109624000Y-116428560D01*
X109492338Y-116453334D01*
X109370000Y-116428560D01*
X108354000Y-116428560D01*
X108222338Y-116453334D01*
X108100000Y-116428560D01*
X107084000Y-116428560D01*
X106952338Y-116453334D01*
X106830000Y-116428560D01*
X105814000Y-116428560D01*
X105682338Y-116453334D01*
X105560000Y-116428560D01*
X104544000Y-116428560D01*
X104412338Y-116453334D01*
X104290000Y-116428560D01*
X103274000Y-116428560D01*
X103142338Y-116453334D01*
X103020000Y-116428560D01*
X102990496Y-116428560D01*
X102974724Y-116412788D01*
X111863668Y-116412788D01*
X112135833Y-116358651D01*
X112335727Y-116225086D01*
X112511749Y-116225239D01*
X112871298Y-116076677D01*
X113146626Y-115801829D01*
X113295816Y-115442540D01*
X113296155Y-115053507D01*
X113147593Y-114693958D01*
X112872745Y-114418630D01*
X112513456Y-114269440D01*
X112124423Y-114269101D01*
X111764874Y-114417663D01*
X111489546Y-114692511D01*
X111365857Y-114990388D01*
X102974723Y-114990388D01*
X105607079Y-112358031D01*
X105777245Y-112103358D01*
X105837000Y-111802952D01*
X105837000Y-101467440D01*
X106830000Y-101467440D01*
X106961662Y-101442666D01*
X107084000Y-101467440D01*
X108100000Y-101467440D01*
X108231662Y-101442666D01*
X108354000Y-101467440D01*
X109370000Y-101467440D01*
X109501662Y-101442666D01*
X109624000Y-101467440D01*
X110640000Y-101467440D01*
X110771662Y-101442666D01*
X110894000Y-101467440D01*
X111910000Y-101467440D01*
X112041662Y-101442666D01*
X112164000Y-101467440D01*
X113180000Y-101467440D01*
X113311662Y-101442666D01*
X113434000Y-101467440D01*
X114450000Y-101467440D01*
X114581662Y-101442666D01*
X114704000Y-101467440D01*
X115720000Y-101467440D01*
X115851662Y-101442666D01*
X115974000Y-101467440D01*
X116990000Y-101467440D01*
X117121662Y-101442666D01*
X117244000Y-101467440D01*
X118260000Y-101467440D01*
X118391662Y-101442666D01*
X118514000Y-101467440D01*
X119530000Y-101467440D01*
X119765317Y-101423162D01*
X119981441Y-101284090D01*
X120126431Y-101071890D01*
X120177440Y-100820000D01*
X120177440Y-100566691D01*
X140739000Y-100566691D01*
X140739000Y-100915250D01*
X140897750Y-101074000D01*
X142517000Y-101074000D01*
X142517000Y-100216750D01*
X142358250Y-100058000D01*
X141247690Y-100058000D01*
X141014301Y-100154673D01*
X140835673Y-100333302D01*
X140739000Y-100566691D01*
X120177440Y-100566691D01*
X120177440Y-99296000D01*
X120133162Y-99060683D01*
X119994090Y-98844559D01*
X119781890Y-98699569D01*
X119530000Y-98648560D01*
X118514000Y-98648560D01*
X118382338Y-98673334D01*
X118260000Y-98648560D01*
X117244000Y-98648560D01*
X117112338Y-98673334D01*
X116990000Y-98648560D01*
X115974000Y-98648560D01*
X115842338Y-98673334D01*
X115720000Y-98648560D01*
X114704000Y-98648560D01*
X114572338Y-98673334D01*
X114450000Y-98648560D01*
X113434000Y-98648560D01*
X113302338Y-98673334D01*
X113180165Y-98648593D01*
X113174894Y-98640705D01*
X113129200Y-98595011D01*
X113129200Y-97412220D01*
X137479391Y-97412220D01*
X137596526Y-97529560D01*
X137612935Y-97536373D01*
X137612868Y-97612734D01*
X137761430Y-97972283D01*
X138036278Y-98247611D01*
X138268061Y-98343856D01*
X138383662Y-98623632D01*
X138658510Y-98898960D01*
X139017799Y-99048150D01*
X139406832Y-99048489D01*
X139766381Y-98899927D01*
X140041709Y-98625079D01*
X140190899Y-98265790D01*
X140191102Y-98032653D01*
X140195548Y-98026000D01*
X140213131Y-97999685D01*
X140267268Y-97727521D01*
X140267268Y-94652498D01*
X140213131Y-94380334D01*
X140200676Y-94361694D01*
X140058963Y-94149604D01*
X137737000Y-91827642D01*
X137737000Y-91818750D01*
X137578250Y-91660000D01*
X137495847Y-91660000D01*
X137486659Y-91653861D01*
X137214494Y-91599724D01*
X134228064Y-91599724D01*
X134320349Y-91507440D01*
X134562000Y-91507440D01*
X134797317Y-91463162D01*
X134802231Y-91460000D01*
X135038250Y-91460000D01*
X135197000Y-91301250D01*
X135197000Y-91233691D01*
X135151033Y-91122717D01*
X135158431Y-91111890D01*
X135209440Y-90860000D01*
X135209440Y-90460000D01*
X135165162Y-90224683D01*
X135026090Y-90008559D01*
X134973200Y-89972421D01*
X134973200Y-88835255D01*
X135321670Y-88602415D01*
X135532000Y-88287634D01*
X135742330Y-88602415D01*
X136090800Y-88835255D01*
X136090800Y-88972206D01*
X135973460Y-89089341D01*
X135824270Y-89448630D01*
X135823931Y-89837663D01*
X135950079Y-90142967D01*
X135905569Y-90208110D01*
X135854560Y-90460000D01*
X135854560Y-90860000D01*
X135898838Y-91095317D01*
X135914339Y-91119406D01*
X135867000Y-91233691D01*
X135867000Y-91301250D01*
X136025750Y-91460000D01*
X136267734Y-91460000D01*
X136502000Y-91507440D01*
X137102000Y-91507440D01*
X137337317Y-91463162D01*
X137342231Y-91460000D01*
X137578250Y-91460000D01*
X137737000Y-91301250D01*
X137737000Y-91233691D01*
X137691033Y-91122717D01*
X137698431Y-91111890D01*
X137749440Y-90860000D01*
X137749440Y-90460000D01*
X137705162Y-90224683D01*
X137653239Y-90143993D01*
X137779730Y-89839370D01*
X137780069Y-89450337D01*
X137631507Y-89090788D01*
X137513200Y-88972274D01*
X137513200Y-88835255D01*
X137861670Y-88602415D01*
X138072000Y-88287634D01*
X138282330Y-88602415D01*
X138768511Y-88927271D01*
X139342000Y-89041345D01*
X139915489Y-88927271D01*
X140401670Y-88602415D01*
X140612000Y-88287634D01*
X140822330Y-88602415D01*
X141308511Y-88927271D01*
X141882000Y-89041345D01*
X142455489Y-88927271D01*
X142941670Y-88602415D01*
X143152000Y-88287634D01*
X143362330Y-88602415D01*
X143710800Y-88835255D01*
X143710800Y-89835608D01*
X143706659Y-89831460D01*
X143347370Y-89682270D01*
X142958337Y-89681931D01*
X142598788Y-89830493D01*
X142323460Y-90105341D01*
X142174270Y-90464630D01*
X142173931Y-90853663D01*
X142322493Y-91213212D01*
X142597341Y-91488540D01*
X142956630Y-91637730D01*
X143345663Y-91638069D01*
X143487000Y-91579670D01*
X143487000Y-91687002D01*
X143618748Y-91687002D01*
X143487000Y-91818750D01*
X143487000Y-91886309D01*
X143583673Y-92119698D01*
X143762301Y-92298327D01*
X143995690Y-92395000D01*
X144136250Y-92395000D01*
X144295000Y-92236250D01*
X144295000Y-91660000D01*
X144549000Y-91660000D01*
X144549000Y-92236250D01*
X144707750Y-92395000D01*
X144848310Y-92395000D01*
X145081699Y-92298327D01*
X145260327Y-92119698D01*
X145357000Y-91886309D01*
X145357000Y-91818750D01*
X146027000Y-91818750D01*
X146027000Y-91886309D01*
X146123673Y-92119698D01*
X146302301Y-92298327D01*
X146535690Y-92395000D01*
X146676250Y-92395000D01*
X146835000Y-92236250D01*
X146835000Y-91660000D01*
X146185750Y-91660000D01*
X146027000Y-91818750D01*
X145357000Y-91818750D01*
X145198250Y-91660000D01*
X144549000Y-91660000D01*
X144295000Y-91660000D01*
X144275000Y-91660000D01*
X144275000Y-91507440D01*
X144722000Y-91507440D01*
X144957317Y-91463162D01*
X144962231Y-91460000D01*
X145198250Y-91460000D01*
X145357000Y-91301250D01*
X145357000Y-91233691D01*
X145311033Y-91122717D01*
X145318431Y-91111890D01*
X145369440Y-90860000D01*
X145369440Y-90460000D01*
X145325162Y-90224683D01*
X145186090Y-90008559D01*
X145133200Y-89972421D01*
X145133200Y-88835255D01*
X145481670Y-88602415D01*
X145692000Y-88287634D01*
X145902330Y-88602415D01*
X146250800Y-88835255D01*
X146250800Y-89970016D01*
X146210559Y-89995910D01*
X146065569Y-90208110D01*
X146014560Y-90460000D01*
X146014560Y-90860000D01*
X146058838Y-91095317D01*
X146074339Y-91119406D01*
X146027000Y-91233691D01*
X146027000Y-91301250D01*
X146185750Y-91460000D01*
X146427734Y-91460000D01*
X146662000Y-91507440D01*
X147109000Y-91507440D01*
X147109000Y-91660000D01*
X147089000Y-91660000D01*
X147089000Y-92236250D01*
X147247750Y-92395000D01*
X147388310Y-92395000D01*
X147621699Y-92298327D01*
X147800327Y-92119698D01*
X147897000Y-91886309D01*
X147897000Y-91818750D01*
X147765252Y-91687002D01*
X147897000Y-91687002D01*
X147897000Y-91637830D01*
X148171663Y-91638069D01*
X148531212Y-91489507D01*
X148806540Y-91214659D01*
X148858653Y-91089156D01*
X158617647Y-91089156D01*
X158979986Y-91966083D01*
X159650328Y-92637596D01*
X160526621Y-93001465D01*
X161475456Y-93002293D01*
X162352383Y-92639954D01*
X163023896Y-91969612D01*
X163387765Y-91093319D01*
X163388593Y-90144484D01*
X163026254Y-89267557D01*
X162355912Y-88596044D01*
X161479619Y-88232175D01*
X160530784Y-88231347D01*
X159653857Y-88593686D01*
X158982344Y-89264028D01*
X158618475Y-90140321D01*
X158617647Y-91089156D01*
X148858653Y-91089156D01*
X148955730Y-90855370D01*
X148956069Y-90466337D01*
X148807507Y-90106788D01*
X148532659Y-89831460D01*
X148173370Y-89682270D01*
X147784337Y-89681931D01*
X147673200Y-89727852D01*
X147673200Y-88835255D01*
X148021670Y-88602415D01*
X148232000Y-88287634D01*
X148442330Y-88602415D01*
X148928511Y-88927271D01*
X149502000Y-89041345D01*
X150075489Y-88927271D01*
X150561670Y-88602415D01*
X150772000Y-88287634D01*
X150982330Y-88602415D01*
X151468511Y-88927271D01*
X152042000Y-89041345D01*
X152615489Y-88927271D01*
X153101670Y-88602415D01*
X153312000Y-88287634D01*
X153522330Y-88602415D01*
X154008511Y-88927271D01*
X154582000Y-89041345D01*
X155155489Y-88927271D01*
X155641670Y-88602415D01*
X155852000Y-88287634D01*
X156062330Y-88602415D01*
X156548511Y-88927271D01*
X157122000Y-89041345D01*
X157695489Y-88927271D01*
X158181670Y-88602415D01*
X158506526Y-88116234D01*
X158620600Y-87542745D01*
X158620600Y-87173255D01*
X158506526Y-86599766D01*
X158402179Y-86443600D01*
X163329862Y-86443600D01*
X163062697Y-86553990D01*
X162669371Y-86946630D01*
X162456243Y-87459900D01*
X162455758Y-88015661D01*
X162667990Y-88529303D01*
X163060630Y-88922629D01*
X163573900Y-89135757D01*
X164129661Y-89136242D01*
X164643303Y-88924010D01*
X165036629Y-88531370D01*
X165176340Y-88194908D01*
X165176340Y-94710560D01*
X164829440Y-94710560D01*
X164829440Y-94408000D01*
X164785162Y-94172683D01*
X164646090Y-93956559D01*
X164433890Y-93811569D01*
X164182000Y-93760560D01*
X163582000Y-93760560D01*
X163452411Y-93784944D01*
X163332000Y-93760560D01*
X161932000Y-93760560D01*
X161696683Y-93804838D01*
X161480559Y-93943910D01*
X161335569Y-94156110D01*
X161284560Y-94408000D01*
X161284560Y-95282800D01*
X156737928Y-95282800D01*
X156465764Y-95336937D01*
X156421623Y-95366431D01*
X156332922Y-95425699D01*
X156320542Y-95359903D01*
X156237998Y-95231626D01*
X156313811Y-95120670D01*
X156364820Y-94868780D01*
X156364820Y-94071220D01*
X156325125Y-93860259D01*
X156680663Y-93860569D01*
X157040212Y-93712007D01*
X157315540Y-93437159D01*
X157464730Y-93077870D01*
X157465069Y-92688837D01*
X157316507Y-92329288D01*
X157041659Y-92053960D01*
X156682370Y-91904770D01*
X156293337Y-91904431D01*
X156049112Y-92005342D01*
X155969270Y-91950789D01*
X155717380Y-91899780D01*
X154919820Y-91899780D01*
X154684503Y-91944058D01*
X154569307Y-92018185D01*
X154470670Y-91950789D01*
X154218780Y-91899780D01*
X153421220Y-91899780D01*
X153185903Y-91944058D01*
X152969779Y-92083130D01*
X152914791Y-92163608D01*
X152747890Y-92049569D01*
X152496000Y-91998560D01*
X152096000Y-91998560D01*
X151860683Y-92042838D01*
X151849021Y-92050342D01*
X151847890Y-92049569D01*
X151596000Y-91998560D01*
X151196000Y-91998560D01*
X150960683Y-92042838D01*
X150744559Y-92181910D01*
X150708421Y-92234800D01*
X149405499Y-92234800D01*
X149133334Y-92288937D01*
X148902605Y-92443105D01*
X148884628Y-92461082D01*
X148718829Y-92460938D01*
X148359280Y-92609500D01*
X148083952Y-92884348D01*
X147934762Y-93243637D01*
X147934423Y-93632670D01*
X148082985Y-93992219D01*
X148357833Y-94267547D01*
X148524216Y-94336635D01*
X148523931Y-94663663D01*
X148672493Y-95023212D01*
X148881040Y-95232123D01*
X148673460Y-95439341D01*
X148524270Y-95798630D01*
X148523931Y-96187663D01*
X148672493Y-96547212D01*
X148881040Y-96756123D01*
X148673460Y-96963341D01*
X148524270Y-97322630D01*
X148523931Y-97711663D01*
X148672493Y-98071212D01*
X148947341Y-98346540D01*
X149306630Y-98495730D01*
X149695663Y-98496069D01*
X150055212Y-98347507D01*
X150173726Y-98229200D01*
X150717016Y-98229200D01*
X150742910Y-98269441D01*
X150955110Y-98414431D01*
X151207000Y-98465440D01*
X151607000Y-98465440D01*
X151842317Y-98421162D01*
X151853979Y-98413658D01*
X151855110Y-98414431D01*
X152107000Y-98465440D01*
X152507000Y-98465440D01*
X152742317Y-98421162D01*
X152918319Y-98307908D01*
X152957130Y-98368221D01*
X153169330Y-98513211D01*
X153421220Y-98564220D01*
X154218780Y-98564220D01*
X154447673Y-98521151D01*
X152016115Y-100952708D01*
X151850316Y-100952564D01*
X151490767Y-101101126D01*
X151215439Y-101375974D01*
X151066249Y-101735263D01*
X151065910Y-102124296D01*
X151214472Y-102483845D01*
X151489320Y-102759173D01*
X151848609Y-102908363D01*
X152237642Y-102908702D01*
X152597191Y-102760140D01*
X152872519Y-102485292D01*
X153021709Y-102126003D01*
X153021855Y-101958545D01*
X156346794Y-98633607D01*
X156567341Y-98854540D01*
X156926630Y-99003730D01*
X156946499Y-99003747D01*
X156906270Y-99100630D01*
X156905931Y-99489663D01*
X157054493Y-99849212D01*
X157329341Y-100124540D01*
X157688630Y-100273730D01*
X158077663Y-100274069D01*
X158437212Y-100125507D01*
X158712540Y-99850659D01*
X158787888Y-99669200D01*
X159647000Y-99669200D01*
X159647000Y-99772250D01*
X159805750Y-99931000D01*
X160161312Y-99931000D01*
X160282000Y-99955440D01*
X161582000Y-99955440D01*
X161711887Y-99931000D01*
X162058250Y-99931000D01*
X162217000Y-99772250D01*
X162217000Y-99581691D01*
X162188130Y-99511993D01*
X162229440Y-99308000D01*
X162229440Y-98608000D01*
X162190426Y-98400658D01*
X162229440Y-98208000D01*
X162229440Y-97508000D01*
X162190426Y-97300658D01*
X162229440Y-97108000D01*
X162229440Y-96846061D01*
X163977739Y-96846061D01*
X164068314Y-96828044D01*
X164180110Y-96904431D01*
X164432000Y-96955440D01*
X165176340Y-96955440D01*
X165176340Y-104440560D01*
X164177000Y-104440560D01*
X164177000Y-103768000D01*
X164117245Y-103467594D01*
X163947079Y-103212921D01*
X163947076Y-103212919D01*
X162437079Y-101702921D01*
X162219419Y-101557486D01*
X162229440Y-101508000D01*
X162229440Y-100808000D01*
X162190142Y-100599150D01*
X162217000Y-100534309D01*
X162217000Y-100343750D01*
X162058250Y-100185000D01*
X161702688Y-100185000D01*
X161582000Y-100160560D01*
X160282000Y-100160560D01*
X160152113Y-100185000D01*
X159805750Y-100185000D01*
X159647000Y-100343750D01*
X159647000Y-100446800D01*
X157133740Y-100446800D01*
X156861575Y-100500937D01*
X156811007Y-100534726D01*
X156585479Y-100534529D01*
X156225930Y-100683091D01*
X155950602Y-100957939D01*
X155801412Y-101317228D01*
X155801073Y-101706261D01*
X155949635Y-102065810D01*
X156224483Y-102341138D01*
X156583772Y-102490328D01*
X156972805Y-102490667D01*
X157332354Y-102342105D01*
X157607682Y-102067257D01*
X157689923Y-101869200D01*
X159642417Y-101869200D01*
X159634560Y-101908000D01*
X159634560Y-102608000D01*
X159641861Y-102646800D01*
X154432048Y-102646800D01*
X154201378Y-102415727D01*
X153842089Y-102266537D01*
X153453056Y-102266198D01*
X153093507Y-102414760D01*
X152818179Y-102689608D01*
X152668989Y-103048897D01*
X152668650Y-103437930D01*
X152700757Y-103515636D01*
X152699683Y-103515838D01*
X152516054Y-103634000D01*
X151590866Y-103634000D01*
X151458867Y-103660256D01*
X151326868Y-103634000D01*
X151055975Y-103634000D01*
X150892890Y-103522569D01*
X150641000Y-103471560D01*
X150141000Y-103471560D01*
X149905683Y-103515838D01*
X149689559Y-103654910D01*
X149682114Y-103665807D01*
X148111412Y-102095106D01*
X147880683Y-101940937D01*
X147608518Y-101886800D01*
X145153470Y-101886800D01*
X147210894Y-99829376D01*
X147365063Y-99598647D01*
X147419200Y-99326482D01*
X147419200Y-98189794D01*
X147536540Y-98072659D01*
X147685730Y-97713370D01*
X147686069Y-97324337D01*
X147537507Y-96964788D01*
X147262659Y-96689460D01*
X146903370Y-96540270D01*
X146514337Y-96539931D01*
X146154788Y-96688493D01*
X145879460Y-96963341D01*
X145730270Y-97322630D01*
X145729931Y-97711663D01*
X145878493Y-98071212D01*
X145996800Y-98189726D01*
X145996800Y-99031894D01*
X144523519Y-100505175D01*
X144452327Y-100333302D01*
X144273699Y-100154673D01*
X144040310Y-100058000D01*
X142929750Y-100058000D01*
X142771000Y-100216750D01*
X142771000Y-101074000D01*
X142791000Y-101074000D01*
X142791000Y-101328000D01*
X142771000Y-101328000D01*
X142771000Y-101348000D01*
X142517000Y-101348000D01*
X142517000Y-101328000D01*
X140897750Y-101328000D01*
X140770759Y-101454991D01*
X133931809Y-101454991D01*
X133704799Y-101500146D01*
X133659644Y-101509128D01*
X133428915Y-101663297D01*
X131981106Y-103111106D01*
X131826937Y-103341835D01*
X131784635Y-103554500D01*
X131772800Y-103614000D01*
X131772800Y-104510870D01*
X131611507Y-104349577D01*
X131611507Y-103457769D01*
X131728847Y-103340634D01*
X131878037Y-102981345D01*
X131878376Y-102592312D01*
X131729814Y-102232763D01*
X131454966Y-101957435D01*
X131095677Y-101808245D01*
X130706644Y-101807906D01*
X130347095Y-101956468D01*
X130071767Y-102231316D01*
X129922577Y-102590605D01*
X129922238Y-102979638D01*
X130070800Y-103339187D01*
X130189107Y-103457701D01*
X130189107Y-104000255D01*
X129990659Y-103801460D01*
X129631370Y-103652270D01*
X129242337Y-103651931D01*
X128882788Y-103800493D01*
X128607460Y-104075341D01*
X128458270Y-104434630D01*
X128457931Y-104823663D01*
X128606493Y-105183212D01*
X128881341Y-105458540D01*
X129223010Y-105600413D01*
X129276005Y-105679726D01*
X129409575Y-105813296D01*
X129369460Y-105853341D01*
X129220270Y-106212630D01*
X129219931Y-106601663D01*
X129368493Y-106961212D01*
X129486800Y-107079726D01*
X129486800Y-107420334D01*
X129540937Y-107692499D01*
X129695106Y-107923228D01*
X134312800Y-112540923D01*
X134312800Y-112692012D01*
X133029894Y-111409106D01*
X132799165Y-111254937D01*
X132527000Y-111200800D01*
X131572984Y-111200800D01*
X131547090Y-111160559D01*
X131334890Y-111015569D01*
X131083000Y-110964560D01*
X130583000Y-110964560D01*
X130347683Y-111008838D01*
X130131559Y-111147910D01*
X129986569Y-111360110D01*
X129935560Y-111612000D01*
X129935560Y-112212000D01*
X129979838Y-112447317D01*
X129987342Y-112458979D01*
X129986569Y-112460110D01*
X129935560Y-112712000D01*
X129935560Y-113312000D01*
X129979838Y-113547317D01*
X130048000Y-113653244D01*
X130048000Y-115275000D01*
X129530042Y-115275000D01*
X129429890Y-115206569D01*
X129213752Y-115162800D01*
X129123370Y-115125270D01*
X128734337Y-115124931D01*
X128645332Y-115161707D01*
X128442683Y-115199838D01*
X128419075Y-115215029D01*
X128391162Y-115066683D01*
X128273000Y-114883054D01*
X128273000Y-114874000D01*
X128213245Y-114573594D01*
X128043079Y-114318921D01*
X127959079Y-114234921D01*
X127704407Y-114064755D01*
X127404000Y-114005000D01*
X126065440Y-114005000D01*
X126065440Y-113719177D01*
X126317382Y-113669063D01*
X126548111Y-113514894D01*
X126949411Y-113113594D01*
X127115211Y-113113738D01*
X127474760Y-112965176D01*
X127750088Y-112690328D01*
X127899278Y-112331039D01*
X127899617Y-111942006D01*
X127751055Y-111582457D01*
X127476207Y-111307129D01*
X127116918Y-111157939D01*
X126727885Y-111157600D01*
X126368336Y-111306162D01*
X126093008Y-111581010D01*
X125943818Y-111940299D01*
X125943672Y-112107757D01*
X125768490Y-112282939D01*
X125669890Y-112215569D01*
X125418000Y-112164560D01*
X124818000Y-112164560D01*
X124582683Y-112208838D01*
X124366559Y-112347910D01*
X124335145Y-112393885D01*
X124162706Y-112509105D01*
X122285087Y-114386725D01*
X122285422Y-114002040D01*
X122136860Y-113642491D01*
X121862012Y-113367163D01*
X121502723Y-113217973D01*
X121113690Y-113217634D01*
X120754141Y-113366196D01*
X120478813Y-113641044D01*
X120329623Y-114000333D01*
X120329284Y-114389366D01*
X120477846Y-114748915D01*
X120596153Y-114867429D01*
X120596153Y-118814058D01*
X119756136Y-119654075D01*
X119590337Y-119653931D01*
X119230788Y-119802493D01*
X118955460Y-120077341D01*
X118806270Y-120436630D01*
X118805931Y-120825663D01*
X118954493Y-121185212D01*
X119229341Y-121460540D01*
X119588630Y-121609730D01*
X119977663Y-121610069D01*
X120337212Y-121461507D01*
X120612540Y-121186659D01*
X120761730Y-120827370D01*
X120761876Y-120659912D01*
X121810247Y-119611542D01*
X121841916Y-119564146D01*
X121874630Y-119577730D01*
X122263663Y-119578069D01*
X122623212Y-119429507D01*
X122870256Y-119182894D01*
X122869931Y-119555663D01*
X122906707Y-119644668D01*
X122944838Y-119847317D01*
X123083910Y-120063441D01*
X123296110Y-120208431D01*
X123374806Y-120224367D01*
X123652630Y-120339730D01*
X124041663Y-120340069D01*
X124311055Y-120228759D01*
X124383317Y-120215162D01*
X124407406Y-120199661D01*
X124521691Y-120247000D01*
X124662250Y-120247000D01*
X124821000Y-120088250D01*
X124821000Y-119568761D01*
X124825730Y-119557370D01*
X124825791Y-119487000D01*
X125075000Y-119487000D01*
X125075000Y-120088250D01*
X125233750Y-120247000D01*
X125374309Y-120247000D01*
X125607698Y-120150327D01*
X125626000Y-120132025D01*
X125644302Y-120150327D01*
X125877691Y-120247000D01*
X126018250Y-120247000D01*
X126177000Y-120088250D01*
X126177000Y-119487000D01*
X125075000Y-119487000D01*
X124825791Y-119487000D01*
X124826069Y-119168337D01*
X124821000Y-119156069D01*
X124821000Y-118298761D01*
X124825730Y-118287370D01*
X124825791Y-118217000D01*
X125075000Y-118217000D01*
X125075000Y-119237000D01*
X126177000Y-119237000D01*
X126177000Y-118902250D01*
X126261000Y-118818250D01*
X126261000Y-118217000D01*
X125075000Y-118217000D01*
X124825791Y-118217000D01*
X124826069Y-117898337D01*
X124821000Y-117886069D01*
X124821000Y-117028761D01*
X124825730Y-117017370D01*
X124825791Y-116947000D01*
X125075000Y-116947000D01*
X125075000Y-117967000D01*
X126261000Y-117967000D01*
X126261000Y-116947000D01*
X125075000Y-116947000D01*
X124825791Y-116947000D01*
X124826069Y-116628337D01*
X124821000Y-116616069D01*
X124821000Y-116095750D01*
X124779000Y-116053750D01*
X124779000Y-115677000D01*
X124759000Y-115677000D01*
X124759000Y-115575000D01*
X125053000Y-115575000D01*
X125053000Y-115677000D01*
X125033000Y-115677000D01*
X125033000Y-116278250D01*
X125075000Y-116320250D01*
X125075000Y-116697000D01*
X126261000Y-116697000D01*
X126261000Y-115677000D01*
X126241000Y-115677000D01*
X126241000Y-115575000D01*
X126535000Y-115575000D01*
X126535000Y-115677000D01*
X126515000Y-115677000D01*
X126515000Y-116615239D01*
X126510270Y-116626630D01*
X126509931Y-117015663D01*
X126515000Y-117027931D01*
X126515000Y-117885239D01*
X126510270Y-117896630D01*
X126509931Y-118285663D01*
X126515000Y-118297931D01*
X126515000Y-118551750D01*
X126431000Y-118635750D01*
X126431000Y-119155239D01*
X126426270Y-119166630D01*
X126425931Y-119555663D01*
X126431000Y-119567931D01*
X126431000Y-120088250D01*
X126589750Y-120247000D01*
X126730309Y-120247000D01*
X126841283Y-120201033D01*
X126852110Y-120208431D01*
X126930806Y-120224367D01*
X127208630Y-120339730D01*
X127597663Y-120340069D01*
X127867055Y-120228759D01*
X127939317Y-120215162D01*
X128155441Y-120076090D01*
X128300431Y-119863890D01*
X128344200Y-119647752D01*
X128381730Y-119557370D01*
X128382069Y-119168337D01*
X128345293Y-119079332D01*
X128327010Y-118982168D01*
X128524000Y-119179158D01*
X128524000Y-119990203D01*
X128462569Y-120080110D01*
X128446633Y-120158806D01*
X128331270Y-120436630D01*
X128330931Y-120825663D01*
X128442241Y-121095055D01*
X128455838Y-121167317D01*
X128463342Y-121178979D01*
X128462569Y-121180110D01*
X128411560Y-121432000D01*
X128411560Y-122032000D01*
X128455838Y-122267317D01*
X128524000Y-122373244D01*
X128524000Y-125052000D01*
X128552186Y-125193700D01*
X128264918Y-125193700D01*
X128210450Y-125182670D01*
X127461150Y-125182670D01*
X127225833Y-125226948D01*
X127024255Y-125356660D01*
X125739426Y-125356660D01*
X125674549Y-125291783D01*
X125441160Y-125195110D01*
X125225950Y-125195110D01*
X125067200Y-125353860D01*
X125067200Y-125537178D01*
X125062799Y-125540010D01*
X124963328Y-125685590D01*
X124813200Y-125685590D01*
X124813200Y-125353860D01*
X124654450Y-125195110D01*
X124439240Y-125195110D01*
X124205851Y-125291783D01*
X124027223Y-125470412D01*
X123930550Y-125703801D01*
X123930550Y-125745655D01*
X124089300Y-125904405D01*
X124089877Y-125904405D01*
X123969119Y-126081140D01*
X123945749Y-126196546D01*
X123930550Y-126211745D01*
X123930550Y-126253599D01*
X123932998Y-126259510D01*
X123918110Y-126333030D01*
X123918110Y-126630210D01*
X123937186Y-126731590D01*
X123918110Y-126825790D01*
X123918110Y-127122970D01*
X123938177Y-127229616D01*
X123918110Y-127328710D01*
X123918110Y-127625890D01*
X123927902Y-127677932D01*
X123908460Y-127697341D01*
X123759270Y-128056630D01*
X123758931Y-128445663D01*
X123907493Y-128805212D01*
X124182341Y-129080540D01*
X124541630Y-129229730D01*
X124930663Y-129230069D01*
X125290212Y-129081507D01*
X125565540Y-128806659D01*
X125714730Y-128447370D01*
X125715013Y-128122977D01*
X125751745Y-128099340D01*
X127029271Y-128099340D01*
X127209260Y-128222321D01*
X127461150Y-128273330D01*
X128210450Y-128273330D01*
X128445767Y-128229052D01*
X128661891Y-128089980D01*
X128806881Y-127877780D01*
X128857890Y-127625890D01*
X128857890Y-127328710D01*
X128837823Y-127222064D01*
X128857890Y-127122970D01*
X128857890Y-126825790D01*
X128846207Y-126763700D01*
X129321560Y-126763700D01*
X129321560Y-127532000D01*
X129365838Y-127767317D01*
X129504910Y-127983441D01*
X129717110Y-128128431D01*
X129969000Y-128179440D01*
X131189000Y-128179440D01*
X131424317Y-128135162D01*
X131640441Y-127996090D01*
X131785431Y-127783890D01*
X131836440Y-127532000D01*
X131836440Y-126925573D01*
X131838838Y-126938317D01*
X131977910Y-127154441D01*
X132190110Y-127299431D01*
X132442000Y-127350440D01*
X133042800Y-127350440D01*
X133042800Y-127418932D01*
X132501806Y-127959926D01*
X132480831Y-127991317D01*
X132370603Y-128012058D01*
X132154479Y-128151130D01*
X132009489Y-128363330D01*
X131958480Y-128615220D01*
X131958480Y-129412780D01*
X132002758Y-129648097D01*
X132141830Y-129864221D01*
X132354030Y-130009211D01*
X132605920Y-130060220D01*
X133403480Y-130060220D01*
X133638797Y-130015942D01*
X133753993Y-129941815D01*
X133852630Y-130009211D01*
X134104520Y-130060220D01*
X134902080Y-130060220D01*
X135137397Y-130015942D01*
X135331759Y-129890874D01*
X135382937Y-130148165D01*
X135537106Y-130378894D01*
X135854560Y-130696348D01*
X135854560Y-130738000D01*
X135898838Y-130973317D01*
X136037910Y-131189441D01*
X136090800Y-131225579D01*
X136090800Y-131600745D01*
X135742330Y-131833585D01*
X135532000Y-132148366D01*
X135321670Y-131833585D01*
X134835489Y-131508729D01*
X134262000Y-131394655D01*
X133688511Y-131508729D01*
X133202330Y-131833585D01*
X132992000Y-132148366D01*
X132781670Y-131833585D01*
X132295489Y-131508729D01*
X131722000Y-131394655D01*
X131148511Y-131508729D01*
X130662330Y-131833585D01*
X130452000Y-132148366D01*
X130241670Y-131833585D01*
X129755489Y-131508729D01*
X129182000Y-131394655D01*
X128608511Y-131508729D01*
X128122330Y-131833585D01*
X127912000Y-132148366D01*
X127701670Y-131833585D01*
X127215489Y-131508729D01*
X126642000Y-131394655D01*
X126068511Y-131508729D01*
X125582330Y-131833585D01*
X125372000Y-132148366D01*
X125161670Y-131833585D01*
X124675489Y-131508729D01*
X124102000Y-131394655D01*
X123528511Y-131508729D01*
X123042330Y-131833585D01*
X122832000Y-132148366D01*
X122621670Y-131833585D01*
X122347000Y-131650056D01*
X122347000Y-130538000D01*
X122332786Y-130466540D01*
X122287245Y-130237593D01*
X122117079Y-129982921D01*
X120847079Y-128712921D01*
X120592407Y-128542755D01*
X120292000Y-128483000D01*
X119177672Y-128483000D01*
X119207440Y-128336000D01*
X119207440Y-127947200D01*
X119210016Y-127947200D01*
X119235910Y-127987441D01*
X119448110Y-128132431D01*
X119700000Y-128183440D01*
X120100000Y-128183440D01*
X120335317Y-128139162D01*
X120346979Y-128131658D01*
X120348110Y-128132431D01*
X120600000Y-128183440D01*
X121000000Y-128183440D01*
X121235317Y-128139162D01*
X121451441Y-128000090D01*
X121596431Y-127787890D01*
X121647440Y-127536000D01*
X121647440Y-126936000D01*
X121603162Y-126700683D01*
X121511200Y-126557770D01*
X121511200Y-125966000D01*
X121493855Y-125878800D01*
X121457063Y-125693835D01*
X121302894Y-125463106D01*
X120678235Y-124838447D01*
X120761730Y-124637370D01*
X120762069Y-124248337D01*
X120613507Y-123888788D01*
X120338659Y-123613460D01*
X119979370Y-123464270D01*
X119590337Y-123463931D01*
X119230788Y-123612493D01*
X118955460Y-123887341D01*
X118806270Y-124246630D01*
X118805931Y-124635663D01*
X118954493Y-124995212D01*
X119113471Y-125154468D01*
X119126937Y-125222165D01*
X119281106Y-125452894D01*
X120088800Y-126260588D01*
X120088800Y-126288560D01*
X119700000Y-126288560D01*
X119464683Y-126332838D01*
X119248559Y-126471910D01*
X119212421Y-126524800D01*
X118936630Y-126524800D01*
X118811890Y-126439569D01*
X118560000Y-126388560D01*
X117960000Y-126388560D01*
X117724683Y-126432838D01*
X117581770Y-126524800D01*
X117498000Y-126524800D01*
X117368102Y-126550638D01*
X117346140Y-126516509D01*
X117133940Y-126371519D01*
X116882050Y-126320510D01*
X116081950Y-126320510D01*
X115846633Y-126364788D01*
X115630509Y-126503860D01*
X115485519Y-126716060D01*
X115434510Y-126967950D01*
X115434510Y-127589910D01*
X115421397Y-127558252D01*
X115242769Y-127379623D01*
X115009380Y-127282950D01*
X114768770Y-127282950D01*
X114610020Y-127441700D01*
X114610020Y-128191000D01*
X115359320Y-128191000D01*
X115505477Y-128044843D01*
X115617860Y-128219491D01*
X115762957Y-128318632D01*
X115630509Y-128403860D01*
X115503729Y-128589409D01*
X115359320Y-128445000D01*
X114610020Y-128445000D01*
X114610020Y-128465000D01*
X114356020Y-128465000D01*
X114356020Y-128445000D01*
X113606720Y-128445000D01*
X113447970Y-128603750D01*
X113447970Y-128844359D01*
X113471878Y-128902078D01*
X112876722Y-128902078D01*
X112604558Y-128956215D01*
X112559145Y-128986559D01*
X112373827Y-129110384D01*
X112098118Y-129386093D01*
X112061699Y-129349673D01*
X111828310Y-129253000D01*
X111687750Y-129253000D01*
X111529000Y-129411750D01*
X111529000Y-129955212D01*
X111343652Y-130140560D01*
X111102000Y-130140560D01*
X110866683Y-130184838D01*
X110861769Y-130188000D01*
X110625750Y-130188000D01*
X110467000Y-130346750D01*
X110467000Y-130414309D01*
X110512967Y-130525283D01*
X110505569Y-130536110D01*
X110454560Y-130788000D01*
X110454560Y-131188000D01*
X110498838Y-131423317D01*
X110636400Y-131637094D01*
X110342330Y-131833585D01*
X110132000Y-132148366D01*
X109921670Y-131833585D01*
X109435489Y-131508729D01*
X108862000Y-131394655D01*
X108288511Y-131508729D01*
X107802330Y-131833585D01*
X107595539Y-132143069D01*
X107224036Y-131727268D01*
X106696791Y-131473291D01*
X106681026Y-131470642D01*
X106449000Y-131591783D01*
X106449000Y-132951000D01*
X106469000Y-132951000D01*
X106469000Y-133205000D01*
X106449000Y-133205000D01*
X106449000Y-134564217D01*
X106681026Y-134685358D01*
X106696791Y-134682709D01*
X107224036Y-134428732D01*
X107595539Y-134012931D01*
X107802330Y-134322415D01*
X108288511Y-134647271D01*
X108862000Y-134761345D01*
X109435489Y-134647271D01*
X109921670Y-134322415D01*
X110132000Y-134007634D01*
X110342330Y-134322415D01*
X110828511Y-134647271D01*
X111402000Y-134761345D01*
X111975489Y-134647271D01*
X112461670Y-134322415D01*
X112672000Y-134007634D01*
X112882330Y-134322415D01*
X113368511Y-134647271D01*
X113942000Y-134761345D01*
X114515489Y-134647271D01*
X115001670Y-134322415D01*
X115212000Y-134007634D01*
X115422330Y-134322415D01*
X115908511Y-134647271D01*
X116482000Y-134761345D01*
X117055489Y-134647271D01*
X117541670Y-134322415D01*
X117752000Y-134007634D01*
X117962330Y-134322415D01*
X118448511Y-134647271D01*
X119022000Y-134761345D01*
X119595489Y-134647271D01*
X120081670Y-134322415D01*
X120292000Y-134007634D01*
X120502330Y-134322415D01*
X120988511Y-134647271D01*
X121562000Y-134761345D01*
X122135489Y-134647271D01*
X122621670Y-134322415D01*
X122832000Y-134007634D01*
X123042330Y-134322415D01*
X123528511Y-134647271D01*
X124102000Y-134761345D01*
X124675489Y-134647271D01*
X125161670Y-134322415D01*
X125372000Y-134007634D01*
X125582330Y-134322415D01*
X126068511Y-134647271D01*
X126642000Y-134761345D01*
X127215489Y-134647271D01*
X127701670Y-134322415D01*
X127912000Y-134007634D01*
X128122330Y-134322415D01*
X128608511Y-134647271D01*
X129182000Y-134761345D01*
X129755489Y-134647271D01*
X130241670Y-134322415D01*
X130452000Y-134007634D01*
X130662330Y-134322415D01*
X131148511Y-134647271D01*
X131722000Y-134761345D01*
X132295489Y-134647271D01*
X132781670Y-134322415D01*
X132992000Y-134007634D01*
X133202330Y-134322415D01*
X133688511Y-134647271D01*
X134262000Y-134761345D01*
X134835489Y-134647271D01*
X135321670Y-134322415D01*
X135532000Y-134007634D01*
X135742330Y-134322415D01*
X136228511Y-134647271D01*
X136802000Y-134761345D01*
X137375489Y-134647271D01*
X137861670Y-134322415D01*
X138072000Y-134007634D01*
X138282330Y-134322415D01*
X138768511Y-134647271D01*
X139342000Y-134761345D01*
X139915489Y-134647271D01*
X140401670Y-134322415D01*
X140612000Y-134007634D01*
X140822330Y-134322415D01*
X141308511Y-134647271D01*
X141882000Y-134761345D01*
X142455489Y-134647271D01*
X142941670Y-134322415D01*
X143152000Y-134007634D01*
X143362330Y-134322415D01*
X143848511Y-134647271D01*
X144422000Y-134761345D01*
X144995489Y-134647271D01*
X145481670Y-134322415D01*
X145806526Y-133836234D01*
X145920600Y-133262745D01*
X145920600Y-132893255D01*
X145806526Y-132319766D01*
X145778455Y-132277754D01*
X146139663Y-132278069D01*
X146499212Y-132129507D01*
X146529518Y-132099254D01*
X146496170Y-132263930D01*
X146496170Y-134161310D01*
X146540448Y-134396627D01*
X146679520Y-134612751D01*
X146891720Y-134757741D01*
X147063365Y-134792500D01*
X91463000Y-134792500D01*
X91463000Y-133002202D01*
X91475596Y-133002213D01*
X92352523Y-132639874D01*
X92931406Y-132062000D01*
X94650960Y-132062000D01*
X94650960Y-134094000D01*
X94695238Y-134329317D01*
X94834310Y-134545441D01*
X95046510Y-134690431D01*
X95298400Y-134741440D01*
X97025600Y-134741440D01*
X97260917Y-134697162D01*
X97477041Y-134558090D01*
X97622031Y-134345890D01*
X97630400Y-134304561D01*
X97642330Y-134322415D01*
X98128511Y-134647271D01*
X98702000Y-134761345D01*
X99275489Y-134647271D01*
X99761670Y-134322415D01*
X99968461Y-134012931D01*
X100339964Y-134428732D01*
X100867209Y-134682709D01*
X100882974Y-134685358D01*
X101115000Y-134564217D01*
X101115000Y-133205000D01*
X101095000Y-133205000D01*
X101095000Y-132951000D01*
X101115000Y-132951000D01*
X101115000Y-131591783D01*
X101369000Y-131591783D01*
X101369000Y-132951000D01*
X101389000Y-132951000D01*
X101389000Y-133205000D01*
X101369000Y-133205000D01*
X101369000Y-134564217D01*
X101601026Y-134685358D01*
X101616791Y-134682709D01*
X102144036Y-134428732D01*
X102515539Y-134012931D01*
X102722330Y-134322415D01*
X103208511Y-134647271D01*
X103782000Y-134761345D01*
X104355489Y-134647271D01*
X104841670Y-134322415D01*
X105048461Y-134012931D01*
X105419964Y-134428732D01*
X105947209Y-134682709D01*
X105962974Y-134685358D01*
X106195000Y-134564217D01*
X106195000Y-133205000D01*
X106175000Y-133205000D01*
X106175000Y-132951000D01*
X106195000Y-132951000D01*
X106195000Y-131591783D01*
X105962974Y-131470642D01*
X105947209Y-131473291D01*
X105419964Y-131727268D01*
X105048461Y-132143069D01*
X104841670Y-131833585D01*
X104355489Y-131508729D01*
X103782000Y-131394655D01*
X103208511Y-131508729D01*
X102722330Y-131833585D01*
X102515539Y-132143069D01*
X102144036Y-131727268D01*
X101616791Y-131473291D01*
X101601026Y-131470642D01*
X101369000Y-131591783D01*
X101115000Y-131591783D01*
X100882974Y-131470642D01*
X100867209Y-131473291D01*
X100339964Y-131727268D01*
X99968461Y-132143069D01*
X99761670Y-131833585D01*
X99275489Y-131508729D01*
X98702000Y-131394655D01*
X98128511Y-131508729D01*
X97642330Y-131833585D01*
X97632757Y-131847913D01*
X97628762Y-131826683D01*
X97489690Y-131610559D01*
X97277490Y-131465569D01*
X97025600Y-131414560D01*
X95298400Y-131414560D01*
X95063083Y-131458838D01*
X94846959Y-131597910D01*
X94701969Y-131810110D01*
X94650960Y-132062000D01*
X92931406Y-132062000D01*
X93024036Y-131969532D01*
X93387905Y-131093239D01*
X93388733Y-130144404D01*
X93230600Y-129761691D01*
X110467000Y-129761691D01*
X110467000Y-129829250D01*
X110625750Y-129988000D01*
X111275000Y-129988000D01*
X111275000Y-129411750D01*
X111116250Y-129253000D01*
X110975690Y-129253000D01*
X110742301Y-129349673D01*
X110563673Y-129528302D01*
X110467000Y-129761691D01*
X93230600Y-129761691D01*
X93026394Y-129267477D01*
X92356052Y-128595964D01*
X91479759Y-128232095D01*
X91463000Y-128232080D01*
X91463000Y-127791641D01*
X113447970Y-127791641D01*
X113447970Y-128032250D01*
X113606720Y-128191000D01*
X114356020Y-128191000D01*
X114356020Y-127441700D01*
X114197270Y-127282950D01*
X113956660Y-127282950D01*
X113723271Y-127379623D01*
X113544643Y-127558252D01*
X113447970Y-127791641D01*
X91463000Y-127791641D01*
X91463000Y-113543000D01*
X92283660Y-113543000D01*
X92395910Y-113717441D01*
X92608110Y-113862431D01*
X92860000Y-113913440D01*
X94384000Y-113913440D01*
X94619317Y-113869162D01*
X94835441Y-113730090D01*
X94980431Y-113517890D01*
X95031440Y-113266000D01*
X95031440Y-112250000D01*
X95006666Y-112118338D01*
X95031440Y-111996000D01*
X95031440Y-110980000D01*
X95006666Y-110848338D01*
X95031440Y-110726000D01*
X95031440Y-109710000D01*
X95006666Y-109578338D01*
X95031440Y-109456000D01*
X95031440Y-108440000D01*
X95006666Y-108308338D01*
X95031440Y-108186000D01*
X95031440Y-107170000D01*
X95006666Y-107038338D01*
X95031440Y-106916000D01*
X95031440Y-105900000D01*
X95006666Y-105768338D01*
X95031440Y-105646000D01*
X95031440Y-104630000D01*
X94987162Y-104394683D01*
X94848090Y-104178559D01*
X94635890Y-104033569D01*
X94384000Y-103982560D01*
X92860000Y-103982560D01*
X92624683Y-104026838D01*
X92408559Y-104165910D01*
X92280726Y-104353000D01*
X91463000Y-104353000D01*
X91463000Y-93002282D01*
X91475596Y-93002293D01*
X92352523Y-92639954D01*
X93024036Y-91969612D01*
X93189279Y-91571661D01*
X100098758Y-91571661D01*
X100310990Y-92085303D01*
X100703630Y-92478629D01*
X101216900Y-92691757D01*
X101772661Y-92692242D01*
X102286303Y-92480010D01*
X102679629Y-92087370D01*
X102892757Y-91574100D01*
X102893242Y-91018339D01*
X102681010Y-90504697D01*
X102288370Y-90111371D01*
X101775100Y-89898243D01*
X101219339Y-89897758D01*
X100705697Y-90109990D01*
X100312371Y-90502630D01*
X100099243Y-91015900D01*
X100098758Y-91571661D01*
X93189279Y-91571661D01*
X93387905Y-91093319D01*
X93388733Y-90144484D01*
X93026394Y-89267557D01*
X92356052Y-88596044D01*
X91479759Y-88232175D01*
X91463000Y-88232160D01*
X91463000Y-86443600D01*
X94650960Y-86443600D01*
X94650960Y-88374000D01*
X94650960Y-88374000D01*
G37*
X94650960Y-88374000D02*
X94695238Y-88609317D01*
X94834310Y-88825441D01*
X95046510Y-88970431D01*
X95298400Y-89021440D01*
X95653858Y-89021440D01*
X95659106Y-89029294D01*
X96268706Y-89638895D01*
X96499436Y-89793063D01*
X96771600Y-89847200D01*
X107786260Y-89847200D01*
X113174114Y-95235055D01*
X113150812Y-95235055D01*
X112878648Y-95289192D01*
X112647918Y-95443360D01*
X110899106Y-97192173D01*
X110744937Y-97422902D01*
X110715262Y-97572090D01*
X110690800Y-97695067D01*
X110690800Y-98658847D01*
X110640000Y-98648560D01*
X109624000Y-98648560D01*
X109492338Y-98673334D01*
X109370000Y-98648560D01*
X108354000Y-98648560D01*
X108222338Y-98673334D01*
X108100000Y-98648560D01*
X107084000Y-98648560D01*
X106952338Y-98673334D01*
X106830000Y-98648560D01*
X105814000Y-98648560D01*
X105682338Y-98673334D01*
X105560000Y-98648560D01*
X104544000Y-98648560D01*
X104412338Y-98673334D01*
X104290000Y-98648560D01*
X103274000Y-98648560D01*
X103142338Y-98673334D01*
X103020000Y-98648560D01*
X102004000Y-98648560D01*
X101872338Y-98673334D01*
X101750000Y-98648560D01*
X100734000Y-98648560D01*
X100602338Y-98673334D01*
X100480000Y-98648560D01*
X99464000Y-98648560D01*
X99332338Y-98673334D01*
X99210000Y-98648560D01*
X98194000Y-98648560D01*
X98062338Y-98673334D01*
X97940000Y-98648560D01*
X96924000Y-98648560D01*
X96792338Y-98673334D01*
X96670000Y-98648560D01*
X95654000Y-98648560D01*
X95522338Y-98673334D01*
X95400000Y-98648560D01*
X94384000Y-98648560D01*
X94148683Y-98692838D01*
X93932559Y-98831910D01*
X93787569Y-99044110D01*
X93736560Y-99296000D01*
X93736560Y-100820000D01*
X93780838Y-101055317D01*
X93919910Y-101271441D01*
X94132110Y-101416431D01*
X94384000Y-101467440D01*
X95400000Y-101467440D01*
X95531662Y-101442666D01*
X95654000Y-101467440D01*
X96670000Y-101467440D01*
X96801662Y-101442666D01*
X96924000Y-101467440D01*
X97940000Y-101467440D01*
X98071662Y-101442666D01*
X98194000Y-101467440D01*
X99210000Y-101467440D01*
X99341662Y-101442666D01*
X99464000Y-101467440D01*
X100480000Y-101467440D01*
X100611662Y-101442666D01*
X100734000Y-101467440D01*
X101750000Y-101467440D01*
X101881662Y-101442666D01*
X102004000Y-101467440D01*
X102742434Y-101467440D01*
X102470860Y-101738541D01*
X102321670Y-102097830D01*
X102321331Y-102486863D01*
X102469893Y-102846412D01*
X102744741Y-103121740D01*
X103104030Y-103270930D01*
X103271488Y-103271076D01*
X103578800Y-103578388D01*
X103578800Y-111067171D01*
X102625551Y-112020420D01*
X102440773Y-111943693D01*
X102051740Y-111943354D01*
X101692191Y-112091916D01*
X101416863Y-112366764D01*
X101267673Y-112726053D01*
X101267334Y-113115086D01*
X101415896Y-113474635D01*
X101525719Y-113584650D01*
X101399172Y-113711197D01*
X101214394Y-113634470D01*
X100825361Y-113634131D01*
X100465812Y-113782693D01*
X100190484Y-114057541D01*
X100041294Y-114416830D01*
X100040955Y-114805863D01*
X100189517Y-115165412D01*
X100464365Y-115440740D01*
X100678111Y-115529495D01*
X100678111Y-116011333D01*
X100737866Y-116311740D01*
X100815922Y-116428560D01*
X100734000Y-116428560D01*
X100602338Y-116453334D01*
X100480000Y-116428560D01*
X99464000Y-116428560D01*
X99332338Y-116453334D01*
X99210000Y-116428560D01*
X98194000Y-116428560D01*
X98062338Y-116453334D01*
X97940000Y-116428560D01*
X96924000Y-116428560D01*
X96792338Y-116453334D01*
X96670000Y-116428560D01*
X95654000Y-116428560D01*
X95522338Y-116453334D01*
X95400000Y-116428560D01*
X94384000Y-116428560D01*
X94148683Y-116472838D01*
X93932559Y-116611910D01*
X93787569Y-116824110D01*
X93736560Y-117076000D01*
X93736560Y-118600000D01*
X93780838Y-118835317D01*
X93919910Y-119051441D01*
X94132110Y-119196431D01*
X94384000Y-119247440D01*
X95400000Y-119247440D01*
X95531662Y-119222666D01*
X95654000Y-119247440D01*
X96670000Y-119247440D01*
X96801662Y-119222666D01*
X96924000Y-119247440D01*
X97940000Y-119247440D01*
X98071662Y-119222666D01*
X98194000Y-119247440D01*
X99210000Y-119247440D01*
X99260800Y-119237881D01*
X99260800Y-119629982D01*
X98265106Y-120625676D01*
X98244314Y-120656794D01*
X98132633Y-120677808D01*
X97916509Y-120816880D01*
X97771519Y-121029080D01*
X97720510Y-121280970D01*
X97720510Y-122081070D01*
X97764788Y-122316387D01*
X97903860Y-122532511D01*
X98050213Y-122632510D01*
X97417950Y-122632510D01*
X97182633Y-122676788D01*
X96966509Y-122815860D01*
X96821519Y-123028060D01*
X96770510Y-123279950D01*
X96770510Y-124080050D01*
X96814788Y-124315367D01*
X96953860Y-124531491D01*
X97166060Y-124676481D01*
X97417950Y-124727490D01*
X98218050Y-124727490D01*
X98453367Y-124683212D01*
X98669491Y-124544140D01*
X98768632Y-124399043D01*
X98853860Y-124531491D01*
X99006800Y-124635990D01*
X99006800Y-125000800D01*
X98489630Y-125000800D01*
X98364890Y-124915569D01*
X98113000Y-124864560D01*
X97513000Y-124864560D01*
X97277683Y-124908838D01*
X97061559Y-125047910D01*
X96916569Y-125260110D01*
X96865560Y-125512000D01*
X96865560Y-125912000D01*
X96909838Y-126147317D01*
X96917342Y-126158979D01*
X96916569Y-126160110D01*
X96892564Y-126278651D01*
X96835270Y-126416630D01*
X96834931Y-126805663D01*
X96888982Y-126936477D01*
X96909838Y-127047317D01*
X96979531Y-127155623D01*
X96983493Y-127165212D01*
X96989707Y-127171437D01*
X97048910Y-127263441D01*
X97151579Y-127333592D01*
X97258341Y-127440540D01*
X97617630Y-127589730D01*
X98006663Y-127590069D01*
X98366212Y-127441507D01*
X98472928Y-127334977D01*
X98564441Y-127276090D01*
X98634217Y-127173969D01*
X98641540Y-127166659D01*
X98645147Y-127157973D01*
X98709431Y-127063890D01*
X98733436Y-126945349D01*
X98768680Y-126860471D01*
X98803838Y-127047317D01*
X98942910Y-127263441D01*
X99155110Y-127408431D01*
X99407000Y-127459440D01*
X100007000Y-127459440D01*
X100242317Y-127415162D01*
X100385230Y-127323200D01*
X103644000Y-127323200D01*
X103916165Y-127269063D01*
X104146894Y-127114894D01*
X104317863Y-126943925D01*
X104483663Y-126944069D01*
X104843212Y-126795507D01*
X105118540Y-126520659D01*
X105267730Y-126161370D01*
X105268069Y-125772337D01*
X105119507Y-125412788D01*
X104844659Y-125137460D01*
X104485370Y-124988270D01*
X104096337Y-124987931D01*
X103736788Y-125136493D01*
X103701327Y-125171892D01*
X103690018Y-125144523D01*
X103669162Y-125033683D01*
X103661658Y-125022021D01*
X103662431Y-125020890D01*
X103713440Y-124769000D01*
X103713440Y-124369000D01*
X103669162Y-124133683D01*
X103652206Y-124107333D01*
X103762481Y-123945940D01*
X103813490Y-123694050D01*
X103813490Y-123072090D01*
X103826603Y-123103748D01*
X104005231Y-123282377D01*
X104238620Y-123379050D01*
X104479230Y-123379050D01*
X104637980Y-123220300D01*
X104637980Y-122471000D01*
X104891980Y-122471000D01*
X104891980Y-123220300D01*
X105050730Y-123379050D01*
X105291340Y-123379050D01*
X105524729Y-123282377D01*
X105703357Y-123103748D01*
X105800030Y-122870359D01*
X105800030Y-122629750D01*
X105641280Y-122471000D01*
X104891980Y-122471000D01*
X104637980Y-122471000D01*
X103888680Y-122471000D01*
X103742523Y-122617157D01*
X103630140Y-122442509D01*
X103485043Y-122343368D01*
X103617491Y-122258140D01*
X103744271Y-122072591D01*
X103888680Y-122217000D01*
X104637980Y-122217000D01*
X104637980Y-121467700D01*
X104891980Y-121467700D01*
X104891980Y-122217000D01*
X105641280Y-122217000D01*
X105800030Y-122058250D01*
X105800030Y-121817641D01*
X105703357Y-121584252D01*
X105524729Y-121405623D01*
X105291340Y-121308950D01*
X105050730Y-121308950D01*
X104891980Y-121467700D01*
X104637980Y-121467700D01*
X104479230Y-121308950D01*
X104238620Y-121308950D01*
X104005231Y-121405623D01*
X103826603Y-121584252D01*
X103813490Y-121615910D01*
X103813490Y-120993950D01*
X103769212Y-120758633D01*
X103630140Y-120542509D01*
X103551000Y-120488435D01*
X103551000Y-119247440D01*
X104290000Y-119247440D01*
X104421662Y-119222666D01*
X104544000Y-119247440D01*
X105560000Y-119247440D01*
X105691662Y-119222666D01*
X105814000Y-119247440D01*
X106830000Y-119247440D01*
X106961662Y-119222666D01*
X107084000Y-119247440D01*
X108100000Y-119247440D01*
X108231662Y-119222666D01*
X108354000Y-119247440D01*
X109370000Y-119247440D01*
X109501662Y-119222666D01*
X109624000Y-119247440D01*
X110640000Y-119247440D01*
X110771662Y-119222666D01*
X110894000Y-119247440D01*
X111910000Y-119247440D01*
X112041662Y-119222666D01*
X112164000Y-119247440D01*
X113180000Y-119247440D01*
X113311662Y-119222666D01*
X113434000Y-119247440D01*
X114450000Y-119247440D01*
X114581662Y-119222666D01*
X114704000Y-119247440D01*
X115720000Y-119247440D01*
X115851662Y-119222666D01*
X115974000Y-119247440D01*
X116990000Y-119247440D01*
X117121662Y-119222666D01*
X117244000Y-119247440D01*
X118260000Y-119247440D01*
X118391662Y-119222666D01*
X118514000Y-119247440D01*
X119530000Y-119247440D01*
X119765317Y-119203162D01*
X119981441Y-119064090D01*
X120126431Y-118851890D01*
X120177440Y-118600000D01*
X120177440Y-117076000D01*
X120133162Y-116840683D01*
X119994090Y-116624559D01*
X119807000Y-116496726D01*
X119807000Y-111959123D01*
X119850540Y-111915659D01*
X119999730Y-111556370D01*
X120000069Y-111167337D01*
X119851507Y-110807788D01*
X119576659Y-110532460D01*
X119217370Y-110383270D01*
X118828337Y-110382931D01*
X118468788Y-110531493D01*
X118193460Y-110806341D01*
X118044270Y-111165630D01*
X118043931Y-111554663D01*
X118192493Y-111914212D01*
X118237000Y-111958797D01*
X118237000Y-116428560D01*
X117244000Y-116428560D01*
X117112338Y-116453334D01*
X116990000Y-116428560D01*
X115974000Y-116428560D01*
X115842338Y-116453334D01*
X115720000Y-116428560D01*
X114704000Y-116428560D01*
X114572338Y-116453334D01*
X114450000Y-116428560D01*
X113434000Y-116428560D01*
X113302338Y-116453334D01*
X113180000Y-116428560D01*
X112164000Y-116428560D01*
X112032338Y-116453334D01*
X111910000Y-116428560D01*
X110894000Y-116428560D01*
X110762338Y-116453334D01*
X110640000Y-116428560D01*
X109624000Y-116428560D01*
X109492338Y-116453334D01*
X109370000Y-116428560D01*
X108354000Y-116428560D01*
X108222338Y-116453334D01*
X108100000Y-116428560D01*
X107084000Y-116428560D01*
X106952338Y-116453334D01*
X106830000Y-116428560D01*
X105814000Y-116428560D01*
X105682338Y-116453334D01*
X105560000Y-116428560D01*
X104544000Y-116428560D01*
X104412338Y-116453334D01*
X104290000Y-116428560D01*
X103274000Y-116428560D01*
X103142338Y-116453334D01*
X103020000Y-116428560D01*
X102990496Y-116428560D01*
X102974724Y-116412788D01*
X111863668Y-116412788D01*
X112135833Y-116358651D01*
X112335727Y-116225086D01*
X112511749Y-116225239D01*
X112871298Y-116076677D01*
X113146626Y-115801829D01*
X113295816Y-115442540D01*
X113296155Y-115053507D01*
X113147593Y-114693958D01*
X112872745Y-114418630D01*
X112513456Y-114269440D01*
X112124423Y-114269101D01*
X111764874Y-114417663D01*
X111489546Y-114692511D01*
X111365857Y-114990388D01*
X102974723Y-114990388D01*
X105607079Y-112358031D01*
X105777245Y-112103358D01*
X105837000Y-111802952D01*
X105837000Y-101467440D01*
X106830000Y-101467440D01*
X106961662Y-101442666D01*
X107084000Y-101467440D01*
X108100000Y-101467440D01*
X108231662Y-101442666D01*
X108354000Y-101467440D01*
X109370000Y-101467440D01*
X109501662Y-101442666D01*
X109624000Y-101467440D01*
X110640000Y-101467440D01*
X110771662Y-101442666D01*
X110894000Y-101467440D01*
X111910000Y-101467440D01*
X112041662Y-101442666D01*
X112164000Y-101467440D01*
X113180000Y-101467440D01*
X113311662Y-101442666D01*
X113434000Y-101467440D01*
X114450000Y-101467440D01*
X114581662Y-101442666D01*
X114704000Y-101467440D01*
X115720000Y-101467440D01*
X115851662Y-101442666D01*
X115974000Y-101467440D01*
X116990000Y-101467440D01*
X117121662Y-101442666D01*
X117244000Y-101467440D01*
X118260000Y-101467440D01*
X118391662Y-101442666D01*
X118514000Y-101467440D01*
X119530000Y-101467440D01*
X119765317Y-101423162D01*
X119981441Y-101284090D01*
X120126431Y-101071890D01*
X120177440Y-100820000D01*
X120177440Y-100566691D01*
X140739000Y-100566691D01*
X140739000Y-100915250D01*
X140897750Y-101074000D01*
X142517000Y-101074000D01*
X142517000Y-100216750D01*
X142358250Y-100058000D01*
X141247690Y-100058000D01*
X141014301Y-100154673D01*
X140835673Y-100333302D01*
X140739000Y-100566691D01*
X120177440Y-100566691D01*
X120177440Y-99296000D01*
X120133162Y-99060683D01*
X119994090Y-98844559D01*
X119781890Y-98699569D01*
X119530000Y-98648560D01*
X118514000Y-98648560D01*
X118382338Y-98673334D01*
X118260000Y-98648560D01*
X117244000Y-98648560D01*
X117112338Y-98673334D01*
X116990000Y-98648560D01*
X115974000Y-98648560D01*
X115842338Y-98673334D01*
X115720000Y-98648560D01*
X114704000Y-98648560D01*
X114572338Y-98673334D01*
X114450000Y-98648560D01*
X113434000Y-98648560D01*
X113302338Y-98673334D01*
X113180165Y-98648593D01*
X113174894Y-98640705D01*
X113129200Y-98595011D01*
X113129200Y-97412220D01*
X137479391Y-97412220D01*
X137596526Y-97529560D01*
X137612935Y-97536373D01*
X137612868Y-97612734D01*
X137761430Y-97972283D01*
X138036278Y-98247611D01*
X138268061Y-98343856D01*
X138383662Y-98623632D01*
X138658510Y-98898960D01*
X139017799Y-99048150D01*
X139406832Y-99048489D01*
X139766381Y-98899927D01*
X140041709Y-98625079D01*
X140190899Y-98265790D01*
X140191102Y-98032653D01*
X140195548Y-98026000D01*
X140213131Y-97999685D01*
X140267268Y-97727521D01*
X140267268Y-94652498D01*
X140213131Y-94380334D01*
X140200676Y-94361694D01*
X140058963Y-94149604D01*
X137737000Y-91827642D01*
X137737000Y-91818750D01*
X137578250Y-91660000D01*
X137495847Y-91660000D01*
X137486659Y-91653861D01*
X137214494Y-91599724D01*
X134228064Y-91599724D01*
X134320349Y-91507440D01*
X134562000Y-91507440D01*
X134797317Y-91463162D01*
X134802231Y-91460000D01*
X135038250Y-91460000D01*
X135197000Y-91301250D01*
X135197000Y-91233691D01*
X135151033Y-91122717D01*
X135158431Y-91111890D01*
X135209440Y-90860000D01*
X135209440Y-90460000D01*
X135165162Y-90224683D01*
X135026090Y-90008559D01*
X134973200Y-89972421D01*
X134973200Y-88835255D01*
X135321670Y-88602415D01*
X135532000Y-88287634D01*
X135742330Y-88602415D01*
X136090800Y-88835255D01*
X136090800Y-88972206D01*
X135973460Y-89089341D01*
X135824270Y-89448630D01*
X135823931Y-89837663D01*
X135950079Y-90142967D01*
X135905569Y-90208110D01*
X135854560Y-90460000D01*
X135854560Y-90860000D01*
X135898838Y-91095317D01*
X135914339Y-91119406D01*
X135867000Y-91233691D01*
X135867000Y-91301250D01*
X136025750Y-91460000D01*
X136267734Y-91460000D01*
X136502000Y-91507440D01*
X137102000Y-91507440D01*
X137337317Y-91463162D01*
X137342231Y-91460000D01*
X137578250Y-91460000D01*
X137737000Y-91301250D01*
X137737000Y-91233691D01*
X137691033Y-91122717D01*
X137698431Y-91111890D01*
X137749440Y-90860000D01*
X137749440Y-90460000D01*
X137705162Y-90224683D01*
X137653239Y-90143993D01*
X137779730Y-89839370D01*
X137780069Y-89450337D01*
X137631507Y-89090788D01*
X137513200Y-88972274D01*
X137513200Y-88835255D01*
X137861670Y-88602415D01*
X138072000Y-88287634D01*
X138282330Y-88602415D01*
X138768511Y-88927271D01*
X139342000Y-89041345D01*
X139915489Y-88927271D01*
X140401670Y-88602415D01*
X140612000Y-88287634D01*
X140822330Y-88602415D01*
X141308511Y-88927271D01*
X141882000Y-89041345D01*
X142455489Y-88927271D01*
X142941670Y-88602415D01*
X143152000Y-88287634D01*
X143362330Y-88602415D01*
X143710800Y-88835255D01*
X143710800Y-89835608D01*
X143706659Y-89831460D01*
X143347370Y-89682270D01*
X142958337Y-89681931D01*
X142598788Y-89830493D01*
X142323460Y-90105341D01*
X142174270Y-90464630D01*
X142173931Y-90853663D01*
X142322493Y-91213212D01*
X142597341Y-91488540D01*
X142956630Y-91637730D01*
X143345663Y-91638069D01*
X143487000Y-91579670D01*
X143487000Y-91687002D01*
X143618748Y-91687002D01*
X143487000Y-91818750D01*
X143487000Y-91886309D01*
X143583673Y-92119698D01*
X143762301Y-92298327D01*
X143995690Y-92395000D01*
X144136250Y-92395000D01*
X144295000Y-92236250D01*
X144295000Y-91660000D01*
X144549000Y-91660000D01*
X144549000Y-92236250D01*
X144707750Y-92395000D01*
X144848310Y-92395000D01*
X145081699Y-92298327D01*
X145260327Y-92119698D01*
X145357000Y-91886309D01*
X145357000Y-91818750D01*
X146027000Y-91818750D01*
X146027000Y-91886309D01*
X146123673Y-92119698D01*
X146302301Y-92298327D01*
X146535690Y-92395000D01*
X146676250Y-92395000D01*
X146835000Y-92236250D01*
X146835000Y-91660000D01*
X146185750Y-91660000D01*
X146027000Y-91818750D01*
X145357000Y-91818750D01*
X145198250Y-91660000D01*
X144549000Y-91660000D01*
X144295000Y-91660000D01*
X144275000Y-91660000D01*
X144275000Y-91507440D01*
X144722000Y-91507440D01*
X144957317Y-91463162D01*
X144962231Y-91460000D01*
X145198250Y-91460000D01*
X145357000Y-91301250D01*
X145357000Y-91233691D01*
X145311033Y-91122717D01*
X145318431Y-91111890D01*
X145369440Y-90860000D01*
X145369440Y-90460000D01*
X145325162Y-90224683D01*
X145186090Y-90008559D01*
X145133200Y-89972421D01*
X145133200Y-88835255D01*
X145481670Y-88602415D01*
X145692000Y-88287634D01*
X145902330Y-88602415D01*
X146250800Y-88835255D01*
X146250800Y-89970016D01*
X146210559Y-89995910D01*
X146065569Y-90208110D01*
X146014560Y-90460000D01*
X146014560Y-90860000D01*
X146058838Y-91095317D01*
X146074339Y-91119406D01*
X146027000Y-91233691D01*
X146027000Y-91301250D01*
X146185750Y-91460000D01*
X146427734Y-91460000D01*
X146662000Y-91507440D01*
X147109000Y-91507440D01*
X147109000Y-91660000D01*
X147089000Y-91660000D01*
X147089000Y-92236250D01*
X147247750Y-92395000D01*
X147388310Y-92395000D01*
X147621699Y-92298327D01*
X147800327Y-92119698D01*
X147897000Y-91886309D01*
X147897000Y-91818750D01*
X147765252Y-91687002D01*
X147897000Y-91687002D01*
X147897000Y-91637830D01*
X148171663Y-91638069D01*
X148531212Y-91489507D01*
X148806540Y-91214659D01*
X148858653Y-91089156D01*
X158617647Y-91089156D01*
X158979986Y-91966083D01*
X159650328Y-92637596D01*
X160526621Y-93001465D01*
X161475456Y-93002293D01*
X162352383Y-92639954D01*
X163023896Y-91969612D01*
X163387765Y-91093319D01*
X163388593Y-90144484D01*
X163026254Y-89267557D01*
X162355912Y-88596044D01*
X161479619Y-88232175D01*
X160530784Y-88231347D01*
X159653857Y-88593686D01*
X158982344Y-89264028D01*
X158618475Y-90140321D01*
X158617647Y-91089156D01*
X148858653Y-91089156D01*
X148955730Y-90855370D01*
X148956069Y-90466337D01*
X148807507Y-90106788D01*
X148532659Y-89831460D01*
X148173370Y-89682270D01*
X147784337Y-89681931D01*
X147673200Y-89727852D01*
X147673200Y-88835255D01*
X148021670Y-88602415D01*
X148232000Y-88287634D01*
X148442330Y-88602415D01*
X148928511Y-88927271D01*
X149502000Y-89041345D01*
X150075489Y-88927271D01*
X150561670Y-88602415D01*
X150772000Y-88287634D01*
X150982330Y-88602415D01*
X151468511Y-88927271D01*
X152042000Y-89041345D01*
X152615489Y-88927271D01*
X153101670Y-88602415D01*
X153312000Y-88287634D01*
X153522330Y-88602415D01*
X154008511Y-88927271D01*
X154582000Y-89041345D01*
X155155489Y-88927271D01*
X155641670Y-88602415D01*
X155852000Y-88287634D01*
X156062330Y-88602415D01*
X156548511Y-88927271D01*
X157122000Y-89041345D01*
X157695489Y-88927271D01*
X158181670Y-88602415D01*
X158506526Y-88116234D01*
X158620600Y-87542745D01*
X158620600Y-87173255D01*
X158506526Y-86599766D01*
X158402179Y-86443600D01*
X163329862Y-86443600D01*
X163062697Y-86553990D01*
X162669371Y-86946630D01*
X162456243Y-87459900D01*
X162455758Y-88015661D01*
X162667990Y-88529303D01*
X163060630Y-88922629D01*
X163573900Y-89135757D01*
X164129661Y-89136242D01*
X164643303Y-88924010D01*
X165036629Y-88531370D01*
X165176340Y-88194908D01*
X165176340Y-94710560D01*
X164829440Y-94710560D01*
X164829440Y-94408000D01*
X164785162Y-94172683D01*
X164646090Y-93956559D01*
X164433890Y-93811569D01*
X164182000Y-93760560D01*
X163582000Y-93760560D01*
X163452411Y-93784944D01*
X163332000Y-93760560D01*
X161932000Y-93760560D01*
X161696683Y-93804838D01*
X161480559Y-93943910D01*
X161335569Y-94156110D01*
X161284560Y-94408000D01*
X161284560Y-95282800D01*
X156737928Y-95282800D01*
X156465764Y-95336937D01*
X156421623Y-95366431D01*
X156332922Y-95425699D01*
X156320542Y-95359903D01*
X156237998Y-95231626D01*
X156313811Y-95120670D01*
X156364820Y-94868780D01*
X156364820Y-94071220D01*
X156325125Y-93860259D01*
X156680663Y-93860569D01*
X157040212Y-93712007D01*
X157315540Y-93437159D01*
X157464730Y-93077870D01*
X157465069Y-92688837D01*
X157316507Y-92329288D01*
X157041659Y-92053960D01*
X156682370Y-91904770D01*
X156293337Y-91904431D01*
X156049112Y-92005342D01*
X155969270Y-91950789D01*
X155717380Y-91899780D01*
X154919820Y-91899780D01*
X154684503Y-91944058D01*
X154569307Y-92018185D01*
X154470670Y-91950789D01*
X154218780Y-91899780D01*
X153421220Y-91899780D01*
X153185903Y-91944058D01*
X152969779Y-92083130D01*
X152914791Y-92163608D01*
X152747890Y-92049569D01*
X152496000Y-91998560D01*
X152096000Y-91998560D01*
X151860683Y-92042838D01*
X151849021Y-92050342D01*
X151847890Y-92049569D01*
X151596000Y-91998560D01*
X151196000Y-91998560D01*
X150960683Y-92042838D01*
X150744559Y-92181910D01*
X150708421Y-92234800D01*
X149405499Y-92234800D01*
X149133334Y-92288937D01*
X148902605Y-92443105D01*
X148884628Y-92461082D01*
X148718829Y-92460938D01*
X148359280Y-92609500D01*
X148083952Y-92884348D01*
X147934762Y-93243637D01*
X147934423Y-93632670D01*
X148082985Y-93992219D01*
X148357833Y-94267547D01*
X148524216Y-94336635D01*
X148523931Y-94663663D01*
X148672493Y-95023212D01*
X148881040Y-95232123D01*
X148673460Y-95439341D01*
X148524270Y-95798630D01*
X148523931Y-96187663D01*
X148672493Y-96547212D01*
X148881040Y-96756123D01*
X148673460Y-96963341D01*
X148524270Y-97322630D01*
X148523931Y-97711663D01*
X148672493Y-98071212D01*
X148947341Y-98346540D01*
X149306630Y-98495730D01*
X149695663Y-98496069D01*
X150055212Y-98347507D01*
X150173726Y-98229200D01*
X150717016Y-98229200D01*
X150742910Y-98269441D01*
X150955110Y-98414431D01*
X151207000Y-98465440D01*
X151607000Y-98465440D01*
X151842317Y-98421162D01*
X151853979Y-98413658D01*
X151855110Y-98414431D01*
X152107000Y-98465440D01*
X152507000Y-98465440D01*
X152742317Y-98421162D01*
X152918319Y-98307908D01*
X152957130Y-98368221D01*
X153169330Y-98513211D01*
X153421220Y-98564220D01*
X154218780Y-98564220D01*
X154447673Y-98521151D01*
X152016115Y-100952708D01*
X151850316Y-100952564D01*
X151490767Y-101101126D01*
X151215439Y-101375974D01*
X151066249Y-101735263D01*
X151065910Y-102124296D01*
X151214472Y-102483845D01*
X151489320Y-102759173D01*
X151848609Y-102908363D01*
X152237642Y-102908702D01*
X152597191Y-102760140D01*
X152872519Y-102485292D01*
X153021709Y-102126003D01*
X153021855Y-101958545D01*
X156346794Y-98633607D01*
X156567341Y-98854540D01*
X156926630Y-99003730D01*
X156946499Y-99003747D01*
X156906270Y-99100630D01*
X156905931Y-99489663D01*
X157054493Y-99849212D01*
X157329341Y-100124540D01*
X157688630Y-100273730D01*
X158077663Y-100274069D01*
X158437212Y-100125507D01*
X158712540Y-99850659D01*
X158787888Y-99669200D01*
X159647000Y-99669200D01*
X159647000Y-99772250D01*
X159805750Y-99931000D01*
X160161312Y-99931000D01*
X160282000Y-99955440D01*
X161582000Y-99955440D01*
X161711887Y-99931000D01*
X162058250Y-99931000D01*
X162217000Y-99772250D01*
X162217000Y-99581691D01*
X162188130Y-99511993D01*
X162229440Y-99308000D01*
X162229440Y-98608000D01*
X162190426Y-98400658D01*
X162229440Y-98208000D01*
X162229440Y-97508000D01*
X162190426Y-97300658D01*
X162229440Y-97108000D01*
X162229440Y-96846061D01*
X163977739Y-96846061D01*
X164068314Y-96828044D01*
X164180110Y-96904431D01*
X164432000Y-96955440D01*
X165176340Y-96955440D01*
X165176340Y-104440560D01*
X164177000Y-104440560D01*
X164177000Y-103768000D01*
X164117245Y-103467594D01*
X163947079Y-103212921D01*
X163947076Y-103212919D01*
X162437079Y-101702921D01*
X162219419Y-101557486D01*
X162229440Y-101508000D01*
X162229440Y-100808000D01*
X162190142Y-100599150D01*
X162217000Y-100534309D01*
X162217000Y-100343750D01*
X162058250Y-100185000D01*
X161702688Y-100185000D01*
X161582000Y-100160560D01*
X160282000Y-100160560D01*
X160152113Y-100185000D01*
X159805750Y-100185000D01*
X159647000Y-100343750D01*
X159647000Y-100446800D01*
X157133740Y-100446800D01*
X156861575Y-100500937D01*
X156811007Y-100534726D01*
X156585479Y-100534529D01*
X156225930Y-100683091D01*
X155950602Y-100957939D01*
X155801412Y-101317228D01*
X155801073Y-101706261D01*
X155949635Y-102065810D01*
X156224483Y-102341138D01*
X156583772Y-102490328D01*
X156972805Y-102490667D01*
X157332354Y-102342105D01*
X157607682Y-102067257D01*
X157689923Y-101869200D01*
X159642417Y-101869200D01*
X159634560Y-101908000D01*
X159634560Y-102608000D01*
X159641861Y-102646800D01*
X154432048Y-102646800D01*
X154201378Y-102415727D01*
X153842089Y-102266537D01*
X153453056Y-102266198D01*
X153093507Y-102414760D01*
X152818179Y-102689608D01*
X152668989Y-103048897D01*
X152668650Y-103437930D01*
X152700757Y-103515636D01*
X152699683Y-103515838D01*
X152516054Y-103634000D01*
X151590866Y-103634000D01*
X151458867Y-103660256D01*
X151326868Y-103634000D01*
X151055975Y-103634000D01*
X150892890Y-103522569D01*
X150641000Y-103471560D01*
X150141000Y-103471560D01*
X149905683Y-103515838D01*
X149689559Y-103654910D01*
X149682114Y-103665807D01*
X148111412Y-102095106D01*
X147880683Y-101940937D01*
X147608518Y-101886800D01*
X145153470Y-101886800D01*
X147210894Y-99829376D01*
X147365063Y-99598647D01*
X147419200Y-99326482D01*
X147419200Y-98189794D01*
X147536540Y-98072659D01*
X147685730Y-97713370D01*
X147686069Y-97324337D01*
X147537507Y-96964788D01*
X147262659Y-96689460D01*
X146903370Y-96540270D01*
X146514337Y-96539931D01*
X146154788Y-96688493D01*
X145879460Y-96963341D01*
X145730270Y-97322630D01*
X145729931Y-97711663D01*
X145878493Y-98071212D01*
X145996800Y-98189726D01*
X145996800Y-99031894D01*
X144523519Y-100505175D01*
X144452327Y-100333302D01*
X144273699Y-100154673D01*
X144040310Y-100058000D01*
X142929750Y-100058000D01*
X142771000Y-100216750D01*
X142771000Y-101074000D01*
X142791000Y-101074000D01*
X142791000Y-101328000D01*
X142771000Y-101328000D01*
X142771000Y-101348000D01*
X142517000Y-101348000D01*
X142517000Y-101328000D01*
X140897750Y-101328000D01*
X140770759Y-101454991D01*
X133931809Y-101454991D01*
X133704799Y-101500146D01*
X133659644Y-101509128D01*
X133428915Y-101663297D01*
X131981106Y-103111106D01*
X131826937Y-103341835D01*
X131784635Y-103554500D01*
X131772800Y-103614000D01*
X131772800Y-104510870D01*
X131611507Y-104349577D01*
X131611507Y-103457769D01*
X131728847Y-103340634D01*
X131878037Y-102981345D01*
X131878376Y-102592312D01*
X131729814Y-102232763D01*
X131454966Y-101957435D01*
X131095677Y-101808245D01*
X130706644Y-101807906D01*
X130347095Y-101956468D01*
X130071767Y-102231316D01*
X129922577Y-102590605D01*
X129922238Y-102979638D01*
X130070800Y-103339187D01*
X130189107Y-103457701D01*
X130189107Y-104000255D01*
X129990659Y-103801460D01*
X129631370Y-103652270D01*
X129242337Y-103651931D01*
X128882788Y-103800493D01*
X128607460Y-104075341D01*
X128458270Y-104434630D01*
X128457931Y-104823663D01*
X128606493Y-105183212D01*
X128881341Y-105458540D01*
X129223010Y-105600413D01*
X129276005Y-105679726D01*
X129409575Y-105813296D01*
X129369460Y-105853341D01*
X129220270Y-106212630D01*
X129219931Y-106601663D01*
X129368493Y-106961212D01*
X129486800Y-107079726D01*
X129486800Y-107420334D01*
X129540937Y-107692499D01*
X129695106Y-107923228D01*
X134312800Y-112540923D01*
X134312800Y-112692012D01*
X133029894Y-111409106D01*
X132799165Y-111254937D01*
X132527000Y-111200800D01*
X131572984Y-111200800D01*
X131547090Y-111160559D01*
X131334890Y-111015569D01*
X131083000Y-110964560D01*
X130583000Y-110964560D01*
X130347683Y-111008838D01*
X130131559Y-111147910D01*
X129986569Y-111360110D01*
X129935560Y-111612000D01*
X129935560Y-112212000D01*
X129979838Y-112447317D01*
X129987342Y-112458979D01*
X129986569Y-112460110D01*
X129935560Y-112712000D01*
X129935560Y-113312000D01*
X129979838Y-113547317D01*
X130048000Y-113653244D01*
X130048000Y-115275000D01*
X129530042Y-115275000D01*
X129429890Y-115206569D01*
X129213752Y-115162800D01*
X129123370Y-115125270D01*
X128734337Y-115124931D01*
X128645332Y-115161707D01*
X128442683Y-115199838D01*
X128419075Y-115215029D01*
X128391162Y-115066683D01*
X128273000Y-114883054D01*
X128273000Y-114874000D01*
X128213245Y-114573594D01*
X128043079Y-114318921D01*
X127959079Y-114234921D01*
X127704407Y-114064755D01*
X127404000Y-114005000D01*
X126065440Y-114005000D01*
X126065440Y-113719177D01*
X126317382Y-113669063D01*
X126548111Y-113514894D01*
X126949411Y-113113594D01*
X127115211Y-113113738D01*
X127474760Y-112965176D01*
X127750088Y-112690328D01*
X127899278Y-112331039D01*
X127899617Y-111942006D01*
X127751055Y-111582457D01*
X127476207Y-111307129D01*
X127116918Y-111157939D01*
X126727885Y-111157600D01*
X126368336Y-111306162D01*
X126093008Y-111581010D01*
X125943818Y-111940299D01*
X125943672Y-112107757D01*
X125768490Y-112282939D01*
X125669890Y-112215569D01*
X125418000Y-112164560D01*
X124818000Y-112164560D01*
X124582683Y-112208838D01*
X124366559Y-112347910D01*
X124335145Y-112393885D01*
X124162706Y-112509105D01*
X122285087Y-114386725D01*
X122285422Y-114002040D01*
X122136860Y-113642491D01*
X121862012Y-113367163D01*
X121502723Y-113217973D01*
X121113690Y-113217634D01*
X120754141Y-113366196D01*
X120478813Y-113641044D01*
X120329623Y-114000333D01*
X120329284Y-114389366D01*
X120477846Y-114748915D01*
X120596153Y-114867429D01*
X120596153Y-118814058D01*
X119756136Y-119654075D01*
X119590337Y-119653931D01*
X119230788Y-119802493D01*
X118955460Y-120077341D01*
X118806270Y-120436630D01*
X118805931Y-120825663D01*
X118954493Y-121185212D01*
X119229341Y-121460540D01*
X119588630Y-121609730D01*
X119977663Y-121610069D01*
X120337212Y-121461507D01*
X120612540Y-121186659D01*
X120761730Y-120827370D01*
X120761876Y-120659912D01*
X121810247Y-119611542D01*
X121841916Y-119564146D01*
X121874630Y-119577730D01*
X122263663Y-119578069D01*
X122623212Y-119429507D01*
X122870256Y-119182894D01*
X122869931Y-119555663D01*
X122906707Y-119644668D01*
X122944838Y-119847317D01*
X123083910Y-120063441D01*
X123296110Y-120208431D01*
X123374806Y-120224367D01*
X123652630Y-120339730D01*
X124041663Y-120340069D01*
X124311055Y-120228759D01*
X124383317Y-120215162D01*
X124407406Y-120199661D01*
X124521691Y-120247000D01*
X124662250Y-120247000D01*
X124821000Y-120088250D01*
X124821000Y-119568761D01*
X124825730Y-119557370D01*
X124825791Y-119487000D01*
X125075000Y-119487000D01*
X125075000Y-120088250D01*
X125233750Y-120247000D01*
X125374309Y-120247000D01*
X125607698Y-120150327D01*
X125626000Y-120132025D01*
X125644302Y-120150327D01*
X125877691Y-120247000D01*
X126018250Y-120247000D01*
X126177000Y-120088250D01*
X126177000Y-119487000D01*
X125075000Y-119487000D01*
X124825791Y-119487000D01*
X124826069Y-119168337D01*
X124821000Y-119156069D01*
X124821000Y-118298761D01*
X124825730Y-118287370D01*
X124825791Y-118217000D01*
X125075000Y-118217000D01*
X125075000Y-119237000D01*
X126177000Y-119237000D01*
X126177000Y-118902250D01*
X126261000Y-118818250D01*
X126261000Y-118217000D01*
X125075000Y-118217000D01*
X124825791Y-118217000D01*
X124826069Y-117898337D01*
X124821000Y-117886069D01*
X124821000Y-117028761D01*
X124825730Y-117017370D01*
X124825791Y-116947000D01*
X125075000Y-116947000D01*
X125075000Y-117967000D01*
X126261000Y-117967000D01*
X126261000Y-116947000D01*
X125075000Y-116947000D01*
X124825791Y-116947000D01*
X124826069Y-116628337D01*
X124821000Y-116616069D01*
X124821000Y-116095750D01*
X124779000Y-116053750D01*
X124779000Y-115677000D01*
X124759000Y-115677000D01*
X124759000Y-115575000D01*
X125053000Y-115575000D01*
X125053000Y-115677000D01*
X125033000Y-115677000D01*
X125033000Y-116278250D01*
X125075000Y-116320250D01*
X125075000Y-116697000D01*
X126261000Y-116697000D01*
X126261000Y-115677000D01*
X126241000Y-115677000D01*
X126241000Y-115575000D01*
X126535000Y-115575000D01*
X126535000Y-115677000D01*
X126515000Y-115677000D01*
X126515000Y-116615239D01*
X126510270Y-116626630D01*
X126509931Y-117015663D01*
X126515000Y-117027931D01*
X126515000Y-117885239D01*
X126510270Y-117896630D01*
X126509931Y-118285663D01*
X126515000Y-118297931D01*
X126515000Y-118551750D01*
X126431000Y-118635750D01*
X126431000Y-119155239D01*
X126426270Y-119166630D01*
X126425931Y-119555663D01*
X126431000Y-119567931D01*
X126431000Y-120088250D01*
X126589750Y-120247000D01*
X126730309Y-120247000D01*
X126841283Y-120201033D01*
X126852110Y-120208431D01*
X126930806Y-120224367D01*
X127208630Y-120339730D01*
X127597663Y-120340069D01*
X127867055Y-120228759D01*
X127939317Y-120215162D01*
X128155441Y-120076090D01*
X128300431Y-119863890D01*
X128344200Y-119647752D01*
X128381730Y-119557370D01*
X128382069Y-119168337D01*
X128345293Y-119079332D01*
X128327010Y-118982168D01*
X128524000Y-119179158D01*
X128524000Y-119990203D01*
X128462569Y-120080110D01*
X128446633Y-120158806D01*
X128331270Y-120436630D01*
X128330931Y-120825663D01*
X128442241Y-121095055D01*
X128455838Y-121167317D01*
X128463342Y-121178979D01*
X128462569Y-121180110D01*
X128411560Y-121432000D01*
X128411560Y-122032000D01*
X128455838Y-122267317D01*
X128524000Y-122373244D01*
X128524000Y-125052000D01*
X128552186Y-125193700D01*
X128264918Y-125193700D01*
X128210450Y-125182670D01*
X127461150Y-125182670D01*
X127225833Y-125226948D01*
X127024255Y-125356660D01*
X125739426Y-125356660D01*
X125674549Y-125291783D01*
X125441160Y-125195110D01*
X125225950Y-125195110D01*
X125067200Y-125353860D01*
X125067200Y-125537178D01*
X125062799Y-125540010D01*
X124963328Y-125685590D01*
X124813200Y-125685590D01*
X124813200Y-125353860D01*
X124654450Y-125195110D01*
X124439240Y-125195110D01*
X124205851Y-125291783D01*
X124027223Y-125470412D01*
X123930550Y-125703801D01*
X123930550Y-125745655D01*
X124089300Y-125904405D01*
X124089877Y-125904405D01*
X123969119Y-126081140D01*
X123945749Y-126196546D01*
X123930550Y-126211745D01*
X123930550Y-126253599D01*
X123932998Y-126259510D01*
X123918110Y-126333030D01*
X123918110Y-126630210D01*
X123937186Y-126731590D01*
X123918110Y-126825790D01*
X123918110Y-127122970D01*
X123938177Y-127229616D01*
X123918110Y-127328710D01*
X123918110Y-127625890D01*
X123927902Y-127677932D01*
X123908460Y-127697341D01*
X123759270Y-128056630D01*
X123758931Y-128445663D01*
X123907493Y-128805212D01*
X124182341Y-129080540D01*
X124541630Y-129229730D01*
X124930663Y-129230069D01*
X125290212Y-129081507D01*
X125565540Y-128806659D01*
X125714730Y-128447370D01*
X125715013Y-128122977D01*
X125751745Y-128099340D01*
X127029271Y-128099340D01*
X127209260Y-128222321D01*
X127461150Y-128273330D01*
X128210450Y-128273330D01*
X128445767Y-128229052D01*
X128661891Y-128089980D01*
X128806881Y-127877780D01*
X128857890Y-127625890D01*
X128857890Y-127328710D01*
X128837823Y-127222064D01*
X128857890Y-127122970D01*
X128857890Y-126825790D01*
X128846207Y-126763700D01*
X129321560Y-126763700D01*
X129321560Y-127532000D01*
X129365838Y-127767317D01*
X129504910Y-127983441D01*
X129717110Y-128128431D01*
X129969000Y-128179440D01*
X131189000Y-128179440D01*
X131424317Y-128135162D01*
X131640441Y-127996090D01*
X131785431Y-127783890D01*
X131836440Y-127532000D01*
X131836440Y-126925573D01*
X131838838Y-126938317D01*
X131977910Y-127154441D01*
X132190110Y-127299431D01*
X132442000Y-127350440D01*
X133042800Y-127350440D01*
X133042800Y-127418932D01*
X132501806Y-127959926D01*
X132480831Y-127991317D01*
X132370603Y-128012058D01*
X132154479Y-128151130D01*
X132009489Y-128363330D01*
X131958480Y-128615220D01*
X131958480Y-129412780D01*
X132002758Y-129648097D01*
X132141830Y-129864221D01*
X132354030Y-130009211D01*
X132605920Y-130060220D01*
X133403480Y-130060220D01*
X133638797Y-130015942D01*
X133753993Y-129941815D01*
X133852630Y-130009211D01*
X134104520Y-130060220D01*
X134902080Y-130060220D01*
X135137397Y-130015942D01*
X135331759Y-129890874D01*
X135382937Y-130148165D01*
X135537106Y-130378894D01*
X135854560Y-130696348D01*
X135854560Y-130738000D01*
X135898838Y-130973317D01*
X136037910Y-131189441D01*
X136090800Y-131225579D01*
X136090800Y-131600745D01*
X135742330Y-131833585D01*
X135532000Y-132148366D01*
X135321670Y-131833585D01*
X134835489Y-131508729D01*
X134262000Y-131394655D01*
X133688511Y-131508729D01*
X133202330Y-131833585D01*
X132992000Y-132148366D01*
X132781670Y-131833585D01*
X132295489Y-131508729D01*
X131722000Y-131394655D01*
X131148511Y-131508729D01*
X130662330Y-131833585D01*
X130452000Y-132148366D01*
X130241670Y-131833585D01*
X129755489Y-131508729D01*
X129182000Y-131394655D01*
X128608511Y-131508729D01*
X128122330Y-131833585D01*
X127912000Y-132148366D01*
X127701670Y-131833585D01*
X127215489Y-131508729D01*
X126642000Y-131394655D01*
X126068511Y-131508729D01*
X125582330Y-131833585D01*
X125372000Y-132148366D01*
X125161670Y-131833585D01*
X124675489Y-131508729D01*
X124102000Y-131394655D01*
X123528511Y-131508729D01*
X123042330Y-131833585D01*
X122832000Y-132148366D01*
X122621670Y-131833585D01*
X122347000Y-131650056D01*
X122347000Y-130538000D01*
X122332786Y-130466540D01*
X122287245Y-130237593D01*
X122117079Y-129982921D01*
X120847079Y-128712921D01*
X120592407Y-128542755D01*
X120292000Y-128483000D01*
X119177672Y-128483000D01*
X119207440Y-128336000D01*
X119207440Y-127947200D01*
X119210016Y-127947200D01*
X119235910Y-127987441D01*
X119448110Y-128132431D01*
X119700000Y-128183440D01*
X120100000Y-128183440D01*
X120335317Y-128139162D01*
X120346979Y-128131658D01*
X120348110Y-128132431D01*
X120600000Y-128183440D01*
X121000000Y-128183440D01*
X121235317Y-128139162D01*
X121451441Y-128000090D01*
X121596431Y-127787890D01*
X121647440Y-127536000D01*
X121647440Y-126936000D01*
X121603162Y-126700683D01*
X121511200Y-126557770D01*
X121511200Y-125966000D01*
X121493855Y-125878800D01*
X121457063Y-125693835D01*
X121302894Y-125463106D01*
X120678235Y-124838447D01*
X120761730Y-124637370D01*
X120762069Y-124248337D01*
X120613507Y-123888788D01*
X120338659Y-123613460D01*
X119979370Y-123464270D01*
X119590337Y-123463931D01*
X119230788Y-123612493D01*
X118955460Y-123887341D01*
X118806270Y-124246630D01*
X118805931Y-124635663D01*
X118954493Y-124995212D01*
X119113471Y-125154468D01*
X119126937Y-125222165D01*
X119281106Y-125452894D01*
X120088800Y-126260588D01*
X120088800Y-126288560D01*
X119700000Y-126288560D01*
X119464683Y-126332838D01*
X119248559Y-126471910D01*
X119212421Y-126524800D01*
X118936630Y-126524800D01*
X118811890Y-126439569D01*
X118560000Y-126388560D01*
X117960000Y-126388560D01*
X117724683Y-126432838D01*
X117581770Y-126524800D01*
X117498000Y-126524800D01*
X117368102Y-126550638D01*
X117346140Y-126516509D01*
X117133940Y-126371519D01*
X116882050Y-126320510D01*
X116081950Y-126320510D01*
X115846633Y-126364788D01*
X115630509Y-126503860D01*
X115485519Y-126716060D01*
X115434510Y-126967950D01*
X115434510Y-127589910D01*
X115421397Y-127558252D01*
X115242769Y-127379623D01*
X115009380Y-127282950D01*
X114768770Y-127282950D01*
X114610020Y-127441700D01*
X114610020Y-128191000D01*
X115359320Y-128191000D01*
X115505477Y-128044843D01*
X115617860Y-128219491D01*
X115762957Y-128318632D01*
X115630509Y-128403860D01*
X115503729Y-128589409D01*
X115359320Y-128445000D01*
X114610020Y-128445000D01*
X114610020Y-128465000D01*
X114356020Y-128465000D01*
X114356020Y-128445000D01*
X113606720Y-128445000D01*
X113447970Y-128603750D01*
X113447970Y-128844359D01*
X113471878Y-128902078D01*
X112876722Y-128902078D01*
X112604558Y-128956215D01*
X112559145Y-128986559D01*
X112373827Y-129110384D01*
X112098118Y-129386093D01*
X112061699Y-129349673D01*
X111828310Y-129253000D01*
X111687750Y-129253000D01*
X111529000Y-129411750D01*
X111529000Y-129955212D01*
X111343652Y-130140560D01*
X111102000Y-130140560D01*
X110866683Y-130184838D01*
X110861769Y-130188000D01*
X110625750Y-130188000D01*
X110467000Y-130346750D01*
X110467000Y-130414309D01*
X110512967Y-130525283D01*
X110505569Y-130536110D01*
X110454560Y-130788000D01*
X110454560Y-131188000D01*
X110498838Y-131423317D01*
X110636400Y-131637094D01*
X110342330Y-131833585D01*
X110132000Y-132148366D01*
X109921670Y-131833585D01*
X109435489Y-131508729D01*
X108862000Y-131394655D01*
X108288511Y-131508729D01*
X107802330Y-131833585D01*
X107595539Y-132143069D01*
X107224036Y-131727268D01*
X106696791Y-131473291D01*
X106681026Y-131470642D01*
X106449000Y-131591783D01*
X106449000Y-132951000D01*
X106469000Y-132951000D01*
X106469000Y-133205000D01*
X106449000Y-133205000D01*
X106449000Y-134564217D01*
X106681026Y-134685358D01*
X106696791Y-134682709D01*
X107224036Y-134428732D01*
X107595539Y-134012931D01*
X107802330Y-134322415D01*
X108288511Y-134647271D01*
X108862000Y-134761345D01*
X109435489Y-134647271D01*
X109921670Y-134322415D01*
X110132000Y-134007634D01*
X110342330Y-134322415D01*
X110828511Y-134647271D01*
X111402000Y-134761345D01*
X111975489Y-134647271D01*
X112461670Y-134322415D01*
X112672000Y-134007634D01*
X112882330Y-134322415D01*
X113368511Y-134647271D01*
X113942000Y-134761345D01*
X114515489Y-134647271D01*
X115001670Y-134322415D01*
X115212000Y-134007634D01*
X115422330Y-134322415D01*
X115908511Y-134647271D01*
X116482000Y-134761345D01*
X117055489Y-134647271D01*
X117541670Y-134322415D01*
X117752000Y-134007634D01*
X117962330Y-134322415D01*
X118448511Y-134647271D01*
X119022000Y-134761345D01*
X119595489Y-134647271D01*
X120081670Y-134322415D01*
X120292000Y-134007634D01*
X120502330Y-134322415D01*
X120988511Y-134647271D01*
X121562000Y-134761345D01*
X122135489Y-134647271D01*
X122621670Y-134322415D01*
X122832000Y-134007634D01*
X123042330Y-134322415D01*
X123528511Y-134647271D01*
X124102000Y-134761345D01*
X124675489Y-134647271D01*
X125161670Y-134322415D01*
X125372000Y-134007634D01*
X125582330Y-134322415D01*
X126068511Y-134647271D01*
X126642000Y-134761345D01*
X127215489Y-134647271D01*
X127701670Y-134322415D01*
X127912000Y-134007634D01*
X128122330Y-134322415D01*
X128608511Y-134647271D01*
X129182000Y-134761345D01*
X129755489Y-134647271D01*
X130241670Y-134322415D01*
X130452000Y-134007634D01*
X130662330Y-134322415D01*
X131148511Y-134647271D01*
X131722000Y-134761345D01*
X132295489Y-134647271D01*
X132781670Y-134322415D01*
X132992000Y-134007634D01*
X133202330Y-134322415D01*
X133688511Y-134647271D01*
X134262000Y-134761345D01*
X134835489Y-134647271D01*
X135321670Y-134322415D01*
X135532000Y-134007634D01*
X135742330Y-134322415D01*
X136228511Y-134647271D01*
X136802000Y-134761345D01*
X137375489Y-134647271D01*
X137861670Y-134322415D01*
X138072000Y-134007634D01*
X138282330Y-134322415D01*
X138768511Y-134647271D01*
X139342000Y-134761345D01*
X139915489Y-134647271D01*
X140401670Y-134322415D01*
X140612000Y-134007634D01*
X140822330Y-134322415D01*
X141308511Y-134647271D01*
X141882000Y-134761345D01*
X142455489Y-134647271D01*
X142941670Y-134322415D01*
X143152000Y-134007634D01*
X143362330Y-134322415D01*
X143848511Y-134647271D01*
X144422000Y-134761345D01*
X144995489Y-134647271D01*
X145481670Y-134322415D01*
X145806526Y-133836234D01*
X145920600Y-133262745D01*
X145920600Y-132893255D01*
X145806526Y-132319766D01*
X145778455Y-132277754D01*
X146139663Y-132278069D01*
X146499212Y-132129507D01*
X146529518Y-132099254D01*
X146496170Y-132263930D01*
X146496170Y-134161310D01*
X146540448Y-134396627D01*
X146679520Y-134612751D01*
X146891720Y-134757741D01*
X147063365Y-134792500D01*
X91463000Y-134792500D01*
X91463000Y-133002202D01*
X91475596Y-133002213D01*
X92352523Y-132639874D01*
X92931406Y-132062000D01*
X94650960Y-132062000D01*
X94650960Y-134094000D01*
X94695238Y-134329317D01*
X94834310Y-134545441D01*
X95046510Y-134690431D01*
X95298400Y-134741440D01*
X97025600Y-134741440D01*
X97260917Y-134697162D01*
X97477041Y-134558090D01*
X97622031Y-134345890D01*
X97630400Y-134304561D01*
X97642330Y-134322415D01*
X98128511Y-134647271D01*
X98702000Y-134761345D01*
X99275489Y-134647271D01*
X99761670Y-134322415D01*
X99968461Y-134012931D01*
X100339964Y-134428732D01*
X100867209Y-134682709D01*
X100882974Y-134685358D01*
X101115000Y-134564217D01*
X101115000Y-133205000D01*
X101095000Y-133205000D01*
X101095000Y-132951000D01*
X101115000Y-132951000D01*
X101115000Y-131591783D01*
X101369000Y-131591783D01*
X101369000Y-132951000D01*
X101389000Y-132951000D01*
X101389000Y-133205000D01*
X101369000Y-133205000D01*
X101369000Y-134564217D01*
X101601026Y-134685358D01*
X101616791Y-134682709D01*
X102144036Y-134428732D01*
X102515539Y-134012931D01*
X102722330Y-134322415D01*
X103208511Y-134647271D01*
X103782000Y-134761345D01*
X104355489Y-134647271D01*
X104841670Y-134322415D01*
X105048461Y-134012931D01*
X105419964Y-134428732D01*
X105947209Y-134682709D01*
X105962974Y-134685358D01*
X106195000Y-134564217D01*
X106195000Y-133205000D01*
X106175000Y-133205000D01*
X106175000Y-132951000D01*
X106195000Y-132951000D01*
X106195000Y-131591783D01*
X105962974Y-131470642D01*
X105947209Y-131473291D01*
X105419964Y-131727268D01*
X105048461Y-132143069D01*
X104841670Y-131833585D01*
X104355489Y-131508729D01*
X103782000Y-131394655D01*
X103208511Y-131508729D01*
X102722330Y-131833585D01*
X102515539Y-132143069D01*
X102144036Y-131727268D01*
X101616791Y-131473291D01*
X101601026Y-131470642D01*
X101369000Y-131591783D01*
X101115000Y-131591783D01*
X100882974Y-131470642D01*
X100867209Y-131473291D01*
X100339964Y-131727268D01*
X99968461Y-132143069D01*
X99761670Y-131833585D01*
X99275489Y-131508729D01*
X98702000Y-131394655D01*
X98128511Y-131508729D01*
X97642330Y-131833585D01*
X97632757Y-131847913D01*
X97628762Y-131826683D01*
X97489690Y-131610559D01*
X97277490Y-131465569D01*
X97025600Y-131414560D01*
X95298400Y-131414560D01*
X95063083Y-131458838D01*
X94846959Y-131597910D01*
X94701969Y-131810110D01*
X94650960Y-132062000D01*
X92931406Y-132062000D01*
X93024036Y-131969532D01*
X93387905Y-131093239D01*
X93388733Y-130144404D01*
X93230600Y-129761691D01*
X110467000Y-129761691D01*
X110467000Y-129829250D01*
X110625750Y-129988000D01*
X111275000Y-129988000D01*
X111275000Y-129411750D01*
X111116250Y-129253000D01*
X110975690Y-129253000D01*
X110742301Y-129349673D01*
X110563673Y-129528302D01*
X110467000Y-129761691D01*
X93230600Y-129761691D01*
X93026394Y-129267477D01*
X92356052Y-128595964D01*
X91479759Y-128232095D01*
X91463000Y-128232080D01*
X91463000Y-127791641D01*
X113447970Y-127791641D01*
X113447970Y-128032250D01*
X113606720Y-128191000D01*
X114356020Y-128191000D01*
X114356020Y-127441700D01*
X114197270Y-127282950D01*
X113956660Y-127282950D01*
X113723271Y-127379623D01*
X113544643Y-127558252D01*
X113447970Y-127791641D01*
X91463000Y-127791641D01*
X91463000Y-113543000D01*
X92283660Y-113543000D01*
X92395910Y-113717441D01*
X92608110Y-113862431D01*
X92860000Y-113913440D01*
X94384000Y-113913440D01*
X94619317Y-113869162D01*
X94835441Y-113730090D01*
X94980431Y-113517890D01*
X95031440Y-113266000D01*
X95031440Y-112250000D01*
X95006666Y-112118338D01*
X95031440Y-111996000D01*
X95031440Y-110980000D01*
X95006666Y-110848338D01*
X95031440Y-110726000D01*
X95031440Y-109710000D01*
X95006666Y-109578338D01*
X95031440Y-109456000D01*
X95031440Y-108440000D01*
X95006666Y-108308338D01*
X95031440Y-108186000D01*
X95031440Y-107170000D01*
X95006666Y-107038338D01*
X95031440Y-106916000D01*
X95031440Y-105900000D01*
X95006666Y-105768338D01*
X95031440Y-105646000D01*
X95031440Y-104630000D01*
X94987162Y-104394683D01*
X94848090Y-104178559D01*
X94635890Y-104033569D01*
X94384000Y-103982560D01*
X92860000Y-103982560D01*
X92624683Y-104026838D01*
X92408559Y-104165910D01*
X92280726Y-104353000D01*
X91463000Y-104353000D01*
X91463000Y-93002282D01*
X91475596Y-93002293D01*
X92352523Y-92639954D01*
X93024036Y-91969612D01*
X93189279Y-91571661D01*
X100098758Y-91571661D01*
X100310990Y-92085303D01*
X100703630Y-92478629D01*
X101216900Y-92691757D01*
X101772661Y-92692242D01*
X102286303Y-92480010D01*
X102679629Y-92087370D01*
X102892757Y-91574100D01*
X102893242Y-91018339D01*
X102681010Y-90504697D01*
X102288370Y-90111371D01*
X101775100Y-89898243D01*
X101219339Y-89897758D01*
X100705697Y-90109990D01*
X100312371Y-90502630D01*
X100099243Y-91015900D01*
X100098758Y-91571661D01*
X93189279Y-91571661D01*
X93387905Y-91093319D01*
X93388733Y-90144484D01*
X93026394Y-89267557D01*
X92356052Y-88596044D01*
X91479759Y-88232175D01*
X91463000Y-88232160D01*
X91463000Y-86443600D01*
X94650960Y-86443600D01*
X94650960Y-88374000D01*
G36*
X157657859Y-122466220D02*
X157711446Y-122488471D01*
X157610569Y-122636110D01*
X157559560Y-122888000D01*
X157559560Y-123888000D01*
X157603838Y-124123317D01*
X157644481Y-124186478D01*
X157610569Y-124236110D01*
X157587493Y-124350062D01*
X157422659Y-124184940D01*
X157063370Y-124035750D01*
X156674337Y-124035411D01*
X156314788Y-124183973D01*
X156039460Y-124458821D01*
X155890270Y-124818110D01*
X155890124Y-124985568D01*
X155610079Y-125265613D01*
X155574327Y-125179301D01*
X155395698Y-125000673D01*
X155162309Y-124904000D01*
X155094750Y-124904000D01*
X154936000Y-125062750D01*
X154936000Y-125712000D01*
X154983000Y-125712000D01*
X154983000Y-125966000D01*
X154936000Y-125966000D01*
X154936000Y-126182227D01*
X154923075Y-126247205D01*
X154923075Y-127028629D01*
X154838090Y-126896559D01*
X154785200Y-126860421D01*
X154785200Y-126728000D01*
X154736000Y-126480656D01*
X154736000Y-126373266D01*
X154783440Y-126139000D01*
X154783440Y-125539000D01*
X154739162Y-125303683D01*
X154736000Y-125298769D01*
X154736000Y-125062750D01*
X154647200Y-124973950D01*
X154647200Y-123695403D01*
X154697677Y-123695447D01*
X155057226Y-123546885D01*
X155332554Y-123272037D01*
X155344406Y-123243495D01*
X155403641Y-123243547D01*
X155763190Y-123094985D01*
X156038518Y-122820137D01*
X156187708Y-122460848D01*
X156187806Y-122348880D01*
X157540724Y-122348880D01*
X157657859Y-122466220D01*
X157657859Y-122466220D01*
G37*
X157657859Y-122466220D02*
X157711446Y-122488471D01*
X157610569Y-122636110D01*
X157559560Y-122888000D01*
X157559560Y-123888000D01*
X157603838Y-124123317D01*
X157644481Y-124186478D01*
X157610569Y-124236110D01*
X157587493Y-124350062D01*
X157422659Y-124184940D01*
X157063370Y-124035750D01*
X156674337Y-124035411D01*
X156314788Y-124183973D01*
X156039460Y-124458821D01*
X155890270Y-124818110D01*
X155890124Y-124985568D01*
X155610079Y-125265613D01*
X155574327Y-125179301D01*
X155395698Y-125000673D01*
X155162309Y-124904000D01*
X155094750Y-124904000D01*
X154936000Y-125062750D01*
X154936000Y-125712000D01*
X154983000Y-125712000D01*
X154983000Y-125966000D01*
X154936000Y-125966000D01*
X154936000Y-126182227D01*
X154923075Y-126247205D01*
X154923075Y-127028629D01*
X154838090Y-126896559D01*
X154785200Y-126860421D01*
X154785200Y-126728000D01*
X154736000Y-126480656D01*
X154736000Y-126373266D01*
X154783440Y-126139000D01*
X154783440Y-125539000D01*
X154739162Y-125303683D01*
X154736000Y-125298769D01*
X154736000Y-125062750D01*
X154647200Y-124973950D01*
X154647200Y-123695403D01*
X154697677Y-123695447D01*
X155057226Y-123546885D01*
X155332554Y-123272037D01*
X155344406Y-123243495D01*
X155403641Y-123243547D01*
X155763190Y-123094985D01*
X156038518Y-122820137D01*
X156187708Y-122460848D01*
X156187806Y-122348880D01*
X157540724Y-122348880D01*
X157657859Y-122466220D01*
G36*
X137914140Y-120971154D02*
X138015111Y-120971154D01*
X137895569Y-121146110D01*
X137851800Y-121362248D01*
X137814270Y-121452630D01*
X137813931Y-121841663D01*
X137850707Y-121930668D01*
X137888838Y-122133317D01*
X138027910Y-122349441D01*
X138240110Y-122494431D01*
X138318806Y-122510367D01*
X138596630Y-122625730D01*
X138985663Y-122626069D01*
X139255055Y-122514759D01*
X139327317Y-122501162D01*
X139338979Y-122493658D01*
X139340110Y-122494431D01*
X139592000Y-122545440D01*
X140192000Y-122545440D01*
X140427317Y-122501162D01*
X140643441Y-122362090D01*
X140737718Y-122224111D01*
X140847294Y-122150894D01*
X140902988Y-122095200D01*
X141139550Y-122095200D01*
X141117000Y-122117750D01*
X141117000Y-122160310D01*
X141213673Y-122393699D01*
X141392302Y-122572327D01*
X141625691Y-122669000D01*
X142166250Y-122669000D01*
X142325000Y-122510250D01*
X142325000Y-122181440D01*
X142579000Y-122181440D01*
X142579000Y-122510250D01*
X142737750Y-122669000D01*
X142946389Y-122669000D01*
X142422396Y-123192994D01*
X142309659Y-123080060D01*
X141950370Y-122930870D01*
X141561337Y-122930531D01*
X141201788Y-123079093D01*
X140926460Y-123353941D01*
X140777270Y-123713230D01*
X140777215Y-123776227D01*
X140540842Y-124012600D01*
X139592979Y-124012600D01*
X139492340Y-123945355D01*
X139333168Y-123913693D01*
X139261659Y-123842060D01*
X138902370Y-123692870D01*
X138513337Y-123692531D01*
X138153788Y-123841093D01*
X137878460Y-124115941D01*
X137729270Y-124475230D01*
X137728931Y-124864263D01*
X137819652Y-125083826D01*
X137146174Y-125083826D01*
X137122724Y-125088490D01*
X137086090Y-125031559D01*
X136952000Y-124939939D01*
X136952000Y-124424156D01*
X137118821Y-124316810D01*
X137263811Y-124104610D01*
X137314820Y-123852720D01*
X137314820Y-123253280D01*
X137270542Y-123017963D01*
X137233082Y-122959748D01*
X137464380Y-122805200D01*
X137524860Y-122744720D01*
X137695026Y-122490047D01*
X137754782Y-122189641D01*
X137754781Y-122189636D01*
X137754781Y-120939455D01*
X137914140Y-120971154D01*
X137914140Y-120971154D01*
G37*
X137914140Y-120971154D02*
X138015111Y-120971154D01*
X137895569Y-121146110D01*
X137851800Y-121362248D01*
X137814270Y-121452630D01*
X137813931Y-121841663D01*
X137850707Y-121930668D01*
X137888838Y-122133317D01*
X138027910Y-122349441D01*
X138240110Y-122494431D01*
X138318806Y-122510367D01*
X138596630Y-122625730D01*
X138985663Y-122626069D01*
X139255055Y-122514759D01*
X139327317Y-122501162D01*
X139338979Y-122493658D01*
X139340110Y-122494431D01*
X139592000Y-122545440D01*
X140192000Y-122545440D01*
X140427317Y-122501162D01*
X140643441Y-122362090D01*
X140737718Y-122224111D01*
X140847294Y-122150894D01*
X140902988Y-122095200D01*
X141139550Y-122095200D01*
X141117000Y-122117750D01*
X141117000Y-122160310D01*
X141213673Y-122393699D01*
X141392302Y-122572327D01*
X141625691Y-122669000D01*
X142166250Y-122669000D01*
X142325000Y-122510250D01*
X142325000Y-122181440D01*
X142579000Y-122181440D01*
X142579000Y-122510250D01*
X142737750Y-122669000D01*
X142946389Y-122669000D01*
X142422396Y-123192994D01*
X142309659Y-123080060D01*
X141950370Y-122930870D01*
X141561337Y-122930531D01*
X141201788Y-123079093D01*
X140926460Y-123353941D01*
X140777270Y-123713230D01*
X140777215Y-123776227D01*
X140540842Y-124012600D01*
X139592979Y-124012600D01*
X139492340Y-123945355D01*
X139333168Y-123913693D01*
X139261659Y-123842060D01*
X138902370Y-123692870D01*
X138513337Y-123692531D01*
X138153788Y-123841093D01*
X137878460Y-124115941D01*
X137729270Y-124475230D01*
X137728931Y-124864263D01*
X137819652Y-125083826D01*
X137146174Y-125083826D01*
X137122724Y-125088490D01*
X137086090Y-125031559D01*
X136952000Y-124939939D01*
X136952000Y-124424156D01*
X137118821Y-124316810D01*
X137263811Y-124104610D01*
X137314820Y-123852720D01*
X137314820Y-123253280D01*
X137270542Y-123017963D01*
X137233082Y-122959748D01*
X137464380Y-122805200D01*
X137524860Y-122744720D01*
X137695026Y-122490047D01*
X137754782Y-122189641D01*
X137754781Y-122189636D01*
X137754781Y-120939455D01*
X137914140Y-120971154D01*
G36*
X135836800Y-116227589D02*
X135836800Y-116240745D01*
X135890937Y-116512909D01*
X136045105Y-116743639D01*
X136208249Y-116906783D01*
X136003253Y-116821661D01*
X135614220Y-116821322D01*
X135254671Y-116969884D01*
X135112980Y-117111328D01*
X135113069Y-117009337D01*
X134964507Y-116649788D01*
X134689659Y-116374460D01*
X134330370Y-116225270D01*
X133941337Y-116224931D01*
X133581788Y-116373493D01*
X133306460Y-116648341D01*
X133157270Y-117007630D01*
X133157215Y-117070628D01*
X132611000Y-117616843D01*
X131642079Y-116647921D01*
X131451307Y-116520451D01*
X131558245Y-116360407D01*
X131618000Y-116060000D01*
X131618000Y-113653797D01*
X131679431Y-113563890D01*
X131730440Y-113312000D01*
X131730440Y-112712000D01*
X131713731Y-112623200D01*
X132232412Y-112623200D01*
X135836800Y-116227589D01*
X135836800Y-116227589D01*
G37*
X135836800Y-116227589D02*
X135836800Y-116240745D01*
X135890937Y-116512909D01*
X136045105Y-116743639D01*
X136208249Y-116906783D01*
X136003253Y-116821661D01*
X135614220Y-116821322D01*
X135254671Y-116969884D01*
X135112980Y-117111328D01*
X135113069Y-117009337D01*
X134964507Y-116649788D01*
X134689659Y-116374460D01*
X134330370Y-116225270D01*
X133941337Y-116224931D01*
X133581788Y-116373493D01*
X133306460Y-116648341D01*
X133157270Y-117007630D01*
X133157215Y-117070628D01*
X132611000Y-117616843D01*
X131642079Y-116647921D01*
X131451307Y-116520451D01*
X131558245Y-116360407D01*
X131618000Y-116060000D01*
X131618000Y-113653797D01*
X131679431Y-113563890D01*
X131730440Y-113312000D01*
X131730440Y-112712000D01*
X131713731Y-112623200D01*
X132232412Y-112623200D01*
X135836800Y-116227589D01*
M02*
