M48
;DRILL file {KiCad 4.0.2-stable} date Mon 29 Aug 2016 22:27:59 CEST
;FORMAT={-:-/ absolute / inch / decimal}
FMAT,2
INCH,TZ
T1C0.013
T2C0.028
T3C0.040
%
G90
G05
M72
T1
X3.6859Y-4.1393
X3.6859Y-4.1893
X3.6859Y-4.2893
X3.6859Y-4.3893
X3.6859Y-4.4393
X3.7359Y-3.9393
X3.7359Y-4.6393
X3.8509Y-4.9847
X3.8511Y-4.8693
X3.9359Y-4.6393
X3.9771Y-4.5123
X3.9859Y-4.6393
X4.02Y-4.5552
X4.0254Y-4.4457
X4.0459Y-4.9397
X4.0669Y-4.0273
X4.1059Y-4.0243
X4.1059Y-4.9593
X4.1859Y-3.9393
X4.3359Y-3.9393
X4.3859Y-4.6393
X4.422Y-4.5373
X4.4968Y-5.1339
X4.5193Y-5.1029
X4.6859Y-3.9393
X4.6859Y-4.3843
X4.6859Y-4.6393
X4.7159Y-4.7493
X4.7159Y-4.8993
X4.7759Y-4.4959
X4.8059Y-4.6693
X4.8759Y-4.5993
X4.8759Y-4.6493
X4.8759Y-4.6993
X4.9109Y-5.0493
X4.9778Y-4.5474
X4.9959Y-4.4793
X4.9969Y-4.4148
X5.0159Y-4.6993
X5.0192Y-4.5993
X5.0192Y-4.6493
X5.0624Y-3.6105
X5.0759Y-4.571
X5.0909Y-4.7493
X5.0959Y-4.1193
X5.1096Y-4.5008
X5.1173Y-3.6343
X5.1259Y-4.1893
X5.143Y-3.6136
X5.1536Y-4.0467
X5.188Y-3.7014
X5.1912Y-4.1908
X5.2059Y-4.5043
X5.243Y-4.084
X5.2747Y-3.7168
X5.2755Y-4.7243
X5.2777Y-4.8268
X5.2779Y-4.1694
X5.2809Y-4.6143
X5.2918Y-4.9847
X5.302Y-4.1936
X5.3085Y-3.7168
X5.3368Y-4.2284
X5.3463Y-4.263
X5.3468Y-4.6378
X5.348Y-3.7123
X5.3728Y-3.6722
X5.3859Y-3.5293
X5.3986Y-4.2602
X5.4013Y-4.6872
X5.4065Y-3.7043
X5.4111Y-4.4948
X5.4302Y-4.7032
X5.4313Y-4.2651
X5.4359Y-3.7193
X5.4359Y-5.1039
X5.4359Y-5.1693
X5.439Y-3.8071
X5.4421Y-4.5062
X5.4489Y-4.676
X5.4534Y-3.7774
X5.4563Y-3.8354
X5.4609Y-4.9083
X5.4643Y-4.7893
X5.468Y-5.018
X5.4714Y-4.3148
X5.4808Y-3.861
X5.4859Y-4.5493
X5.4859Y-4.6793
X5.496Y-4.9809
X5.5039Y-4.3088
X5.5158Y-4.717
X5.5285Y-4.6398
X5.535Y-4.3196
X5.5366Y-5.0224
X5.5459Y-5.0541
X5.5471Y-5.0871
X5.5559Y-5.1693
X5.559Y-5.1178
X5.5611Y-4.6346
X5.5659Y-4.1593
X5.5668Y-4.3287
X5.5809Y-4.8783
X5.6033Y-4.9422
X5.6098Y-5.0338
X5.6165Y-5.0661
X5.6209Y-4.9143
X5.6355Y-5.0931
X5.6359Y-3.5693
X5.6669Y-5.1031
X5.6797Y-4.5251
X5.7335Y-4.1587
X5.7459Y-5.1693
X5.7499Y-4.9264
X5.7499Y-5.0173
X5.7607Y-4.4891
X5.7659Y-4.6593
X5.7759Y-3.8393
X5.7834Y-5.0416
X5.7883Y-5.0072
X5.7911Y-4.3738
X5.8109Y-4.6765
X5.8132Y-4.9672
X5.8134Y-4.4983
X5.8136Y-4.9342
X5.8237Y-4.3783
X5.825Y-4.2168
X5.8254Y-4.9979
X5.8259Y-3.5693
X5.8259Y-4.3443
X5.8259Y-4.5893
X5.8472Y-4.4905
X5.859Y-4.6213
X5.8627Y-3.6787
X5.8679Y-4.2873
X5.8725Y-4.7479
X5.8745Y-4.5288
X5.8859Y-3.7193
X5.8859Y-3.7793
X5.8859Y-3.8393
X5.9039Y-4.6001
X5.9059Y-4.6971
X5.906Y-4.7541
X5.9119Y-4.6503
X5.9335Y-4.4695
X5.9509Y-4.5767
X5.9624Y-4.6462
X5.9659Y-4.1593
X5.9785Y-4.4817
X5.9788Y-4.7633
X5.9837Y-4.5547
X5.986Y-4.013
X5.9863Y-4.3518
X5.9959Y-4.6898
X6.0021Y-4.6208
X6.0154Y-4.3093
X6.0217Y-4.4477
X6.0359Y-4.3843
X6.0361Y-4.8428
X6.038Y-4.8884
X6.0491Y-4.0647
X6.0828Y-4.8314
X6.0836Y-4.8765
X6.1069Y-4.6613
X6.1106Y-4.8136
X6.1273Y-5.0348
X6.1609Y-3.6568
X6.1709Y-5.1266
X6.1724Y-3.9966
X6.1759Y-4.9218
X6.1799Y-4.5753
X6.1859Y-3.8093
X6.1859Y-3.8593
X6.2104Y-4.1268
X6.2159Y-3.9093
X6.2188Y-4.494
X6.2224Y-4.7565
X6.2288Y-4.7889
X6.2429Y-4.7137
X6.2463Y-4.9208
X6.2659Y-3.9393
X6.2659Y-4.2393
X6.2659Y-4.7693
X6.2759Y-4.0293
X6.2759Y-4.4993
X6.4028Y-3.7454
X6.4255Y-4.3578
X6.4255Y-4.6078
X6.4255Y-4.8578
X6.4328Y-4.1609
T2
X5.1559Y-4.6905
X5.1559Y-4.7693
T3
X3.7859Y-3.4393
X3.7859Y-5.2393
X3.8859Y-3.4393
X3.8859Y-5.2393
X3.9859Y-3.4393
X3.9859Y-5.2393
X4.0859Y-3.4393
X4.0859Y-5.2393
X4.1859Y-3.4393
X4.1859Y-5.2393
X4.2859Y-3.4393
X4.2859Y-5.2393
X4.3859Y-3.4393
X4.3859Y-5.2393
X4.4859Y-3.4393
X4.4859Y-5.2393
X4.5859Y-3.4393
X4.5859Y-5.2393
X4.6859Y-3.4393
X4.6859Y-5.2393
X4.7859Y-3.4393
X4.7859Y-5.2393
X4.8859Y-3.4393
X4.8859Y-5.2393
X4.9859Y-3.4393
X4.9859Y-5.2393
X5.0859Y-3.4393
X5.0859Y-5.2393
X5.1859Y-3.4393
X5.1859Y-5.2393
X5.2859Y-3.4393
X5.2859Y-5.2393
X5.3859Y-3.4393
X5.3859Y-5.2393
X5.4859Y-3.4393
X5.4859Y-5.2393
X5.5859Y-3.4393
X5.5859Y-5.2393
X5.6859Y-3.4393
X5.6859Y-5.2393
X5.7859Y-3.4393
X5.8859Y-3.4393
X5.9859Y-3.4393
X6.0859Y-3.4393
X6.1859Y-3.4393
T0
M30
